InterCJK.glyphspackage
{
unicode = "00C6";
layers = (
{
layerId = "master-text-regular";
width = 2035;
paths = (
{
closed = 1;
nodes = (
"52 0 LINE" 
"768 1490 LINE" 
"1890 1490 LINE" 
"1890 1322 LINE" 
"1174 1322 LINE" 
"1174 830 LINE" 
"1844 830 LINE" 
"1844 662 LINE" 
"1174 662 LINE" 
"1174 168 LINE" 
"1901 168 LINE" 
"1901 0 LINE" 
"992 0 LINE" 
"992 1367 LINE" 
"899 1367 LINE" 
"261 0 LINE" 
);
},
{
closed = 1;
nodes = (
"395 416 LINE" 
"395 574 LINE" 
"1081 574 LINE" 
"1081 416 LINE" 
);
},
);
},
);
}
{
unicode = "0042";
layers = (
{
layerId = "master-text-regular";
width = 1340;
paths = (
{
closed = 1;
nodes = (
"180 0 LINE" 
"180 1490 LINE" 
"708 1490 LINE" 
"864 1490 OFFCURVE"
"1067 1383 OFFCURVE"
"1166 1204 OFFCURVE"
"1166 1095 CURVE"
"1166 999 OFFCURVE"
"1098 874 OFFCURVE"
"987 800 OFFCURVE"
"922 782 CURVE"
"922 768 LINE" 
"992 764 OFFCURVE"
"1131 676 OFFCURVE"
"1224 514 OFFCURVE"
"1224 397 CURVE"
"1224 285 OFFCURVE"
"1121 105 OFFCURVE"
"901 0 OFFCURVE"
"725 0 CURVE"
);
},
{
closed = 1;
nodes = (
"370 168 LINE" 
"720 168 LINE" 
"894 168 OFFCURVE"
"1041 302 OFFCURVE"
"1041 399 CURVE"
"1041 474 OFFCURVE"
"965 600 OFFCURVE"
"826 676 OFFCURVE"
"730 676 CURVE"
"370 676 LINE" 
);
},
{
closed = 1;
nodes = (
"370 836 LINE" 
"698 836 LINE" 
"778 836 OFFCURVE"
"908 899 OFFCURVE"
"984 1014 OFFCURVE"
"984 1091 CURVE"
"984 1188 OFFCURVE"
"849 1322 OFFCURVE"
"704 1322 CURVE"
"370 1322 LINE" 
);
},
);
},
);
}
{
unicode = "0043";
layers = (
{
layerId = "master-text-regular";
width = 1496;
paths = (
{
closed = 1;
nodes = (
"783 -20 LINE" 
"592 -20 OFFCURVE"
"293 165 OFFCURVE"
"122 508 OFFCURVE"
"122 744 CURVE"
"122 981 OFFCURVE"
"293 1324 OFFCURVE"
"592 1510 OFFCURVE"
"783 1510 CURVE"
"896 1510 OFFCURVE"
"1097 1444 OFFCURVE"
"1257 1317 OFFCURVE"
"1364 1136 OFFCURVE"
"1384 1021 CURVE"
"1194 1021 LINE" 
"1178 1098 OFFCURVE"
"1101 1214 OFFCURVE"
"990 1294 OFFCURVE"
"856 1334 OFFCURVE"
"783 1334 CURVE"
"649 1334 OFFCURVE"
"433 1198 OFFCURVE"
"307 935 OFFCURVE"
"307 744 CURVE"
"307 554 OFFCURVE"
"434 291 OFFCURVE"
"650 156 OFFCURVE"
"783 156 CURVE"
"856 156 OFFCURVE"
"990 197 OFFCURVE"
"1101 276 OFFCURVE"
"1178 393 OFFCURVE"
"1194 469 CURVE"
"1384 469 LINE" 
"1365 355 OFFCURVE"
"1258 175 OFFCURVE"
"1098 47 OFFCURVE"
"897 -20 OFFCURVE"
);
},
);
},
);
}
{
unicode = "0044";
layers = (
{
layerId = "master-text-regular";
width = 1478;
paths = (
{
closed = 1;
nodes = (
"645 0 LINE" 
"285 0 LINE" 
"285 168 LINE" 
"633 168 LINE" 
"815 168 OFFCURVE"
"1054 307 OFFCURVE"
"1172 567 OFFCURVE"
"1172 748 CURVE"
"1172 927 OFFCURVE"
"1055 1184 OFFCURVE"
"824 1322 OFFCURVE"
"651 1322 CURVE"
"277 1322 LINE" 
"277 1490 LINE" 
"664 1490 LINE" 
"882 1490 OFFCURVE"
"1191 1312 OFFCURVE"
"1356 979 OFFCURVE"
"1356 748 CURVE"
"1356 515 OFFCURVE"
"1190 180 OFFCURVE"
"872 0 OFFCURVE"
);
},
{
closed = 1;
nodes = (
"370 1490 LINE" 
"370 0 LINE" 
"180 0 LINE" 
"180 1490 LINE" 
);
},
);
},
);
}
{
unicode = "0045";
layers = (
{
layerId = "master-text-regular";
width = 1231;
paths = (
{
closed = 1;
nodes = (
"180 0 LINE" 
"180 1490 LINE" 
"1088 1490 LINE" 
"1088 1322 LINE" 
"370 1322 LINE" 
"370 836 LINE" 
"1039 836 LINE" 
"1039 668 LINE" 
"370 668 LINE" 
"370 168 LINE" 
"1097 168 LINE" 
"1097 0 LINE" 
);
},
);
},
);
}
{
unicode = "014A";
layers = (
{
layerId = "master-text-regular";
width = 1543;
paths = (
{
closed = 1;
nodes = (
"979 -418 LINE" 
"979 -259 LINE" 
"996 -262 OFFCURVE"
"1027 -264 OFFCURVE"
"1038 -264 CURVE"
"1121 -264 OFFCURVE"
"1184 -215 OFFCURVE"
"1184 -163 CURVE"
"1184 128 LINE" 
"1374 128 LINE" 
"1374 -171 LINE" 
"1374 -295 OFFCURVE"
"1226 -427 OFFCURVE"
"1083 -427 CURVE"
"1051 -427 OFFCURVE"
"994 -422 OFFCURVE"
);
},
{
closed = 1;
nodes = (
"180 0 LINE" 
"180 1490 LINE" 
"404 1490 LINE" 
"1010 537 LINE" 
"1034 500 OFFCURVE"
"1102 384 OFFCURVE"
"1181 238 OFFCURVE"
"1219 155 CURVE"
"1192 155 LINE" 
"1183 241 OFFCURVE"
"1175 398 OFFCURVE"
"1173 530 OFFCURVE"
"1173 576 CURVE"
"1173 1490 LINE" 
"1363 1490 LINE" 
"1363 0 LINE" 
"1137 0 LINE" 
"597 848 LINE" 
"560 907 OFFCURVE"
"485 1032 OFFCURVE"
"389 1203 OFFCURVE"
"318 1329 CURVE"
"353 1329 LINE" 
"358 1218 OFFCURVE"
"366 1030 OFFCURVE"
"371 890 OFFCURVE"
"371 850 CURVE"
"371 0 LINE" 
);
},
);
},
);
}
{
unicode = "0190";
layers = (
{
layerId = "master-text-regular";
width = 1265;
paths = (
{
closed = 1;
nodes = (
"630 -20 LINE" 
"484 -20 OFFCURVE"
"254 91 OFFCURVE"
"122 283 OFFCURVE"
"122 405 CURVE"
"122 499 OFFCURVE"
"193 649 OFFCURVE"
"328 747 OFFCURVE"
"423 762 CURVE"
"423 774 LINE" 
"309 808 OFFCURVE"
"176 984 OFFCURVE"
"176 1110 CURVE"
"176 1216 OFFCURVE"
"284 1398 OFFCURVE"
"485 1510 OFFCURVE"
"624 1510 CURVE"
"755 1510 OFFCURVE"
"972 1410 OFFCURVE"
"1104 1232 OFFCURVE"
"1108 1115 CURVE"
"925 1115 LINE" 
"922 1188 OFFCURVE"
"837 1290 OFFCURVE"
"704 1345 OFFCURVE"
"628 1345 CURVE"
"547 1345 OFFCURVE"
"428 1284 OFFCURVE"
"362 1174 OFFCURVE"
"362 1100 CURVE"
"362 1023 OFFCURVE"
"437 909 OFFCURVE"
"569 846 OFFCURVE"
"656 846 CURVE"
"777 846 LINE" 
"777 681 LINE" 
"656 681 LINE" 
"546 681 OFFCURVE"
"391 611 OFFCURVE"
"310 488 OFFCURVE"
"310 407 CURVE"
"310 330 OFFCURVE"
"394 212 OFFCURVE"
"540 147 OFFCURVE"
"633 147 CURVE"
"718 147 OFFCURVE"
"857 202 OFFCURVE"
"943 305 OFFCURVE"
"948 376 CURVE"
"1140 376 LINE" 
"1135 258 OFFCURVE"
"1003 80 OFFCURVE"
"776 -20 OFFCURVE"
);
},
);
},
);
}
{
unicode = "018E";
layers = (
{
layerId = "master-text-regular";
width = 1231;
paths = (
{
closed = 1;
nodes = (
"1051 1490 LINE" 
"1051 0 LINE" 
"143 0 LINE" 
"143 168 LINE" 
"861 168 LINE" 
"861 654 LINE" 
"192 654 LINE" 
"192 822 LINE" 
"861 822 LINE" 
"861 1322 LINE" 
"134 1322 LINE" 
"134 1490 LINE" 
);
},
);
},
);
}
{
unicode = "20AC";
layers = (
{
layerId = "master-text-regular";
width = 1365;
paths = (
{
closed = 1;
nodes = (
"1070 963 LINE" 
"1002 818 LINE" 
"52 818 LINE" 
"105 963 LINE" 
);
},
{
closed = 1;
nodes = (
"943 672 LINE" 
"876 525 LINE" 
"52 525 LINE" 
"105 672 LINE" 
);
},
{
closed = 1;
nodes = (
"1243 1357 LINE" 
"1170 1198 LINE" 
"1126 1238 OFFCURVE"
"1025 1299 OFFCURVE"
"911 1334 OFFCURVE"
"847 1334 CURVE"
"725 1334 OFFCURVE"
"531 1199 OFFCURVE"
"419 937 OFFCURVE"
"419 744 CURVE"
"419 553 OFFCURVE"
"531 290 OFFCURVE"
"725 156 OFFCURVE"
"847 156 CURVE"
"912 156 OFFCURVE"
"1025 190 OFFCURVE"
"1123 248 OFFCURVE"
"1164 282 CURVE"
"1239 125 LINE" 
"1163 53 OFFCURVE"
"959 -20 OFFCURVE"
"847 -20 CURVE"
"668 -20 OFFCURVE"
"390 165 OFFCURVE"
"233 508 OFFCURVE"
"233 744 CURVE"
"233 981 OFFCURVE"
"390 1324 OFFCURVE"
"668 1510 OFFCURVE"
"847 1510 CURVE"
"960 1510 OFFCURVE"
"1162 1433 OFFCURVE"
);
},
);
},
);
}
{
unicode = "0046";
layers = (
{
layerId = "master-text-regular";
width = 1209;
paths = (
{
closed = 1;
nodes = (
"180 0 LINE" 
"180 1490 LINE" 
"1081 1490 LINE" 
"1081 1322 LINE" 
"370 1322 LINE" 
"370 812 LINE" 
"1013 812 LINE" 
"1013 644 LINE" 
"370 644 LINE" 
"370 0 LINE" 
);
},
);
},
);
}
{
unicode = "2132";
layers = (
{
layerId = "master-text-regular";
width = 1209;
paths = (
{
closed = 1;
nodes = (
"1029 1490 LINE" 
"1029 0 LINE" 
"128 0 LINE" 
"128 168 LINE" 
"839 168 LINE" 
"839 678 LINE" 
"196 678 LINE" 
"196 846 LINE" 
"839 846 LINE" 
"839 1490 LINE" 
);
},
);
},
);
}
{
unicode = "0047";
layers = (
{
layerId = "master-text-regular";
width = 1528;
paths = (
{
closed = 1;
nodes = (
"789 -20 LINE" 
"590 -20 OFFCURVE"
"290 166 OFFCURVE"
"122 509 OFFCURVE"
"122 744 CURVE"
"122 981 OFFCURVE"
"290 1324 OFFCURVE"
"586 1510 OFFCURVE"
"777 1510 CURVE"
"895 1510 OFFCURVE"
"1100 1440 OFFCURVE"
"1262 1310 OFFCURVE"
"1369 1131 OFFCURVE"
"1389 1023 CURVE"
"1193 1023 LINE" 
"1170 1095 OFFCURVE"
"1094 1209 OFFCURVE"
"989 1291 OFFCURVE"
"857 1334 OFFCURVE"
"778 1334 CURVE"
"647 1334 OFFCURVE"
"433 1199 OFFCURVE"
"307 936 OFFCURVE"
"307 744 CURVE"
"307 554 OFFCURVE"
"434 292 OFFCURVE"
"652 156 OFFCURVE"
"789 156 CURVE"
"915 156 OFFCURVE"
"1107 263 OFFCURVE"
"1214 460 OFFCURVE"
"1214 594 CURVE"
"1271 583 LINE" 
"828 583 LINE" 
"828 749 LINE" 
"1400 749 LINE" 
"1400 586 LINE" 
"1400 401 OFFCURVE"
"1242 129 OFFCURVE"
"967 -20 OFFCURVE"
);
},
);
},
);
}
{
unicode = "E002";
layers = (
{
layerId = "master-text-regular";
width = 1550;
paths = (
{
closed = 1;
nodes = (
"772 -20 LINE" 
"583 -20 OFFCURVE"
"290 166 OFFCURVE"
"122 509 OFFCURVE"
"122 744 CURVE"
"122 981 OFFCURVE"
"290 1324 OFFCURVE"
"586 1510 OFFCURVE"
"777 1510 CURVE"
"895 1510 OFFCURVE"
"1100 1440 OFFCURVE"
"1262 1310 OFFCURVE"
"1369 1131 OFFCURVE"
"1389 1023 CURVE"
"1193 1023 LINE" 
"1170 1095 OFFCURVE"
"1094 1209 OFFCURVE"
"989 1291 OFFCURVE"
"857 1334 OFFCURVE"
"778 1334 CURVE"
"647 1334 OFFCURVE"
"433 1199 OFFCURVE"
"307 936 OFFCURVE"
"307 744 CURVE"
"307 554 OFFCURVE"
"434 292 OFFCURVE"
"652 156 OFFCURVE"
"789 156 CURVE"
"921 156 OFFCURVE"
"1113 269 OFFCURVE"
"1216 478 OFFCURVE"
"1216 621 CURVE"
"1242 621 LINE" 
"1242 482 LINE" 
"1242 391 OFFCURVE"
"1195 213 OFFCURVE"
"1088 67 OFFCURVE"
"907 -20 OFFCURVE"
);
},
{
closed = 1;
nodes = (
"1251 0 LINE" 
"1220 373 LINE" 
"1220 583 LINE" 
"827 583 LINE" 
"827 749 LINE" 
"1400 749 LINE" 
"1400 0 LINE" 
);
},
);
},
);
}
{
unicode = "0194";
layers = (
{
layerId = "master-text-regular";
width = 1302;
paths = (
{
closed = 1;
nodes = (
"20 1490 LINE" 
"228 1490 LINE" 
"731 300 LINE" 
"789 164 OFFCURVE"
"877 -22 OFFCURVE"
"928 -149 OFFCURVE"
"928 -196 CURVE"
"928 -274 OFFCURVE"
"862 -384 OFFCURVE"
"738 -442 OFFCURVE"
"651 -442 CURVE"
"522 -442 OFFCURVE"
"374 -314 OFFCURVE"
"374 -195 CURVE"
"374 -166 OFFCURVE"
"391 -100 OFFCURVE"
"423 -19 OFFCURVE"
"470 84 OFFCURVE"
"530 216 OFFCURVE"
"566 300 CURVE"
"1074 1490 LINE" 
"1282 1490 LINE" 
"684 116 LINE" 
"647 31 OFFCURVE"
"594 -86 OFFCURVE"
"565 -165 OFFCURVE"
"565 -194 CURVE"
"565 -228 OFFCURVE"
"612 -276 OFFCURVE"
"651 -276 CURVE"
"689 -276 OFFCURVE"
"737 -227 OFFCURVE"
"737 -194 CURVE"
"737 -164 OFFCURVE"
"710 -85 OFFCURVE"
"658 32 OFFCURVE"
"621 116 CURVE"
);
},
);
},
);
}
{
unicode = "0048";
layers = (
{
layerId = "master-text-regular";
width = 1522;
paths = (
{
closed = 1;
nodes = (
"180 0 LINE" 
"180 1490 LINE" 
"370 1490 LINE" 
"370 846 LINE" 
"1152 846 LINE" 
"1152 1490 LINE" 
"1342 1490 LINE" 
"1342 0 LINE" 
"1152 0 LINE" 
"1152 678 LINE" 
"370 678 LINE" 
"370 0 LINE" 
);
},
);
},
);
}
{
unicode = "0126";
layers = (
{
layerId = "master-text-regular";
width = 1590;
paths = (
{
closed = 1;
nodes = (
"1492 1176 LINE" 
"1492 1024 LINE" 
"98 1024 LINE" 
"98 1176 LINE" 
);
},
{
closed = 1;
nodes = (
"218 0 LINE" 
"218 1490 LINE" 
"408 1490 LINE" 
"408 846 LINE" 
"1190 846 LINE" 
"1190 1490 LINE" 
"1380 1490 LINE" 
"1380 0 LINE" 
"1190 0 LINE" 
"1190 678 LINE" 
"408 678 LINE" 
"408 0 LINE" 
);
},
);
},
);
}
{
unicode = "0049";
layers = (
{
layerId = "master-text-regular";
width = 550;
paths = (
{
closed = 1;
nodes = (
"370 1490 LINE" 
"370 0 LINE" 
"180 0 LINE" 
"180 1490 LINE" 
);
},
);
},
);
}
{
unicode = "E00C";
layers = (
{
layerId = "master-text-regular";
width = 903;
paths = (
{
closed = 1;
nodes = (
"92 0 LINE" 
"92 168 LINE" 
"357 168 LINE" 
"357 1322 LINE" 
"92 1322 LINE" 
"92 1490 LINE" 
"811 1490 LINE" 
"811 1322 LINE" 
"547 1322 LINE" 
"547 168 LINE" 
"811 168 LINE" 
"811 0 LINE" 
);
},
);
},
);
}
{
unicode = "004A";
layers = (
{
layerId = "master-text-regular";
width = 1169;
paths = (
{
closed = 1;
nodes = (
"545 -20 LINE" 
"348 -20 OFFCURVE"
"100 212 OFFCURVE"
"100 426 CURVE"
"100 506 LINE" 
"290 506 LINE" 
"290 426 LINE" 
"290 290 OFFCURVE"
"430 147 OFFCURVE"
"545 147 CURVE"
"659 147 OFFCURVE"
"799 290 OFFCURVE"
"799 426 CURVE"
"799 1490 LINE" 
"989 1490 LINE" 
"989 426 LINE" 
"989 212 OFFCURVE"
"742 -20 OFFCURVE"
);
},
);
},
);
}
{
unicode = "004B";
layers = (
{
layerId = "master-text-regular";
width = 1376;
paths = (
{
closed = 1;
nodes = (
"310 426 LINE" 
"310 629 LINE" 
"361 699 OFFCURVE"
"462 827 OFFCURVE"
"568 949 OFFCURVE"
"624 1009 CURVE"
"1069 1490 LINE" 
"1318 1490 LINE" 
"682 808 LINE" 
"672 809 LINE" 
);
},
{
closed = 1;
nodes = (
"180 0 LINE" 
"180 1490 LINE" 
"370 1490 LINE" 
"370 980 LINE" 
"367 659 LINE" 
"370 566 LINE" 
"370 0 LINE" 
);
},
{
closed = 1;
nodes = (
"1094 0 LINE" 
"555 758 LINE" 
"673 906 LINE" 
"1319 0 LINE" 
);
},
);
},
);
}
{
unicode = "041A";
layers = (
{
layerId = "master-text-regular";
width = 1376;
paths = (
{
closed = 1;
nodes = (
"180 0 LINE" 
"180 1490 LINE" 
"370 1490 LINE" 
"370 841 LINE" 
"579 841 LINE" 
"1065 1490 LINE" 
"1295 1490 LINE" 
"740 768 LINE" 
"1319 0 LINE" 
"1090 0 LINE" 
"587 676 LINE" 
"370 676 LINE" 
"370 0 LINE" 
);
},
);
},
);
}
{
unicode = "004C";
layers = (
{
layerId = "master-text-regular";
width = 1158;
paths = (
{
closed = 1;
nodes = (
"180 0 LINE" 
"180 1490 LINE" 
"370 1490 LINE" 
"370 168 LINE" 
"1060 168 LINE" 
"1060 0 LINE" 
);
},
);
},
);
}
{
unicode = "004D";
layers = (
{
layerId = "master-text-regular";
width = 1850;
paths = (
{
closed = 1;
nodes = (
"180 0 LINE" 
"180 1490 LINE" 
"450 1490 LINE" 
"817 550 LINE" 
"830 517 OFFCURVE"
"863 418 OFFCURVE"
"900 302 OFFCURVE"
"934 187 OFFCURVE"
"947 138 CURVE"
"905 138 LINE" 
"919 184 OFFCURVE"
"953 297 OFFCURVE"
"990 414 OFFCURVE"
"1024 516 OFFCURVE"
"1037 550 CURVE"
"1399 1490 LINE" 
"1670 1490 LINE" 
"1670 0 LINE" 
"1483 0 LINE" 
"1483 851 LINE" 
"1483 897 OFFCURVE"
"1484 1015 OFFCURVE"
"1487 1145 OFFCURVE"
"1490 1279 OFFCURVE"
"1491 1342 CURVE"
"1507 1342 LINE" 
"1486 1273 OFFCURVE"
"1439 1130 OFFCURVE"
"1394 997 OFFCURVE"
"1354 887 OFFCURVE"
"1340 851 CURVE"
"1007 0 LINE" 
"842 0 LINE" 
"504 851 LINE" 
"490 886 OFFCURVE"
"452 993 OFFCURVE"
"407 1124 OFFCURVE"
"359 1269 OFFCURVE"
"334 1342 CURVE"
"352 1342 LINE" 
"354 1286 OFFCURVE"
"357 1156 OFFCURVE"
"359 1023 OFFCURVE"
"361 900 OFFCURVE"
"361 851 CURVE"
"361 0 LINE" 
);
},
);
},
);
}
{
unicode = "004E";
layers = (
{
layerId = "master-text-regular";
width = 1543;
paths = (
{
closed = 1;
nodes = (
"180 0 LINE" 
"180 1490 LINE" 
"404 1490 LINE" 
"1010 537 LINE" 
"1034 500 OFFCURVE"
"1102 384 OFFCURVE"
"1181 238 OFFCURVE"
"1219 155 CURVE"
"1192 155 LINE" 
"1183 241 OFFCURVE"
"1175 398 OFFCURVE"
"1173 530 OFFCURVE"
"1173 576 CURVE"
"1173 1490 LINE" 
"1363 1490 LINE" 
"1363 0 LINE" 
"1137 0 LINE" 
"597 848 LINE" 
"560 907 OFFCURVE"
"485 1032 OFFCURVE"
"389 1203 OFFCURVE"
"318 1329 CURVE"
"353 1329 LINE" 
"358 1218 OFFCURVE"
"366 1030 OFFCURVE"
"371 890 OFFCURVE"
"371 850 CURVE"
"371 0 LINE" 
);
},
);
},
);
}
{
unicode = "019D";
layers = (
{
layerId = "master-text-regular";
width = 1543;
paths = (
{
closed = 1;
nodes = (
"-25 -418 LINE" 
"-25 -259 LINE" 
"-8 -262 OFFCURVE"
"23 -264 OFFCURVE"
"34 -264 CURVE"
"117 -264 OFFCURVE"
"180 -215 OFFCURVE"
"180 -163 CURVE"
"180 128 LINE" 
"370 128 LINE" 
"370 -171 LINE" 
"370 -295 OFFCURVE"
"222 -427 OFFCURVE"
"79 -427 CURVE"
"47 -427 OFFCURVE"
"-10 -422 OFFCURVE"
);
},
{
closed = 1;
nodes = (
"180 0 LINE" 
"180 1490 LINE" 
"404 1490 LINE" 
"1010 537 LINE" 
"1034 500 OFFCURVE"
"1102 384 OFFCURVE"
"1181 238 OFFCURVE"
"1219 155 CURVE"
"1192 155 LINE" 
"1183 241 OFFCURVE"
"1175 398 OFFCURVE"
"1173 530 OFFCURVE"
"1173 576 CURVE"
"1173 1490 LINE" 
"1363 1490 LINE" 
"1363 0 LINE" 
"1137 0 LINE" 
"597 848 LINE" 
"560 907 OFFCURVE"
"485 1032 OFFCURVE"
"389 1203 OFFCURVE"
"318 1329 CURVE"
"353 1329 LINE" 
"358 1218 OFFCURVE"
"366 1030 OFFCURVE"
"371 890 OFFCURVE"
"371 850 CURVE"
"371 0 LINE" 
);
},
);
},
);
}
{
unicode = "004F";
layers = (
{
layerId = "master-text-regular";
width = 1566;
paths = (
{
closed = 1;
nodes = (
"784 -20 LINE" 
"593 -20 OFFCURVE"
"294 165 OFFCURVE"
"122 508 OFFCURVE"
"122 744 CURVE"
"122 981 OFFCURVE"
"294 1324 OFFCURVE"
"593 1510 OFFCURVE"
"784 1510 CURVE"
"975 1510 OFFCURVE"
"1273 1324 OFFCURVE"
"1444 981 OFFCURVE"
"1444 744 CURVE"
"1444 508 OFFCURVE"
"1273 165 OFFCURVE"
"975 -20 OFFCURVE"
);
},
{
closed = 1;
nodes = (
"784 156 LINE" 
"917 156 OFFCURVE"
"1132 291 OFFCURVE"
"1259 554 OFFCURVE"
"1259 744 CURVE"
"1259 936 OFFCURVE"
"1132 1199 OFFCURVE"
"917 1334 OFFCURVE"
"784 1334 CURVE"
"650 1334 OFFCURVE"
"434 1198 OFFCURVE"
"307 935 OFFCURVE"
"307 744 CURVE"
"307 554 OFFCURVE"
"434 292 OFFCURVE"
"650 156 OFFCURVE"
);
},
);
},
);
}
{
unicode = "0152";
layers = (
{
layerId = "master-text-regular";
width = 2058;
paths = (
{
closed = 1;
nodes = (
"791 0 LINE" 
"595 0 OFFCURVE"
"293 187 OFFCURVE"
"122 522 OFFCURVE"
"122 744 CURVE"
"122 969 OFFCURVE"
"293 1304 OFFCURVE"
"595 1490 OFFCURVE"
"791 1490 CURVE"
"1079 1490 LINE" 
"1079 1322 LINE" 
"791 1322 LINE" 
"647 1322 OFFCURVE"
"429 1180 OFFCURVE"
"307 921 OFFCURVE"
"307 744 CURVE"
"307 570 OFFCURVE"
"429 311 OFFCURVE"
"647 168 OFFCURVE"
"791 168 CURVE"
"1079 168 LINE" 
"1079 0 LINE" 
);
},
{
closed = 1;
nodes = (
"1007 0 LINE" 
"1007 1490 LINE" 
"1915 1490 LINE" 
"1915 1322 LINE" 
"1197 1322 LINE" 
"1197 836 LINE" 
"1866 836 LINE" 
"1866 668 LINE" 
"1197 668 LINE" 
"1197 168 LINE" 
"1924 168 LINE" 
"1924 0 LINE" 
);
},
);
},
);
}
{
unicode = "01A2";
layers = (
{
layerId = "master-text-regular";
width = 1784;
paths = (
{
closed = 1;
nodes = (
"1253 769 LINE" 
"1253 197 LINE" 
"1208 129 OFFCURVE"
"1055 32 OFFCURVE"
"858 -20 OFFCURVE"
"747 -20 CURVE"
"600 -20 OFFCURVE"
"368 77 OFFCURVE"
"206 260 OFFCURVE"
"122 518 OFFCURVE"
"122 679 CURVE"
"122 801 LINE" 
"337 805 LINE" 
"337 679 LINE" 
"337 513 OFFCURVE"
"430 277 OFFCURVE"
"618 152 OFFCURVE"
"759 152 CURVE"
"850 152 OFFCURVE"
"1001 205 OFFCURVE"
"1047 254 CURVE"
"1047 769 LINE" 
);
},
{
closed = 1;
nodes = (
"1253 1293 LINE" 
"1253 733 LINE" 
"1047 733 LINE" 
"1047 1232 LINE" 
"1004 1282 OFFCURVE"
"850 1336 OFFCURVE"
"763 1336 CURVE"
"622 1336 OFFCURVE"
"433 1216 OFFCURVE"
"337 983 OFFCURVE"
"337 811 CURVE"
"337 696 LINE" 
"122 696 LINE" 
"122 811 LINE" 
"122 975 OFFCURVE"
"209 1234 OFFCURVE"
"375 1415 OFFCURVE"
"613 1510 OFFCURVE"
"764 1510 CURVE"
"870 1510 OFFCURVE"
"1061 1456 OFFCURVE"
"1210 1358 OFFCURVE"
);
},
{
closed = 1;
nodes = (
"1604 1490 LINE" 
"1604 -418 LINE" 
"1396 -418 LINE" 
"1396 1280 LINE" 
"1156 1191 LINE" 
"1156 1371 LINE" 
"1444 1490 LINE" 
);
},
);
},
);
}
{
unicode = "0050";
layers = (
{
layerId = "master-text-regular";
width = 1308;
paths = (
{
closed = 1;
nodes = (
"180 0 LINE" 
"180 1490 LINE" 
"690 1490 LINE" 
"864 1490 OFFCURVE"
"1089 1363 OFFCURVE"
"1198 1149 OFFCURVE"
"1198 1016 CURVE"
"1198 883 OFFCURVE"
"1089 667 OFFCURVE"
"865 539 OFFCURVE"
"691 539 CURVE"
"330 539 LINE" 
"330 706 LINE" 
"682 706 LINE" 
"800 706 OFFCURVE"
"944 787 OFFCURVE"
"1009 928 OFFCURVE"
"1009 1016 CURVE"
"1009 1104 OFFCURVE"
"944 1243 OFFCURVE"
"799 1323 OFFCURVE"
"680 1323 CURVE"
"370 1323 LINE" 
"370 0 LINE" 
);
},
);
},
);
}
{
unicode = "03A6";
layers = (
{
layerId = "master-text-regular";
width = 1803;
paths = (
{
closed = 1;
nodes = (
"834 61 LINE" 
"626 61 OFFCURVE"
"305 236 OFFCURVE"
"122 544 OFFCURVE"
"122 745 CURVE"
"122 946 OFFCURVE"
"305 1255 OFFCURVE"
"626 1429 OFFCURVE"
"834 1429 CURVE"
"969 1429 LINE" 
"1177 1429 OFFCURVE"
"1498 1255 OFFCURVE"
"1681 946 OFFCURVE"
"1681 745 CURVE"
"1681 544 OFFCURVE"
"1498 236 OFFCURVE"
"1177 61 OFFCURVE"
"969 61 CURVE"
);
},
{
closed = 1;
nodes = (
"834 226 LINE" 
"969 226 LINE" 
"1130 226 OFFCURVE"
"1364 354 OFFCURVE"
"1491 588 OFFCURVE"
"1491 745 CURVE"
"1491 903 OFFCURVE"
"1364 1136 OFFCURVE"
"1130 1264 OFFCURVE"
"969 1264 CURVE"
"834 1264 LINE" 
"674 1264 OFFCURVE"
"439 1136 OFFCURVE"
"312 903 OFFCURVE"
"312 745 CURVE"
"312 588 OFFCURVE"
"439 354 OFFCURVE"
"674 226 OFFCURVE"
);
},
{
closed = 1;
nodes = (
"810 -65 LINE" 
"810 1555 LINE" 
"993 1555 LINE" 
"993 -65 LINE" 
);
},
);
},
);
}
{
unicode = "03A0";
layers = (
{
layerId = "master-text-regular";
width = 1522;
paths = (
{
closed = 1;
nodes = (
"1342 1490 LINE" 
"1342 0 LINE" 
"1152 0 LINE" 
"1152 1322 LINE" 
"370 1322 LINE" 
"370 0 LINE" 
"180 0 LINE" 
"180 1490 LINE" 
);
},
);
},
);
}
{
unicode = "03A8";
layers = (
{
layerId = "master-text-regular";
width = 1802;
paths = (
{
closed = 1;
nodes = (
"1438 1490 LINE" 
"1622 1490 LINE" 
"1622 1105 LINE" 
"1622 936 OFFCURVE"
"1540 685 OFFCURVE"
"1376 518 OFFCURVE"
"1131 435 OFFCURVE"
"968 435 CURVE"
"834 435 LINE" 
"672 435 OFFCURVE"
"427 518 OFFCURVE"
"263 685 OFFCURVE"
"180 936 OFFCURVE"
"180 1105 CURVE"
"180 1490 LINE" 
"364 1490 LINE" 
"364 1116 LINE" 
"364 927 OFFCURVE"
"457 698 OFFCURVE"
"663 595 OFFCURVE"
"833 595 CURVE"
"969 595 LINE" 
"1140 595 OFFCURVE"
"1346 698 OFFCURVE"
"1438 927 OFFCURVE"
"1438 1116 CURVE"
);
},
{
closed = 1;
nodes = (
"809 1490 LINE" 
"993 1490 LINE" 
"993 0 LINE" 
"809 0 LINE" 
);
},
);
},
);
}
{
unicode = "024A";
layers = (
{
layerId = "master-text-regular";
width = 1566;
paths = (
{
closed = 1;
nodes = (
"1386 1490 LINE" 
"1386 0 LINE" 
"1206 0 LINE" 
"1206 235 LINE" 
"1194 235 LINE" 
"1137 112 OFFCURVE"
"904 -24 OFFCURVE"
"753 -24 CURVE"
"614 -24 OFFCURVE"
"382 89 OFFCURVE"
"214 296 OFFCURVE"
"122 580 OFFCURVE"
"122 750 CURVE"
"122 916 OFFCURVE"
"213 1194 OFFCURVE"
"381 1398 OFFCURVE"
"613 1510 OFFCURVE"
"753 1510 CURVE"
"906 1510 OFFCURVE"
"1139 1377 OFFCURVE"
"1194 1261 CURVE"
"1206 1261 LINE" 
"1206 1490 LINE" 
);
},
{
closed = 1;
nodes = (
"758 156 LINE" 
"919 156 OFFCURVE"
"1117 313 OFFCURVE"
"1208 582 OFFCURVE"
"1208 748 CURVE"
"1208 911 OFFCURVE"
"1111 1179 OFFCURVE"
"913 1338 OFFCURVE"
"760 1338 CURVE"
"624 1338 OFFCURVE"
"422 1186 OFFCURVE"
"311 920 OFFCURVE"
"311 748 CURVE"
"311 566 OFFCURVE"
"425 300 OFFCURVE"
"627 156 OFFCURVE"
);
},
{
closed = 1;
nodes = (
"1496 -427 LINE" 
"1354 -427 OFFCURVE"
"1206 -295 OFFCURVE"
"1206 -171 CURVE"
"1206 0 LINE" 
"1386 0 LINE" 
"1386 -171 LINE" 
"1386 -223 OFFCURVE"
"1459 -272 OFFCURVE"
"1542 -272 CURVE"
"1555 -272 OFFCURVE"
"1585 -270 OFFCURVE"
"1601 -268 CURVE"
"1601 -418 LINE" 
"1586 -422 OFFCURVE"
"1529 -427 OFFCURVE"
);
},
);
},
);
}
{
unicode = "02B6";
layers = (
{
layerId = "master-text-regular";
width = 923;
paths = (
{
closed = 1;
nodes = (
"610 1106 LINE" 
"397 1106 LINE" 
"610 1452 LINE" 
"823 1452 LINE" 
);
},
{
closed = 1;
nodes = (
"457 652 LINE" 
"98 652 LINE" 
"98 1452 LINE" 
"285 1452 LINE" 
"285 809 LINE" 
"426 809 LINE" 
"509 809 OFFCURVE"
"584 873 OFFCURVE"
"584 921 CURVE"
"584 966 OFFCURVE"
"517 1030 OFFCURVE"
"443 1030 CURVE"
"244 1030 LINE" 
"244 1185 LINE" 
"472 1184 LINE" 
"567 1184 OFFCURVE"
"700 1109 OFFCURVE"
"770 988 OFFCURVE"
"770 917 CURVE"
"770 847 OFFCURVE"
"696 726 OFFCURVE"
"556 652 OFFCURVE"
);
},
);
},
);
}
{
unicode = "211E";
layers = (
{
layerId = "master-text-regular";
width = 1415;
paths = (
{
closed = 1;
nodes = (
"180 1490 LINE" 
"684 1490 LINE" 
"862 1490 OFFCURVE"
"1084 1365 OFFCURVE"
"1187 1157 OFFCURVE"
"1187 1032 CURVE"
"1187 917 OFFCURVE"
"1107 741 OFFCURVE"
"953 623 OFFCURVE"
"842 593 CURVE"
"785 576 LINE" 
"325 576 LINE" 
"325 749 LINE" 
"665 749 LINE" 
"792 749 OFFCURVE"
"937 822 OFFCURVE"
"999 950 OFFCURVE"
"999 1031 CURVE"
"999 1101 OFFCURVE"
"949 1235 OFFCURVE"
"813 1323 OFFCURVE"
"684 1323 CURVE"
"370 1323 LINE" 
"370 0 LINE" 
"180 0 LINE" 
);
},
{
closed = 1;
nodes = (
"1124 0 LINE" 
"649 655 LINE" 
"858 655 LINE" 
"1339 0 LINE" 
);
},
{
closed = 1;
nodes = (
"861 0 LINE" 
"651 0 LINE" 
"1131 655 LINE" 
"1336 655 LINE" 
);
},
);
},
);
}
{
unicode = "03A3";
layers = (
{
layerId = "master-text-regular";
width = 1411;
paths = (
{
closed = 1;
nodes = (
"134 0 LINE" 
"134 147 LINE" 
"557 590 LINE" 
"600 635 OFFCURVE"
"688 716 OFFCURVE"
"764 784 OFFCURVE"
"790 807 CURVE"
"790 727 LINE" 
"764 751 OFFCURVE"
"689 815 OFFCURVE"
"602 895 OFFCURVE"
"557 941 CURVE"
"168 1343 LINE" 
"168 1490 LINE" 
"1267 1490 LINE" 
"1267 1323 LINE" 
"669 1323 LINE" 
"577 1323 OFFCURVE"
"431 1326 OFFCURVE"
"369 1331 CURVE"
"353 1367 LINE" 
"387 1339 OFFCURVE"
"464 1275 OFFCURVE"
"556 1190 OFFCURVE"
"612 1132 CURVE"
"930 801 LINE" 
"930 734 LINE" 
"611 397 LINE" 
"550 333 OFFCURVE"
"443 230 OFFCURVE"
"353 151 OFFCURVE"
"319 123 CURVE"
"335 159 LINE" 
"406 164 OFFCURVE"
"565 167 OFFCURVE"
"669 167 CURVE"
"1277 167 LINE" 
"1277 0 LINE" 
);
},
);
},
);
}
{
unicode = "0054";
layers = (
{
layerId = "master-text-regular";
width = 1322;
paths = (
{
closed = 1;
nodes = (
"98 1322 LINE" 
"98 1490 LINE" 
"1224 1490 LINE" 
"1224 1322 LINE" 
"757 1322 LINE" 
"757 0 LINE" 
"567 0 LINE" 
"567 1322 LINE" 
);
},
);
},
);
}
{
unicode = "00DE";
layers = (
{
layerId = "master-text-regular";
width = 1302;
paths = (
{
closed = 1;
nodes = (
"168 1490 LINE" 
"360 1490 LINE" 
"360 0 LINE" 
"168 0 LINE" 
);
},
{
closed = 1;
nodes = (
"259 1185 LINE" 
"643 1184 LINE" 
"803 1184 OFFCURVE"
"1023 1067 OFFCURVE"
"1138 873 OFFCURVE"
"1138 755 CURVE"
"1138 636 OFFCURVE"
"1023 441 OFFCURVE"
"803 325 OFFCURVE"
"643 325 CURVE"
"259 325 LINE" 
"259 491 LINE" 
"643 491 LINE" 
"745 491 OFFCURVE"
"886 553 OFFCURVE"
"958 669 OFFCURVE"
"958 751 CURVE"
"958 833 OFFCURVE"
"886 953 OFFCURVE"
"745 1018 OFFCURVE"
"643 1018 CURVE"
"259 1018 LINE" 
);
},
);
},
);
}
{
unicode = "01AE";
layers = (
{
layerId = "master-text-regular";
width = 1322;
paths = (
{
closed = 1;
nodes = (
"857 -427 LINE" 
"715 -427 OFFCURVE"
"567 -295 OFFCURVE"
"567 -171 CURVE"
"567 163 LINE" 
"757 163 LINE" 
"757 -171 LINE" 
"757 -223 OFFCURVE"
"830 -268 OFFCURVE"
"913 -268 CURVE"
"924 -268 OFFCURVE"
"956 -266 OFFCURVE"
"971 -264 CURVE"
"971 -418 LINE" 
"956 -422 OFFCURVE"
"895 -427 OFFCURVE"
);
},
{
closed = 1;
nodes = (
"98 1322 LINE" 
"98 1490 LINE" 
"1224 1490 LINE" 
"1224 1322 LINE" 
"757 1322 LINE" 
"757 0 LINE" 
"567 0 LINE" 
"567 1322 LINE" 
);
},
);
},
);
}
{
unicode = "0055";
layers = (
{
layerId = "master-text-regular";
width = 1524;
paths = (
{
closed = 1;
nodes = (
"763 -24 LINE" 
"587 -24 OFFCURVE"
"324 114 OFFCURVE"
"180 354 OFFCURVE"
"180 507 CURVE"
"180 1490 LINE" 
"370 1490 LINE" 
"370 522 LINE" 
"370 415 OFFCURVE"
"465 248 OFFCURVE"
"641 152 OFFCURVE"
"763 152 CURVE"
"885 152 OFFCURVE"
"1060 248 OFFCURVE"
"1154 415 OFFCURVE"
"1154 522 CURVE"
"1154 1490 LINE" 
"1344 1490 LINE" 
"1344 507 LINE" 
"1344 354 OFFCURVE"
"1200 114 OFFCURVE"
"939 -24 OFFCURVE"
);
},
);
},
);
}
{
unicode = "01AF";
layers = (
{
layerId = "master-text-regular";
width = 1518;
paths = (
{
closed = 1;
nodes = (
"1158 1346 LINE" 
"1158 1490 LINE" 
"1338 1490 LINE" 
"1356 1490 OFFCURVE"
"1356 1508 CURVE"
"1356 1698 LINE" 
"1526 1698 LINE" 
"1526 1516 LINE" 
"1526 1431 OFFCURVE"
"1442 1346 OFFCURVE"
"1356 1346 CURVE"
);
},
{
closed = 1;
nodes = (
"763 -24 LINE" 
"587 -24 OFFCURVE"
"324 114 OFFCURVE"
"180 354 OFFCURVE"
"180 507 CURVE"
"180 1490 LINE" 
"370 1490 LINE" 
"370 522 LINE" 
"370 415 OFFCURVE"
"465 248 OFFCURVE"
"641 152 OFFCURVE"
"763 152 CURVE"
"885 152 OFFCURVE"
"1060 248 OFFCURVE"
"1154 415 OFFCURVE"
"1154 522 CURVE"
"1154 1490 LINE" 
"1344 1490 LINE" 
"1344 507 LINE" 
"1344 354 OFFCURVE"
"1200 114 OFFCURVE"
"939 -24 OFFCURVE"
);
},
);
},
);
}
{
unicode = "01B1";
layers = (
{
layerId = "master-text-regular";
width = 1567;
paths = (
{
closed = 1;
nodes = (
"122 702 LINE" 
"122 914 OFFCURVE"
"290 1219 OFFCURVE"
"432 1311 CURVE"
"432 1323 LINE" 
"122 1323 LINE" 
"122 1490 LINE" 
"657 1490 LINE" 
"657 1277 LINE" 
"562 1237 OFFCURVE"
"403 1071 OFFCURVE"
"307 841 OFFCURVE"
"307 704 CURVE"
"307 551 OFFCURVE"
"429 302 OFFCURVE"
"644 156 OFFCURVE"
"783 156 CURVE"
"922 156 OFFCURVE"
"1136 302 OFFCURVE"
"1258 551 OFFCURVE"
"1258 704 CURVE"
"1258 841 OFFCURVE"
"1163 1071 OFFCURVE"
"1005 1237 OFFCURVE"
"910 1277 CURVE"
"910 1490 LINE" 
"1445 1490 LINE" 
"1445 1323 LINE" 
"1135 1323 LINE" 
"1135 1311 LINE" 
"1277 1221 OFFCURVE"
"1445 914 OFFCURVE"
"1445 702 CURVE"
"1445 490 OFFCURVE"
"1275 164 OFFCURVE"
"976 -20 OFFCURVE"
"783 -20 CURVE"
"639 -20 OFFCURVE"
"397 85 OFFCURVE"
"219 279 OFFCURVE"
"122 543 OFFCURVE"
);
},
);
},
);
}
{
unicode = "0056";
layers = (
{
layerId = "master-text-regular";
width = 1413;
paths = (
{
closed = 1;
nodes = (
"600 0 LINE" 
"52 1490 LINE" 
"252 1490 LINE" 
"567 606 LINE" 
"594 530 OFFCURVE"
"675 276 OFFCURVE"
"729 90 CURVE"
"692 90 LINE" 
"746 281 OFFCURVE"
"826 530 OFFCURVE"
"852 606 CURVE"
"1159 1490 LINE" 
"1361 1490 LINE" 
"819 0 LINE" 
);
},
);
},
);
}
{
unicode = "01B2";
layers = (
{
layerId = "master-text-regular";
width = 1299;
paths = (
{
closed = 1;
nodes = (
"650 -20 LINE" 
"499 -20 OFFCURVE"
"257 90 OFFCURVE"
"116 309 OFFCURVE"
"116 474 CURVE"
"116 1490 LINE" 
"330 1490 LINE" 
"330 474 LINE" 
"330 308 OFFCURVE"
"504 152 OFFCURVE"
"650 152 CURVE"
"795 152 OFFCURVE"
"967 308 OFFCURVE"
"967 474 CURVE"
"967 1155 LINE" 
"967 1253 OFFCURVE"
"884 1331 OFFCURVE"
"807 1331 CURVE"
"794 1331 OFFCURVE"
"751 1329 OFFCURVE"
"737 1325 CURVE"
"737 1492 LINE" 
"763 1500 OFFCURVE"
"830 1510 OFFCURVE"
"863 1510 CURVE"
"1000 1510 OFFCURVE"
"1185 1326 OFFCURVE"
"1185 1155 CURVE"
"1185 474 LINE" 
"1185 310 OFFCURVE"
"1037 90 OFFCURVE"
"793 -20 OFFCURVE"
);
},
);
},
);
}
{
unicode = "0057";
layers = (
{
layerId = "master-text-regular";
width = 2018;
paths = (
{
closed = 1;
nodes = (
"458 0 LINE" 
"52 1490 LINE" 
"246 1490 LINE" 
"482 576 LINE" 
"501 503 OFFCURVE"
"535 352 OFFCURVE"
"567 197 OFFCURVE"
"581 115 CURVE"
"558 115 LINE" 
"573 197 OFFCURVE"
"605 352 OFFCURVE"
"641 503 OFFCURVE"
"660 576 CURVE"
"901 1490 LINE" 
"1117 1490 LINE" 
"1356 576 LINE" 
"1376 503 OFFCURVE"
"1411 352 OFFCURVE"
"1445 197 OFFCURVE"
"1460 115 CURVE"
"1434 115 LINE" 
"1449 197 OFFCURVE"
"1481 352 OFFCURVE"
"1517 503 OFFCURVE"
"1535 576 CURVE"
"1770 1490 LINE" 
"1966 1490 LINE" 
"1558 0 LINE" 
"1337 0 LINE" 
"1081 944 LINE" 
"1056 1036 OFFCURVE"
"1010 1253 OFFCURVE"
"988 1395 CURVE"
"1028 1395 LINE" 
"1006 1261 OFFCURVE"
"964 1050 OFFCURVE"
"935 944 CURVE"
"680 0 LINE" 
);
},
);
},
);
}
{
unicode = "0058";
layers = (
{
layerId = "master-text-regular";
width = 1397;
paths = (
{
closed = 1;
nodes = (
"57 0 LINE" 
"640 833 LINE" 
"640 692 LINE" 
"90 1490 LINE" 
"310 1490 LINE" 
"525 1174 LINE" 
"573 1104 OFFCURVE"
"634 1008 OFFCURVE"
"685 916 OFFCURVE"
"717 852 CURVE"
"684 852 LINE" 
"716 915 OFFCURVE"
"767 1007 OFFCURVE"
"830 1104 OFFCURVE"
"878 1174 CURVE"
"1097 1490 LINE" 
"1312 1490 LINE" 
"763 700 LINE" 
"763 840 LINE" 
"1340 0 LINE" 
"1121 0 LINE" 
"860 378 LINE" 
"818 440 OFFCURVE"
"760 529 OFFCURVE"
"710 618 OFFCURVE"
"679 680 CURVE"
"720 680 LINE" 
"690 621 OFFCURVE"
"639 532 OFFCURVE"
"580 441 OFFCURVE"
"536 378 CURVE"
"273 0 LINE" 
);
},
);
},
);
}
{
unicode = "039E";
layers = (
{
layerId = "master-text-regular";
width = 1344;
paths = (
{
closed = 1;
nodes = (
"140 0 LINE" 
"140 167 LINE" 
"1204 167 LINE" 
"1204 0 LINE" 
);
},
{
closed = 1;
nodes = (
"223 669 LINE" 
"223 836 LINE" 
"1122 836 LINE" 
"1122 669 LINE" 
);
},
{
closed = 1;
nodes = (
"148 1323 LINE" 
"148 1490 LINE" 
"1196 1490 LINE" 
"1196 1323 LINE" 
);
},
);
},
);
}
{
unicode = "01A6";
layers = (
{
layerId = "master-text-regular";
width = 1486;
paths = (
{
closed = 1;
nodes = (
"110 1390 LINE" 
"110 1592 LINE" 
"328 1592 LINE" 
"328 1390 LINE" 
);
},
{
closed = 1;
nodes = (
"110 1490 LINE" 
"602 1490 LINE" 
"769 1490 OFFCURVE"
"998 1389 OFFCURVE"
"1117 1194 OFFCURVE"
"1117 1052 CURVE"
"1117 950 OFFCURVE"
"1037 786 OFFCURVE"
"886 670 OFFCURVE"
"780 640 CURVE"
"722 617 LINE" 
"277 617 LINE" 
"277 788 LINE" 
"602 788 LINE" 
"702 788 OFFCURVE"
"836 857 OFFCURVE"
"903 976 OFFCURVE"
"903 1050 CURVE"
"903 1130 OFFCURVE"
"842 1249 OFFCURVE"
"709 1315 OFFCURVE"
"602 1315 CURVE"
"328 1315 LINE" 
"328 0 LINE" 
"110 0 LINE" 
);
},
{
closed = 1;
nodes = (
"1145 -359 LINE" 
"602 663 LINE" 
"829 663 LINE" 
"1376 -349 LINE" 
"1376 -359 LINE" 
);
},
);
},
);
}
{
unicode = "005A";
layers = (
{
layerId = "master-text-regular";
width = 1288;
paths = (
{
closed = 1;
nodes = (
"130 0 LINE" 
"130 134 LINE" 
"796 1125 LINE" 
"841 1192 OFFCURVE"
"943 1327 OFFCURVE"
"994 1393 CURVE"
"1015 1331 LINE" 
"923 1325 OFFCURVE"
"737 1322 OFFCURVE"
"645 1322 CURVE"
"122 1322 LINE" 
"122 1490 LINE" 
"1158 1490 LINE" 
"1158 1354 LINE" 
"502 379 LINE" 
"454 308 OFFCURVE"
"347 166 OFFCURVE"
"294 97 CURVE"
"273 159 LINE" 
"365 165 OFFCURVE"
"548 168 OFFCURVE"
"640 168 CURVE"
"1166 168 LINE" 
"1166 0 LINE" 
);
},
);
},
);
}
{
layers = (
{
layerId = "master-text-regular";
width = 753;
paths = (
{
closed = 1;
nodes = (
"32 871 LINE" 
"267 1490 LINE" 
"478 1490 LINE" 
"721 871 LINE" 
"543 871 LINE" 
"443 1126 LINE" 
"415 1199 OFFCURVE"
"373 1360 OFFCURVE"
"353 1442 CURVE"
"388 1442 LINE" 
"369 1355 OFFCURVE"
"332 1197 OFFCURVE"
"305 1126 CURVE"
"208 871 LINE" 
);
},
{
closed = 1;
nodes = (
"188 996 LINE" 
"188 1115 LINE" 
"565 1115 LINE" 
"565 996 LINE" 
);
},
);
},
);
}
{
layers = (
{
layerId = "master-text-regular";
width = 1180;
paths = (
{
closed = 1;
nodes = (
"136 -46 LINE" 
"6 44 LINE" 
"1044 1536 LINE" 
"1174 1446 LINE" 
);
},
);
},
);
}
{
layers = (
{
layerId = "master-text-regular";
width = 726;
paths = (
{
closed = 1;
nodes = (
"40 678 LINE" 
"40 812 LINE" 
"686 812 LINE" 
"686 678 LINE" 
);
},
);
},
);
}
{
layers = (
{
layerId = "master-text-regular";
width = 926;
paths = (
{
closed = 1;
nodes = (
"140 655 LINE" 
"140 787 LINE" 
"786 787 LINE" 
"786 655 LINE" 
);
},
);
},
);
}
{
layers = (
{
layerId = "master-text-regular";
width = 418;
paths = (
{
closed = 1;
nodes = (
"128 422 LINE" 
"128 1068 LINE" 
"290 1068 LINE" 
"290 422 LINE" 
);
},
);
},
);
}
{
layers = (
{
layerId = "master-text-regular";
width = 575;
paths = (
{
closed = 1;
nodes = (
"161 -320 LINE" 
"256 0 LINE" 
"191 0 LINE" 
"191 166 LINE" 
"485 166 LINE" 
"340 -320 LINE" 
);
},
);
},
);
}
{
layers = (
{
layerId = "master-text-regular";
width = 356;
paths = (
{
closed = 1;
nodes = (
"125 -320 LINE" 
"125 0 LINE" 
"50 0 LINE" 
"50 166 LINE" 
"306 166 LINE" 
"305 -320 LINE" 
);
},
);
},
);
}
{
layers = (
{
layerId = "master-text-regular";
width = 437;
paths = (
{
closed = 1;
nodes = (
"128 -320 LINE" 
"128 64 LINE" 
"309 64 LINE" 
"308 -320 LINE" 
);
},
);
},
);
}
{
layers = (
{
layerId = "master-text-regular";
width = 526;
paths = (
{
closed = 1;
nodes = (
"163 -428 LINE" 
"132 -428 OFFCURVE"
"73 -421 OFFCURVE"
"50 -414 CURVE"
"64 -259 LINE" 
"90 -263 OFFCURVE"
"143 -267 OFFCURVE"
"168 -267 CURVE"
"229 -267 OFFCURVE"
"302 -191 OFFCURVE"
"302 -104 CURVE"
"302 0 LINE" 
"225 0 LINE" 
"225 164 LINE" 
"476 164 LINE" 
"476 -82 LINE" 
"476 -249 OFFCURVE"
"315 -428 OFFCURVE"
);
},
);
},
);
}
{
layers = (
{
layerId = "master-text-regular";
width = 356;
paths = (
{
closed = 1;
nodes = (
"231 -320 LINE" 
"51 -320 LINE" 
"50 166 LINE" 
"306 166 LINE" 
"306 0 LINE" 
"231 0 LINE" 
);
},
);
},
);
}
{
layers = (
{
layerId = "master-text-regular";
width = 746;
paths = (
{
closed = 1;
nodes = (
"232 0 LINE" 
"232 1267 LINE" 
"232 1364 OFFCURVE"
"323 1494 OFFCURVE"
"469 1560 OFFCURVE"
"550 1560 CURVE"
"614 1560 OFFCURVE"
"698 1539 OFFCURVE"
"718 1530 CURVE"
"668 1376 LINE" 
"654 1381 OFFCURVE"
"609 1393 OFFCURVE"
"571 1393 CURVE"
"488 1393 OFFCURVE"
"412 1308 OFFCURVE"
"412 1227 CURVE"
"412 0 LINE" 
);
},
);
},
);
}
{
layers = (
{
layerId = "master-text-regular";
width = 1215;
paths = (
{
closed = 1;
nodes = (
"262 424 LINE" 
"184 485 LINE" 
"243 559 OFFCURVE"
"368 673 OFFCURVE"
"450 673 CURVE"
"518 673 OFFCURVE"
"629 626 OFFCURVE"
"723 579 OFFCURVE"
"764 579 CURVE"
"820 579 OFFCURVE"
"907 630 OFFCURVE"
"950 694 CURVE"
"1031 639 LINE" 
"973 553 OFFCURVE"
"850 448 OFFCURVE"
"763 448 CURVE"
"695 448 OFFCURVE"
"584 495 OFFCURVE"
"491 542 OFFCURVE"
"449 542 CURVE"
"400 542 OFFCURVE"
"308 483 OFFCURVE"
);
},
);
},
);
}
{
layers = (
{
layerId = "master-text-regular";
width = 1225;
paths = (
{
closed = 1;
nodes = (
"189 -45 LINE" 
"82 45 LINE" 
"1036 1163 LINE" 
"1142 1073 LINE" 
);
},
);
},
);
}
{
layers = (
{
layerId = "master-text-regular";
width = 765;
paths = (
{
closed = 1;
nodes = (
"232 1384 LINE" 
"412 1384 LINE" 
"412 290 LINE" 
"412 215 OFFCURVE"
"473 146 OFFCURVE"
"544 146 CURVE"
"561 146 OFFCURVE"
"614 154 OFFCURVE"
"636 158 CURVE"
"673 6 LINE" 
"645 -4 OFFCURVE"
"574 -14 OFFCURVE"
"539 -14 CURVE"
"394 -14 OFFCURVE"
"232 139 OFFCURVE"
"232 276 CURVE"
);
},
);
},
);
}
{
layers = (
{
layerId = "master-text-regular";
width = 646;
paths = (
{
closed = 1;
nodes = (
"187 398 LINE" 
"187 1384 LINE" 
"367 1384 LINE" 
"367 398 LINE" 
);
},
{
closed = 1;
nodes = (
"20 964 LINE" 
"20 1118 LINE" 
"605 1118 LINE" 
"605 964 LINE" 
);
},
);
},
);
}
{
layers = (
{
layerId = "master-text-regular";
width = 716;
paths = (
{
closed = 1;
nodes = (
"494 685 LINE" 
"457 685 OFFCURVE"
"386 710 OFFCURVE"
"323 743 OFFCURVE"
"270 768 OFFCURVE"
"251 768 CURVE"
"225 768 OFFCURVE"
"200 718 OFFCURVE"
"198 689 CURVE"
"72 689 LINE" 
"75 779 OFFCURVE"
"154 897 OFFCURVE"
"234 897 CURVE"
"273 897 OFFCURVE"
"339 871 OFFCURVE"
"397 838 OFFCURVE"
"450 812 OFFCURVE"
"475 812 CURVE"
"500 812 OFFCURVE"
"526 850 OFFCURVE"
"531 893 CURVE"
"654 893 LINE" 
"651 799 OFFCURVE"
"568 685 OFFCURVE"
);
},
);
},
);
}
{
layers = (
{
layerId = "master-text-regular";
width = 1344;
paths = (
{
closed = 1;
nodes = (
"1016 -416 LINE" 
"328 -416 LINE" 
"328 1856 LINE" 
"1016 1856 LINE" 
);
},
{
closed = 1;
nodes = (
"512 -192 LINE" 
"512 -256 LINE" 
"832 -256 LINE" 
"832 -192 LINE" 
"617 -192 LINE" 
"832 -65 LINE" 
"832 0 LINE" 
"512 0 LINE" 
"512 -64 LINE" 
"728 -64 LINE" 
);
},
{
closed = 1;
nodes = (
"512 320 LINE" 
"512 64 LINE" 
"832 64 LINE" 
"832 320 LINE" 
);
},
{
closed = 1;
nodes = (
"768 128 LINE" 
"576 128 LINE" 
"576 256 LINE" 
"768 256 LINE" 
);
},
{
closed = 1;
nodes = (
"512 704 LINE" 
"512 448 LINE" 
"832 448 LINE" 
"832 704 LINE" 
"640 704 LINE" 
"640 576 LINE" 
"704 576 LINE" 
"704 640 LINE" 
"768 640 LINE" 
"768 512 LINE" 
"576 512 LINE" 
"576 704 LINE" 
);
},
{
closed = 1;
nodes = (
"512 832 LINE" 
"512 768 LINE" 
"832 768 LINE" 
"832 992 LINE" 
"768 992 LINE" 
"768 832 LINE" 
);
},
{
closed = 1;
nodes = (
"512 960 LINE" 
"512 896 LINE" 
"704 896 LINE" 
"704 1056 LINE" 
"832 1056 LINE" 
"832 1120 LINE" 
"512 1120 LINE" 
"512 1056 LINE" 
"640 1056 LINE" 
"640 960 LINE" 
);
},
{
closed = 1;
nodes = (
"640 1248 LINE" 
"576 1248 LINE" 
"576 1344 LINE" 
"640 1344 LINE" 
);
},
{
closed = 1;
nodes = (
"512 1408 LINE" 
"512 1184 LINE" 
"832 1184 LINE" 
"832 1248 LINE" 
"704 1248 LINE" 
"704 1408 LINE" 
);
},
{
closed = 1;
nodes = (
"512 1536 LINE" 
"512 1472 LINE" 
"832 1472 LINE" 
"832 1536 LINE" 
"688 1536 LINE" 
"688 1632 LINE" 
"832 1632 LINE" 
"832 1696 LINE" 
"512 1696 LINE" 
"512 1632 LINE" 
"624 1632 LINE" 
"624 1536 LINE" 
);
},
);
},
);
}
{
unicode = "0061";
layers = (
{
layerId = "master-text-regular";
width = 1150;
paths = (
{
closed = 1;
nodes = (
"471 -26 LINE" 
"365 -26 OFFCURVE"
"192 54 OFFCURVE"
"90 208 OFFCURVE"
"90 318 CURVE"
"90 414 OFFCURVE"
"166 534 OFFCURVE"
"293 603 OFFCURVE"
"447 637 OFFCURVE"
"525 647 CURVE"
"625 660 OFFCURVE"
"751 674 OFFCURVE"
"812 708 OFFCURVE"
"812 749 CURVE"
"812 755 LINE" 
"812 825 OFFCURVE"
"760 922 OFFCURVE"
"656 974 OFFCURVE"
"578 974 CURVE"
"498 974 OFFCURVE"
"384 924 OFFCURVE"
"313 849 OFFCURVE"
"295 810 CURVE"
"122 867 LINE" 
"165 969 OFFCURVE"
"311 1084 OFFCURVE"
"487 1132 OFFCURVE"
"573 1132 CURVE"
"629 1132 OFFCURVE"
"772 1105 OFFCURVE"
"905 1025 OFFCURVE"
"992 868 OFFCURVE"
"992 737 CURVE"
"992 0 LINE" 
"815 0 LINE" 
"815 152 LINE" 
"803 152 LINE" 
"784 113 OFFCURVE"
"700 30 OFFCURVE"
"566 -26 OFFCURVE"
);
},
{
closed = 1;
nodes = (
"502 133 LINE" 
"602 133 OFFCURVE"
"740 211 OFFCURVE"
"812 336 OFFCURVE"
"812 404 CURVE"
"812 559 LINE" 
"801 546 OFFCURVE"
"727 525 OFFCURVE"
"632 509 OFFCURVE"
"543 498 OFFCURVE"
"517 495 CURVE"
"452 487 OFFCURVE"
"339 448 OFFCURVE"
"271 373 OFFCURVE"
"271 309 CURVE"
"271 251 OFFCURVE"
"331 173 OFFCURVE"
"435 133 OFFCURVE"
);
},
);
},
);
}
{
unicode = "E02C";
layers = (
{
layerId = "master-text-regular";
width = 1254;
paths = (
{
closed = 1;
nodes = (
"576 -24 LINE" 
"438 -24 OFFCURVE"
"225 118 OFFCURVE"
"104 378 OFFCURVE"
"104 556 CURVE"
"104 733 OFFCURVE"
"226 992 OFFCURVE"
"441 1132 OFFCURVE"
"580 1132 CURVE"
"688 1132 OFFCURVE"
"816 1061 OFFCURVE"
"884 969 OFFCURVE"
"902 939 CURVE"
"917 939 LINE" 
"917 1118 LINE" 
"1096 1118 LINE" 
"1096 0 LINE" 
"918 0 LINE" 
"918 173 LINE" 
"902 173 LINE" 
"884 142 OFFCURVE"
"813 48 OFFCURVE"
"683 -24 OFFCURVE"
);
},
{
closed = 1;
nodes = (
"606 137 LINE" 
"708 137 OFFCURVE"
"848 244 OFFCURVE"
"920 434 OFFCURVE"
"920 558 CURVE"
"920 682 OFFCURVE"
"849 867 OFFCURVE"
"709 971 OFFCURVE"
"606 971 CURVE"
"500 971 OFFCURVE"
"358 862 OFFCURVE"
"287 675 OFFCURVE"
"287 558 CURVE"
"287 441 OFFCURVE"
"359 250 OFFCURVE"
"501 137 OFFCURVE"
);
},
);
},
);
}
{
unicode = "1D00";
layers = (
{
layerId = "master-text-regular";
width = 1097;
paths = (
{
closed = 1;
nodes = (
"38 0 LINE" 
"433 1118 LINE" 
"657 1118 LINE" 
"1059 0 LINE" 
"864 0 LINE" 
"652 609 LINE" 
"636 657 OFFCURVE"
"597 783 OFFCURVE"
"552 945 OFFCURVE"
"525 1045 CURVE"
"562 1045 LINE" 
"524 898 OFFCURVE"
"464 685 OFFCURVE"
"438 609 CURVE"
"233 0 LINE" 
);
},
{
closed = 1;
nodes = (
"257 289 LINE" 
"257 438 LINE" 
"840 438 LINE" 
"840 289 LINE" 
);
},
);
},
);
}
{
unicode = "1D43";
layers = (
{
layerId = "master-text-regular";
width = 822;
paths = (
{
closed = 1;
nodes = (
"311 887 LINE" 
"208 887 OFFCURVE"
"70 978 OFFCURVE"
"70 1069 CURVE"
"70 1133 OFFCURVE"
"140 1212 OFFCURVE"
"264 1253 OFFCURVE"
"345 1259 CURVE"
"436 1266 OFFCURVE"
"533 1285 OFFCURVE"
"533 1316 CURVE"
"533 1323 LINE" 
"533 1361 OFFCURVE"
"463 1402 OFFCURVE"
"400 1402 CURVE"
"342 1402 OFFCURVE"
"262 1367 OFFCURVE"
"246 1335 CURVE"
"91 1361 LINE" 
"113 1409 OFFCURVE"
"201 1482 OFFCURVE"
"325 1523 OFFCURVE"
"400 1523 CURVE"
"478 1523 OFFCURVE"
"617 1476 OFFCURVE"
"705 1386 OFFCURVE"
"705 1322 CURVE"
"705 898 LINE" 
"544 898 LINE" 
"544 990 LINE" 
"537 990 LINE" 
"509 942 OFFCURVE"
"394 887 OFFCURVE"
);
},
{
closed = 1;
nodes = (
"360 1000 LINE" 
"434 1000 OFFCURVE"
"534 1069 OFFCURVE"
"534 1124 CURVE"
"534 1188 LINE" 
"512 1178 OFFCURVE"
"413 1164 OFFCURVE"
"378 1160 CURVE"
"301 1152 OFFCURVE"
"234 1109 OFFCURVE"
"234 1077 CURVE"
"234 1040 OFFCURVE"
"307 1000 OFFCURVE"
);
},
);
},
);
}
{
unicode = "EE9E";
layers = (
{
layerId = "master-text-regular";
width = 661;
paths = (
{
closed = 1;
nodes = (
"160 1282 LINE" 
"300 1558 LINE" 
"501 1558 LINE" 
"307 1282 LINE" 
);
},
);
},
);
}
{
unicode = "0301";
layers = (
{
layerId = "master-text-regular";
width = 0;
paths = (
{
closed = 1;
nodes = (
"168 1264 LINE" 
"308 1558 LINE" 
"509 1558 LINE" 
"315 1264 LINE" 
);
},
);
},
);
}
{
unicode = "EEA7";
layers = (
{
layerId = "master-text-regular";
width = 1016;
paths = (
{
closed = 1;
nodes = (
"317 1264 LINE" 
"170 1264 LINE" 
"287 1558 LINE" 
"487 1558 LINE" 
);
},
{
closed = 1;
nodes = (
"645 1264 LINE" 
"497 1264 LINE" 
"665 1558 LINE" 
"866 1558 LINE" 
);
},
);
},
);
}
{
layers = (
{
layerId = "master-text-regular";
width = 634;
paths = (
{
closed = 1;
nodes = (
"237 1614 LINE" 
"378 1877 LINE" 
"594 1877 LINE" 
"387 1614 LINE" 
);
},
{
closed = 1;
nodes = (
"40 1918 LINE" 
"40 1964 OFFCURVE"
"101 2028 OFFCURVE"
"156 2028 CURVE"
"215 2028 OFFCURVE"
"274 1962 OFFCURVE"
"274 1918 CURVE"
"274 1872 OFFCURVE"
"215 1807 OFFCURVE"
"156 1807 CURVE"
"99 1807 OFFCURVE"
"40 1873 OFFCURVE"
);
},
);
},
);
}
{
unicode = "EECB";
layers = (
{
layerId = "master-text-regular";
width = 530;
paths = (
{
closed = 1;
nodes = (
"46 1239 LINE" 
"241 1536 LINE" 
"490 1536 LINE" 
"213 1239 LINE" 
);
},
{
closed = 1;
nodes = (
"40 1729 LINE" 
"40 1776 OFFCURVE"
"102 1842 OFFCURVE"
"157 1842 CURVE"
"216 1842 OFFCURVE"
"276 1774 OFFCURVE"
"276 1729 CURVE"
"276 1682 OFFCURVE"
"214 1619 OFFCURVE"
"157 1619 CURVE"
"102 1619 OFFCURVE"
"40 1682 OFFCURVE"
);
},
);
},
);
}
{
unicode = "E2CA";
layers = (
{
layerId = "master-text-regular";
width = 530;
paths = (
{
closed = 1;
nodes = (
"46 1239 LINE" 
"241 1536 LINE" 
"490 1536 LINE" 
"213 1239 LINE" 
);
},
{
closed = 1;
nodes = (
"60 1630 LINE" 
"60 1826 LINE" 
"256 1826 LINE" 
"256 1630 LINE" 
);
},
);
},
);
}
{
unicode = "00E6";
layers = (
{
layerId = "master-text-regular";
width = 1879;
paths = (
{
closed = 1;
nodes = (
"472 -26 LINE" 
"366 -26 OFFCURVE"
"192 54 OFFCURVE"
"90 208 OFFCURVE"
"90 318 CURVE"
"90 414 OFFCURVE"
"176 542 OFFCURVE"
"316 617 OFFCURVE"
"484 650 OFFCURVE"
"566 650 CURVE"
"1674 650 LINE" 
"1590 587 LINE" 
"1604 696 OFFCURVE"
"1538 870 OFFCURVE"
"1396 972 OFFCURVE"
"1295 972 CURVE"
"1194 972 OFFCURVE"
"1048 873 OFFCURVE"
"970 714 OFFCURVE"
"970 623 CURVE"
"970 522 LINE" 
"970 398 OFFCURVE"
"1056 226 OFFCURVE"
"1210 136 OFFCURVE"
"1311 136 CURVE"
"1378 136 OFFCURVE"
"1486 174 OFFCURVE"
"1565 251 OFFCURVE"
"1586 308 CURVE"
"1761 263 LINE" 
"1735 178 OFFCURVE"
"1611 49 OFFCURVE"
"1427 -24 OFFCURVE"
"1311 -24 CURVE"
"1189 -24 OFFCURVE"
"996 58 OFFCURVE"
"872 204 OFFCURVE"
"851 300 CURVE"
"882 865 LINE" 
"919 947 OFFCURVE"
"1036 1067 OFFCURVE"
"1195 1132 OFFCURVE"
"1295 1132 CURVE"
"1384 1132 OFFCURVE"
"1556 1073 OFFCURVE"
"1696 942 OFFCURVE"
"1779 728 OFFCURVE"
"1779 573 CURVE"
"1779 498 LINE" 
"568 498 LINE" 
"489 498 OFFCURVE"
"354 457 OFFCURVE"
"271 373 OFFCURVE"
"271 309 CURVE"
"271 222 OFFCURVE"
"402 133 OFFCURVE"
"502 133 CURVE"
"602 133 OFFCURVE"
"739 211 OFFCURVE"
"810 336 OFFCURVE"
"810 404 CURVE"
"810 755 LINE" 
"810 824 OFFCURVE"
"759 922 OFFCURVE"
"656 974 OFFCURVE"
"578 974 CURVE"
"498 974 OFFCURVE"
"384 924 OFFCURVE"
"313 849 OFFCURVE"
"295 810 CURVE"
"122 867 LINE" 
"165 969 OFFCURVE"
"311 1084 OFFCURVE"
"487 1132 OFFCURVE"
"573 1132 CURVE"
"638 1132 OFFCURVE"
"790 1097 OFFCURVE"
"921 990 OFFCURVE"
"953 883 CURVE"
"918 203 LINE" 
"898 203 LINE" 
"881 156 OFFCURVE"
"799 73 OFFCURVE"
"683 10 OFFCURVE"
"545 -26 OFFCURVE"
);
},
);
},
);
}
{
unicode = "03B1";
layers = (
{
layerId = "master-text-regular";
width = 1360;
paths = (
{
closed = 1;
nodes = (
"595 -24 LINE" 
"451 -24 OFFCURVE"
"229 124 OFFCURVE"
"104 385 OFFCURVE"
"104 554 CURVE"
"104 725 OFFCURVE"
"231 985 OFFCURVE"
"457 1132 OFFCURVE"
"603 1132 CURVE"
"716 1132 OFFCURVE"
"873 1051 OFFCURVE"
"973 921 OFFCURVE"
"1029 770 OFFCURVE"
"1041 701 CURVE"
"1106 701 LINE" 
"1112 562 LINE" 
"1281 0 LINE" 
"1111 0 LINE" 
"974 562 LINE" 
"961 615 OFFCURVE"
"914 753 OFFCURVE"
"833 885 OFFCURVE"
"703 971 OFFCURVE"
"608 971 CURVE"
"510 971 OFFCURVE"
"365 870 OFFCURVE"
"287 683 OFFCURVE"
"287 553 CURVE"
"287 426 OFFCURVE"
"363 239 OFFCURVE"
"503 137 OFFCURVE"
"598 137 CURVE"
"691 137 OFFCURVE"
"823 225 OFFCURVE"
"911 360 OFFCURVE"
"962 502 OFFCURVE"
"974 556 CURVE"
"1095 1118 LINE" 
"1265 1118 LINE" 
"1112 556 LINE" 
"1106 423 LINE" 
"1050 423 LINE" 
"1034 355 OFFCURVE"
"972 200 OFFCURVE"
"868 63 OFFCURVE"
"709 -24 OFFCURVE"
);
},
);
},
);
}
{
unicode = "0026";
layers = (
{
layerId = "master-text-regular";
width = 1319;
paths = (
{
closed = 1;
nodes = (
"580 -20 LINE" 
"433 -20 OFFCURVE"
"219 89 OFFCURVE"
"104 274 OFFCURVE"
"104 389 CURVE"
"104 487 OFFCURVE"
"184 629 OFFCURVE"
"325 751 OFFCURVE"
"414 817 CURVE"
"635 980 LINE" 
"662 1000 OFFCURVE"
"726 1056 OFFCURVE"
"771 1134 OFFCURVE"
"771 1186 CURVE"
"771 1257 OFFCURVE"
"676 1349 OFFCURVE"
"595 1349 CURVE"
"539 1349 OFFCURVE"
"453 1303 OFFCURVE"
"406 1222 OFFCURVE"
"406 1168 CURVE"
"406 1112 OFFCURVE"
"457 1010 OFFCURVE"
"545 900 OFFCURVE"
"601 832 CURVE"
"1287 0 LINE" 
"1070 0 LINE" 
"505 678 LINE" 
"425 775 OFFCURVE"
"298 928 OFFCURVE"
"225 1078 OFFCURVE"
"225 1167 CURVE"
"225 1266 OFFCURVE"
"315 1418 OFFCURVE"
"480 1504 OFFCURVE"
"590 1504 CURVE"
"702 1504 OFFCURVE"
"864 1417 OFFCURVE"
"952 1272 OFFCURVE"
"952 1183 CURVE"
"952 1115 OFFCURVE"
"901 999 OFFCURVE"
"812 901 OFFCURVE"
"754 858 CURVE"
"456 637 LINE" 
"364 569 OFFCURVE"
"289 452 OFFCURVE"
"289 383 CURVE"
"289 310 OFFCURVE"
"359 199 OFFCURVE"
"485 137 OFFCURVE"
"567 137 CURVE"
"656 137 OFFCURVE"
"820 210 OFFCURVE"
"950 346 OFFCURVE"
"1026 538 OFFCURVE"
"1026 658 CURVE"
"1199 658 LINE" 
"1199 510 OFFCURVE"
"1131 320 OFFCURVE"
"1044 210 OFFCURVE"
"1015 182 CURVE"
"979 137 LINE" 
"906 58 OFFCURVE"
"687 -20 OFFCURVE"
);
},
);
},
);
}
{
unicode = "EED4";
layers = (
{
layerId = "master-text-regular";
width = 0;
paths = (
{
closed = 1;
nodes = (
"-742 1532 LINE" 
"-742 1658 LINE" 
"-191 1658 LINE" 
"-191 1532 LINE" 
);
},
{
closed = 1;
nodes = (
"-214 1282 LINE" 
"-214 1658 LINE" 
"-60 1658 LINE" 
"-60 1282 LINE" 
);
},
);
},
);
}
{
unicode = "2248";
layers = (
{
layerId = "master-text-regular";
width = 1355;
paths = (
{
closed = 1;
nodes = (
"168 653 LINE" 
"167 776 OFFCURVE"
"250 926 OFFCURVE"
"383 994 OFFCURVE"
"458 994 CURVE"
"533 994 OFFCURVE"
"655 928 OFFCURVE"
"735 861 CURVE"
"788 817 OFFCURVE"
"851 777 OFFCURVE"
"890 777 CURVE"
"953 777 OFFCURVE"
"1025 867 OFFCURVE"
"1023 954 CURVE"
"1187 954 LINE" 
"1190 833 OFFCURVE"
"1107 683 OFFCURVE"
"972 614 OFFCURVE"
"896 614 CURVE"
"824 614 OFFCURVE"
"704 674 OFFCURVE"
"623 744 CURVE"
"571 790 OFFCURVE"
"505 830 OFFCURVE"
"465 830 CURVE"
"407 830 OFFCURVE"
"330 750 OFFCURVE"
"332 653 CURVE"
);
},
{
closed = 1;
nodes = (
"168 213 LINE" 
"167 336 OFFCURVE"
"250 485 OFFCURVE"
"383 552 OFFCURVE"
"458 552 CURVE"
"533 552 OFFCURVE"
"654 486 OFFCURVE"
"736 418 CURVE"
"790 373 OFFCURVE"
"852 336 OFFCURVE"
"890 336 CURVE"
"953 336 OFFCURVE"
"1025 425 OFFCURVE"
"1023 513 CURVE"
"1187 513 LINE" 
"1190 393 OFFCURVE"
"1107 242 OFFCURVE"
"973 172 OFFCURVE"
"896 172 CURVE"
"823 172 OFFCURVE"
"701 235 OFFCURVE"
"619 305 CURVE"
"569 349 OFFCURVE"
"504 387 OFFCURVE"
"465 387 CURVE"
"406 387 OFFCURVE"
"330 307 OFFCURVE"
"332 213 CURVE"
);
},
);
},
);
}
{
unicode = "EEAA";
layers = (
{
layerId = "master-text-regular";
width = 0;
paths = (
{
closed = 1;
nodes = (
"-986 -114 LINE" 
"-889 -114 LINE" 
"-889 -169 OFFCURVE"
"-818 -237 OFFCURVE"
"-767 -237 CURVE"
"-700 -237 OFFCURVE"
"-638 -169 OFFCURVE"
"-638 -114 CURVE"
"-540 -114 LINE" 
"-539 -184 OFFCURVE"
"-592 -292 OFFCURVE"
"-694 -353 OFFCURVE"
"-767 -353 CURVE"
"-830 -353 OFFCURVE"
"-929 -291 OFFCURVE"
"-986 -183 OFFCURVE"
);
},
{
closed = 1;
nodes = (
"-638 -114 LINE" 
"-540 -114 LINE" 
"-539 -168 OFFCURVE"
"-477 -237 OFFCURVE"
"-409 -237 CURVE"
"-359 -237 OFFCURVE"
"-287 -169 OFFCURVE"
"-287 -114 CURVE"
"-190 -114 LINE" 
"-190 -183 OFFCURVE"
"-246 -291 OFFCURVE"
"-345 -353 OFFCURVE"
"-409 -353 CURVE"
"-483 -353 OFFCURVE"
"-585 -291 OFFCURVE"
"-637 -183 OFFCURVE"
);
},
);
},
);
}
{
unicode = "2194";
layers = (
{
layerId = "master-text-regular";
width = 2746;
paths = (
{
closed = 1;
nodes = (
"854 0 LINE" 
"202 652 LINE" 
"854 1304 LINE" 
"970 1188 LINE" 
"759 978 LINE" 
"708 927 OFFCURVE"
"577 815 OFFCURVE"
"447 710 OFFCURVE"
"395 671 CURVE"
"423 703 LINE" 
"465 712 OFFCURVE"
"548 726 OFFCURVE"
"631 735 OFFCURVE"
"672 735 CURVE"
"2074 735 LINE" 
"2116 735 OFFCURVE"
"2199 726 OFFCURVE"
"2282 712 OFFCURVE"
"2323 703 CURVE"
"2351 671 LINE" 
"2300 710 OFFCURVE"
"2169 815 OFFCURVE"
"2039 927 OFFCURVE"
"1987 978 CURVE"
"1776 1188 LINE" 
"1892 1304 LINE" 
"2544 652 LINE" 
"1892 0 LINE" 
"1776 116 LINE" 
"1987 326 LINE" 
"2026 364 OFFCURVE"
"2119 447 OFFCURVE"
"2219 530 OFFCURVE"
"2312 604 OFFCURVE"
"2351 633 CURVE"
"2323 601 LINE" 
"2282 593 OFFCURVE"
"2199 578 OFFCURVE"
"2116 569 OFFCURVE"
"2074 569 CURVE"
"672 569 LINE" 
"631 569 OFFCURVE"
"548 578 OFFCURVE"
"465 593 OFFCURVE"
"423 601 CURVE"
"395 633 LINE" 
"434 604 OFFCURVE"
"527 530 OFFCURVE"
"627 447 OFFCURVE"
"720 364 OFFCURVE"
"759 326 CURVE"
"970 116 LINE" 
);
},
);
},
);
}
{
unicode = "21D4";
layers = (
{
layerId = "master-text-regular";
width = 2746;
paths = (
{
closed = 1;
nodes = (
"1886 -6 LINE" 
"1770 108 LINE" 
"2314 652 LINE" 
"1770 1194 LINE" 
"1886 1310 LINE" 
"2544 652 LINE" 
);
},
{
closed = 1;
nodes = (
"860 -6 LINE" 
"202 652 LINE" 
"860 1310 LINE" 
"976 1194 LINE" 
"432 652 LINE" 
"976 108 LINE" 
);
},
{
closed = 1;
nodes = (
"570 393 LINE" 
"405 559 LINE" 
"2335 559 LINE" 
"2170 393 LINE" 
);
},
{
closed = 1;
nodes = (
"405 743 LINE" 
"570 909 LINE" 
"2170 909 LINE" 
"2335 743 LINE" 
);
},
);
},
);
}
{
unicode = "21D0";
layers = (
{
layerId = "master-text-regular";
width = 1954;
paths = (
{
closed = 1;
nodes = (
"860 -6 LINE" 
"202 652 LINE" 
"860 1310 LINE" 
"976 1194 LINE" 
"432 652 LINE" 
"976 108 LINE" 
);
},
{
closed = 1;
nodes = (
"570 393 LINE" 
"405 559 LINE" 
"1698 559 LINE" 
"1698 393 LINE" 
);
},
{
closed = 1;
nodes = (
"405 743 LINE" 
"570 909 LINE" 
"1698 909 LINE" 
"1698 743 LINE" 
);
},
);
},
);
}
{
unicode = "21D2";
layers = (
{
layerId = "master-text-regular";
width = 1954;
paths = (
{
closed = 1;
nodes = (
"1096 -6 LINE" 
"980 108 LINE" 
"1522 652 LINE" 
"980 1194 LINE" 
"1096 1310 LINE" 
"1752 652 LINE" 
);
},
{
closed = 1;
nodes = (
"256 393 LINE" 
"256 559 LINE" 
"1550 559 LINE" 
"1384 393 LINE" 
);
},
{
closed = 1;
nodes = (
"256 743 LINE" 
"256 909 LINE" 
"1384 909 LINE" 
"1550 743 LINE" 
);
},
);
},
);
}
{
unicode = "2193";
layers = (
{
layerId = "master-text-regular";
width = 1708;
paths = (
{
closed = 1;
nodes = (
"1506 628 LINE" 
"854 -24 LINE" 
"202 628 LINE" 
"318 744 LINE" 
"528 533 LINE" 
"579 482 OFFCURVE"
"692 351 OFFCURVE"
"796 221 OFFCURVE"
"835 169 CURVE"
"803 197 LINE" 
"795 239 OFFCURVE"
"780 322 OFFCURVE"
"771 405 OFFCURVE"
"771 446 CURVE"
"771 1490 LINE" 
"937 1490 LINE" 
"937 446 LINE" 
"937 405 OFFCURVE"
"928 322 OFFCURVE"
"914 239 OFFCURVE"
"905 197 CURVE"
"873 169 LINE" 
"902 208 OFFCURVE"
"976 301 OFFCURVE"
"1059 401 OFFCURVE"
"1142 494 OFFCURVE"
"1180 533 CURVE"
"1390 744 LINE" 
);
},
);
},
);
}
{
unicode = "2190";
layers = (
{
layerId = "master-text-regular";
width = 1954;
paths = (
{
closed = 1;
nodes = (
"854 0 LINE" 
"202 652 LINE" 
"854 1304 LINE" 
"970 1188 LINE" 
"759 978 LINE" 
"708 927 OFFCURVE"
"577 815 OFFCURVE"
"447 710 OFFCURVE"
"395 671 CURVE"
"423 703 LINE" 
"465 712 OFFCURVE"
"548 726 OFFCURVE"
"631 735 OFFCURVE"
"672 735 CURVE"
"1698 735 LINE" 
"1698 569 LINE" 
"672 569 LINE" 
"631 569 OFFCURVE"
"548 578 OFFCURVE"
"465 593 OFFCURVE"
"423 601 CURVE"
"395 633 LINE" 
"434 604 OFFCURVE"
"527 530 OFFCURVE"
"627 447 OFFCURVE"
"720 364 OFFCURVE"
"759 326 CURVE"
"970 116 LINE" 
);
},
);
},
);
}
{
unicode = "2192";
layers = (
{
layerId = "master-text-regular";
width = 1954;
paths = (
{
closed = 1;
nodes = (
"1100 0 LINE" 
"984 116 LINE" 
"1195 326 LINE" 
"1234 364 OFFCURVE"
"1327 447 OFFCURVE"
"1427 530 OFFCURVE"
"1520 604 OFFCURVE"
"1559 633 CURVE"
"1531 601 LINE" 
"1490 593 OFFCURVE"
"1407 578 OFFCURVE"
"1324 569 OFFCURVE"
"1282 569 CURVE"
"256 569 LINE" 
"256 735 LINE" 
"1282 735 LINE" 
"1324 735 OFFCURVE"
"1407 726 OFFCURVE"
"1490 712 OFFCURVE"
"1531 703 CURVE"
"1559 671 LINE" 
"1508 710 OFFCURVE"
"1377 815 OFFCURVE"
"1247 927 OFFCURVE"
"1195 978 CURVE"
"984 1188 LINE" 
"1100 1304 LINE" 
"1752 652 LINE" 
);
},
);
},
);
}
{
unicode = "2191";
layers = (
{
layerId = "master-text-regular";
width = 1708;
paths = (
{
closed = 1;
nodes = (
"202 862 LINE" 
"854 1514 LINE" 
"1506 862 LINE" 
"1390 746 LINE" 
"1180 957 LINE" 
"1129 1009 OFFCURVE"
"1017 1139 OFFCURVE"
"912 1270 OFFCURVE"
"873 1321 CURVE"
"905 1293 LINE" 
"914 1252 OFFCURVE"
"928 1169 OFFCURVE"
"937 1086 OFFCURVE"
"937 1044 CURVE"
"937 0 LINE" 
"771 0 LINE" 
"771 1044 LINE" 
"771 1086 OFFCURVE"
"780 1169 OFFCURVE"
"795 1252 OFFCURVE"
"803 1293 CURVE"
"835 1321 LINE" 
"806 1282 OFFCURVE"
"732 1189 OFFCURVE"
"649 1089 OFFCURVE"
"566 996 OFFCURVE"
"528 957 CURVE"
"318 746 LINE" 
);
},
);
},
);
}
{
unicode = "2195";
layers = (
{
layerId = "master-text-regular";
width = 1708;
paths = (
{
closed = 1;
nodes = (
"854 -519 LINE" 
"202 133 LINE" 
"318 249 LINE" 
"528 38 LINE" 
"566 -1 OFFCURVE"
"649 -94 OFFCURVE"
"732 -194 OFFCURVE"
"806 -287 OFFCURVE"
"835 -326 CURVE"
"803 -298 LINE" 
"795 -256 OFFCURVE"
"780 -173 OFFCURVE"
"771 -90 OFFCURVE"
"771 -49 CURVE"
"771 1353 LINE" 
"771 1395 OFFCURVE"
"780 1478 OFFCURVE"
"795 1561 OFFCURVE"
"803 1602 CURVE"
"835 1630 LINE" 
"806 1591 OFFCURVE"
"732 1498 OFFCURVE"
"649 1398 OFFCURVE"
"566 1305 OFFCURVE"
"528 1266 CURVE"
"318 1055 LINE" 
"202 1171 LINE" 
"854 1823 LINE" 
"1506 1171 LINE" 
"1390 1055 LINE" 
"1180 1266 LINE" 
"1129 1318 OFFCURVE"
"1017 1448 OFFCURVE"
"912 1579 OFFCURVE"
"873 1630 CURVE"
"905 1602 LINE" 
"914 1561 OFFCURVE"
"928 1478 OFFCURVE"
"937 1395 OFFCURVE"
"937 1353 CURVE"
"937 -49 LINE" 
"937 -90 OFFCURVE"
"928 -173 OFFCURVE"
"914 -256 OFFCURVE"
"905 -298 CURVE"
"873 -326 LINE" 
"912 -274 OFFCURVE"
"1017 -144 OFFCURVE"
"1129 -13 OFFCURVE"
"1180 38 CURVE"
"1390 249 LINE" 
"1506 133 LINE" 
);
},
);
},
);
}
{
unicode = "005E";
layers = (
{
layerId = "master-text-regular";
width = 965;
paths = (
{
closed = 1;
nodes = (
"456 1360 LINE" 
"508 1360 LINE" 
"508 1285 LINE" 
"456 1285 LINE" 
);
},
{
closed = 1;
nodes = (
"82 814 LINE" 
"383 1443 LINE" 
"582 1443 LINE" 
"883 814 LINE" 
"706 814 LINE" 
"475 1315 LINE" 
"490 1315 LINE" 
"261 814 LINE" 
);
},
);
},
);
}
{
unicode = "007E";
layers = (
{
layerId = "master-text-regular";
width = 1355;
paths = (
{
closed = 1;
nodes = (
"168 439 LINE" 
"166 563 OFFCURVE"
"249 713 OFFCURVE"
"384 780 OFFCURVE"
"458 780 CURVE"
"532 780 OFFCURVE"
"654 718 OFFCURVE"
"735 647 CURVE"
"788 601 OFFCURVE"
"852 563 OFFCURVE"
"890 563 CURVE"
"952 563 OFFCURVE"
"1023 653 OFFCURVE"
"1023 740 CURVE"
"1187 740 LINE" 
"1189 617 OFFCURVE"
"1105 467 OFFCURVE"
"971 400 OFFCURVE"
"897 400 CURVE"
"821 400 OFFCURVE"
"697 465 OFFCURVE"
"620 532 CURVE"
"566 579 OFFCURVE"
"503 616 OFFCURVE"
"465 616 CURVE"
"407 616 OFFCURVE"
"331 534 OFFCURVE"
"332 439 CURVE"
);
},
);
},
);
}
{
unicode = "0252";
layers = (
{
layerId = "master-text-regular";
width = 1254;
paths = (
{
closed = 1;
nodes = (
"678 -24 LINE" 
"571 -24 OFFCURVE"
"441 48 OFFCURVE"
"371 142 OFFCURVE"
"352 173 CURVE"
"336 173 LINE" 
"336 0 LINE" 
"158 0 LINE" 
"158 1118 LINE" 
"337 1118 LINE" 
"337 939 LINE" 
"352 939 LINE" 
"371 969 OFFCURVE"
"438 1061 OFFCURVE"
"566 1132 OFFCURVE"
"674 1132 CURVE"
"814 1132 OFFCURVE"
"1028 992 OFFCURVE"
"1150 733 OFFCURVE"
"1150 556 CURVE"
"1150 378 OFFCURVE"
"1029 118 OFFCURVE"
"816 -24 OFFCURVE"
);
},
{
closed = 1;
nodes = (
"648 137 LINE" 
"753 137 OFFCURVE"
"895 250 OFFCURVE"
"967 441 OFFCURVE"
"967 558 CURVE"
"967 675 OFFCURVE"
"896 862 OFFCURVE"
"755 971 OFFCURVE"
"648 971 CURVE"
"545 971 OFFCURVE"
"405 867 OFFCURVE"
"334 682 OFFCURVE"
"334 558 CURVE"
"334 434 OFFCURVE"
"406 244 OFFCURVE"
"547 137 OFFCURVE"
);
},
);
},
);
}
{
unicode = "002A";
layers = (
{
layerId = "master-text-regular";
width = 1026;
paths = (
{
closed = 1;
nodes = (
"441 652 LINE" 
"454 969 LINE" 
"186 798 LINE" 
"114 924 LINE" 
"396 1070 LINE" 
"114 1216 LINE" 
"186 1344 LINE" 
"454 1173 LINE" 
"441 1490 LINE" 
"585 1490 LINE" 
"573 1173 LINE" 
"840 1344 LINE" 
"912 1216 LINE" 
"630 1070 LINE" 
"912 924 LINE" 
"840 798 LINE" 
"573 969 LINE" 
"585 652 LINE" 
);
},
);
},
);
}
{
unicode = "E0A4";
layers = (
{
layerId = "master-text-regular";
width = 1321;
paths = (
{
closed = 1;
nodes = (
"582 255 LINE" 
"593 696 LINE" 
"648 675 LINE" 
"273 433 LINE" 
"195 570 LINE" 
"594 774 LINE" 
"594 716 LINE" 
"196 924 LINE" 
"276 1060 LINE" 
"648 815 LINE" 
"593 794 LINE" 
"582 1235 LINE" 
"740 1235 LINE" 
"729 794 LINE" 
"673 815 LINE" 
"1045 1060 LINE" 
"1125 924 LINE" 
"727 716 LINE" 
"727 774 LINE" 
"1126 570 LINE" 
"1048 433 LINE" 
"673 675 LINE" 
"729 696 LINE" 
"740 255 LINE" 
);
},
);
},
);
}
{
unicode = "0040";
layers = (
{
layerId = "master-text-regular";
width = 1978;
paths = (
{
closed = 1;
nodes = (
"1044 -395 LINE" 
"821 -395 OFFCURVE"
"477 -273 OFFCURVE"
"242 -38 OFFCURVE"
"122 305 OFFCURVE"
"122 525 CURVE"
"122 738 OFFCURVE"
"244 1076 OFFCURVE"
"477 1313 OFFCURVE"
"811 1438 OFFCURVE"
"1023 1438 CURVE"
"1229 1438 OFFCURVE"
"1540 1305 OFFCURVE"
"1750 1078 OFFCURVE"
"1856 792 OFFCURVE"
"1856 640 CURVE"
"1856 533 OFFCURVE"
"1834 318 OFFCURVE"
"1765 139 OFFCURVE"
"1628 30 OFFCURVE"
"1512 30 CURVE"
"1460 30 OFFCURVE"
"1338 62 OFFCURVE"
"1245 136 OFFCURVE"
"1236 198 CURVE"
"1228 198 LINE" 
"1202 134 OFFCURVE"
"1068 37 OFFCURVE"
"955 37 CURVE"
"822 37 OFFCURVE"
"643 169 OFFCURVE"
"552 394 OFFCURVE"
"552 535 CURVE"
"552 669 OFFCURVE"
"659 881 OFFCURVE"
"846 1004 OFFCURVE"
"965 1004 CURVE"
"1061 1004 OFFCURVE"
"1190 934 OFFCURVE"
"1217 896 CURVE"
"1227 896 LINE" 
"1227 980 LINE" 
"1385 980 LINE" 
"1385 321 LINE" 
"1385 261 OFFCURVE"
"1452 171 OFFCURVE"
"1516 171 CURVE"
"1589 171 OFFCURVE"
"1667 271 OFFCURVE"
"1697 479 OFFCURVE"
"1697 642 CURVE"
"1697 766 OFFCURVE"
"1614 999 OFFCURVE"
"1446 1185 OFFCURVE"
"1190 1294 OFFCURVE"
"1017 1294 CURVE"
"845 1294 OFFCURVE"
"575 1189 OFFCURVE"
"387 989 OFFCURVE"
"289 702 OFFCURVE"
"289 520 CURVE"
"289 336 OFFCURVE"
"387 49 OFFCURVE"
"581 -148 OFFCURVE"
"865 -250 OFFCURVE"
"1051 -250 CURVE"
"1131 -250 OFFCURVE"
"1284 -220 OFFCURVE"
"1404 -183 OFFCURVE"
"1433 -173 CURVE"
"1476 -313 LINE" 
"1430 -332 OFFCURVE"
"1285 -370 OFFCURVE"
"1120 -395 OFFCURVE"
);
},
{
closed = 1;
nodes = (
"962 190 LINE" 
"1059 190 OFFCURVE"
"1178 268 OFFCURVE"
"1233 425 OFFCURVE"
"1233 543 CURVE"
"1233 663 OFFCURVE"
"1173 798 OFFCURVE"
"1054 853 OFFCURVE"
"967 853 CURVE"
"885 853 OFFCURVE"
"769 768 OFFCURVE"
"707 627 OFFCURVE"
"707 543 CURVE"
"707 451 OFFCURVE"
"757 289 OFFCURVE"
"869 190 OFFCURVE"
);
},
);
},
);
}
{
unicode = "0250";
layers = (
{
layerId = "master-text-regular";
width = 1150;
paths = (
{
closed = 1;
nodes = (
"679 1144 LINE" 
"785 1144 OFFCURVE"
"958 1064 OFFCURVE"
"1060 910 OFFCURVE"
"1060 800 CURVE"
"1060 704 OFFCURVE"
"984 584 OFFCURVE"
"857 515 OFFCURVE"
"703 481 OFFCURVE"
"625 471 CURVE"
"526 459 OFFCURVE"
"399 444 OFFCURVE"
"338 411 OFFCURVE"
"338 369 CURVE"
"338 363 LINE" 
"338 294 OFFCURVE"
"390 196 OFFCURVE"
"495 144 OFFCURVE"
"572 144 CURVE"
"653 144 OFFCURVE"
"766 193 OFFCURVE"
"838 269 OFFCURVE"
"855 308 CURVE"
"1028 251 LINE" 
"985 150 OFFCURVE"
"839 34 OFFCURVE"
"664 -14 OFFCURVE"
"577 -14 CURVE"
"521 -14 OFFCURVE"
"378 13 OFFCURVE"
"245 93 OFFCURVE"
"158 250 OFFCURVE"
"158 381 CURVE"
"158 1118 LINE" 
"335 1118 LINE" 
"335 966 LINE" 
"347 966 LINE" 
"366 1006 OFFCURVE"
"450 1088 OFFCURVE"
"585 1144 OFFCURVE"
);
},
{
closed = 1;
nodes = (
"648 985 LINE" 
"549 985 OFFCURVE"
"410 907 OFFCURVE"
"338 783 OFFCURVE"
"338 714 CURVE"
"338 559 LINE" 
"349 572 OFFCURVE"
"423 593 OFFCURVE"
"518 609 OFFCURVE"
"607 620 OFFCURVE"
"633 623 CURVE"
"699 632 OFFCURVE"
"811 670 OFFCURVE"
"879 746 OFFCURVE"
"879 809 CURVE"
"879 867 OFFCURVE"
"819 945 OFFCURVE"
"715 985 OFFCURVE"
);
},
);
},
);
}
{
unicode = "0062";
layers = (
{
layerId = "master-text-regular";
width = 1254;
paths = (
{
closed = 1;
nodes = (
"677 -24 LINE" 
"571 -24 OFFCURVE"
"441 49 OFFCURVE"
"371 142 OFFCURVE"
"352 173 CURVE"
"332 173 LINE" 
"332 0 LINE" 
"158 0 LINE" 
"158 1490 LINE" 
"338 1490 LINE" 
"338 939 LINE" 
"352 939 LINE" 
"371 969 OFFCURVE"
"439 1060 OFFCURVE"
"567 1132 OFFCURVE"
"676 1132 CURVE"
"816 1132 OFFCURVE"
"1029 992 OFFCURVE"
"1150 733 OFFCURVE"
"1150 556 CURVE"
"1150 378 OFFCURVE"
"1030 118 OFFCURVE"
"817 -24 OFFCURVE"
);
},
{
closed = 1;
nodes = (
"650 137 LINE" 
"755 137 OFFCURVE"
"896 250 OFFCURVE"
"967 441 OFFCURVE"
"967 558 CURVE"
"967 674 OFFCURVE"
"897 861 OFFCURVE"
"756 971 OFFCURVE"
"650 971 CURVE"
"547 971 OFFCURVE"
"407 867 OFFCURVE"
"336 682 OFFCURVE"
"336 558 CURVE"
"336 434 OFFCURVE"
"408 244 OFFCURVE"
"549 137 OFFCURVE"
);
},
);
},
);
}
{
unicode = "1D47";
layers = (
{
layerId = "master-text-regular";
width = 894;
paths = (
{
closed = 1;
nodes = (
"515 890 LINE" 
"421 890 OFFCURVE"
"316 964 OFFCURVE"
"296 1008 CURVE"
"286 1008 LINE" 
"286 898 LINE" 
"117 898 LINE" 
"117 1710 LINE" 
"288 1710 LINE" 
"288 1397 LINE" 
"295 1397 LINE" 
"313 1441 OFFCURVE"
"416 1523 OFFCURVE"
"516 1523 CURVE"
"596 1523 OFFCURVE"
"729 1456 OFFCURVE"
"810 1316 OFFCURVE"
"810 1206 CURVE"
"810 1101 OFFCURVE"
"731 961 OFFCURVE"
"598 890 OFFCURVE"
);
},
{
closed = 1;
nodes = (
"459 1022 LINE" 
"544 1022 OFFCURVE"
"633 1125 OFFCURVE"
"633 1206 CURVE"
"633 1288 OFFCURVE"
"544 1390 OFFCURVE"
"459 1390 CURVE"
"377 1390 OFFCURVE"
"286 1290 OFFCURVE"
"286 1206 CURVE"
"286 1124 OFFCURVE"
"377 1022 OFFCURVE"
);
},
);
},
);
}
{
unicode = "0264";
layers = (
{
layerId = "master-text-regular";
width = 1481;
paths = (
{
closed = 1;
nodes = (
"240 852 LINE" 
"114 980 LINE" 
"164 1040 OFFCURVE"
"304 1132 OFFCURVE"
"392 1132 CURVE"
"467 1132 OFFCURVE"
"587 1055 OFFCURVE"
"694 914 OFFCURVE"
"802 724 OFFCURVE"
"866 610 CURVE"
"896 557 OFFCURVE"
"965 419 OFFCURVE"
"1015 273 OFFCURVE"
"1015 208 CURVE"
"1015 105 OFFCURVE"
"871 -20 OFFCURVE"
"740 -20 CURVE"
"740 150 LINE" 
"779 149 OFFCURVE"
"808 192 OFFCURVE"
"808 216 CURVE"
"808 251 OFFCURVE"
"766 362 OFFCURVE"
"673 543 OFFCURVE"
"596 680 CURVE"
"547 769 OFFCURVE"
"476 880 OFFCURVE"
"407 931 OFFCURVE"
"359 931 CURVE"
"325 931 OFFCURVE"
"267 887 OFFCURVE"
);
},
{
closed = 1;
nodes = (
"1371 980 LINE" 
"1243 852 LINE" 
"1215 888 OFFCURVE"
"1156 931 OFFCURVE"
"1124 931 CURVE"
"1078 931 OFFCURVE"
"1004 870 OFFCURVE"
"906 711 OFFCURVE"
"820 562 CURVE"
"776 486 OFFCURVE"
"710 355 OFFCURVE"
"673 252 OFFCURVE"
"673 216 CURVE"
"673 191 OFFCURVE"
"703 150 OFFCURVE"
"740 150 CURVE"
"740 -20 LINE" 
"613 -20 OFFCURVE"
"466 105 OFFCURVE"
"466 208 CURVE"
"466 273 OFFCURVE"
"516 418 OFFCURVE"
"587 557 OFFCURVE"
"617 612 CURVE"
"679 725 OFFCURVE"
"788 915 OFFCURVE"
"896 1055 OFFCURVE"
"1018 1132 OFFCURVE"
"1093 1132 CURVE"
"1181 1132 OFFCURVE"
"1319 1041 OFFCURVE"
);
},
);
},
);
}
{
unicode = "005C";
layers = (
{
layerId = "master-text-regular";
width = 738;
paths = (
{
closed = 1;
nodes = (
"526 -224 LINE" 
"46 1560 LINE" 
"212 1560 LINE" 
"692 -224 LINE" 
);
},
);
},
);
}
{
unicode = "007C";
layers = (
{
layerId = "master-text-regular";
width = 681;
paths = (
{
closed = 1;
nodes = (
"419 1970 LINE" 
"419 -480 LINE" 
"262 -480 LINE" 
"262 1970 LINE" 
);
},
);
},
);
}
{
unicode = "EED5";
layers = (
{
layerId = "master-text-regular";
width = 0;
paths = (
{
closed = 1;
nodes = (
"37 621 LINE" 
"37 459 LINE" 
"-1210 459 LINE" 
"-1210 621 LINE" 
);
},
);
},
);
}
{
unicode = "03B2";
layers = (
{
layerId = "master-text-regular";
width = 1220;
paths = (
{
closed = 1;
nodes = (
"158 -418 LINE" 
"158 1100 LINE" 
"158 1222 OFFCURVE"
"271 1406 OFFCURVE"
"472 1510 OFFCURVE"
"604 1510 CURVE"
"733 1510 OFFCURVE"
"930 1409 OFFCURVE"
"1041 1232 OFFCURVE"
"1041 1116 CURVE"
"1041 1005 OFFCURVE"
"933 860 OFFCURVE"
"740 785 OFFCURVE"
"611 777 CURVE"
"611 830 LINE" 
"746 823 OFFCURVE"
"970 741 OFFCURVE"
"1104 570 OFFCURVE"
"1104 428 CURVE"
"1104 297 OFFCURVE"
"987 94 OFFCURVE"
"782 -20 OFFCURVE"
"648 -20 CURVE"
"565 -20 OFFCURVE"
"429 33 OFFCURVE"
"335 152 OFFCURVE"
"316 250 CURVE"
"338 250 LINE" 
"338 -418 LINE" 
);
},
{
closed = 1;
nodes = (
"625 148 LINE" 
"717 148 OFFCURVE"
"852 217 OFFCURVE"
"925 344 OFFCURVE"
"925 430 CURVE"
"925 558 OFFCURVE"
"783 709 OFFCURVE"
"661 709 CURVE"
"520 709 LINE" 
"520 872 LINE" 
"601 872 LINE" 
"682 872 OFFCURVE"
"799 931 OFFCURVE"
"863 1039 OFFCURVE"
"863 1113 CURVE"
"863 1219 OFFCURVE"
"723 1342 OFFCURVE"
"604 1342 CURVE"
"482 1342 OFFCURVE"
"338 1214 OFFCURVE"
"338 1104 CURVE"
"338 408 LINE" 
"338 334 OFFCURVE"
"404 216 OFFCURVE"
"532 148 OFFCURVE"
);
},
);
},
);
}
{
unicode = "03D0";
layers = (
{
layerId = "master-text-regular";
width = 1298;
paths = (
{
closed = 1;
nodes = (
"696 939 LINE" 
"824 939 OFFCURVE"
"1024 833 OFFCURVE"
"1138 628 OFFCURVE"
"1138 479 CURVE"
"1138 329 OFFCURVE"
"1022 104 OFFCURVE"
"803 -20 OFFCURVE"
"650 -20 CURVE"
"492 -20 OFFCURVE"
"274 140 OFFCURVE"
"162 455 OFFCURVE"
"162 690 CURVE"
"162 763 LINE" 
"162 996 OFFCURVE"
"278 1354 OFFCURVE"
"512 1556 OFFCURVE"
"690 1556 CURVE"
"781 1556 OFFCURVE"
"929 1494 OFFCURVE"
"1016 1372 OFFCURVE"
"1016 1282 CURVE"
"1016 1218 OFFCURVE"
"949 1092 OFFCURVE"
"801 1010 OFFCURVE"
"679 1010 CURVE"
"611 1010 OFFCURVE"
"448 1034 OFFCURVE"
"347 1077 CURVE"
"409 1230 LINE" 
"489 1198 OFFCURVE"
"613 1173 OFFCURVE"
"657 1173 CURVE"
"739 1173 OFFCURVE"
"809 1242 OFFCURVE"
"809 1276 CURVE"
"809 1318 OFFCURVE"
"746 1391 OFFCURVE"
"665 1391 CURVE"
"580 1391 OFFCURVE"
"456 1297 OFFCURVE"
"376 1129 OFFCURVE"
"338 905 OFFCURVE"
"338 775 CURVE"
"400 850 OFFCURVE"
"584 939 OFFCURVE"
);
},
{
closed = 1;
nodes = (
"657 772 LINE" 
"584 772 OFFCURVE"
"457 705 OFFCURVE"
"379 575 OFFCURVE"
"379 479 CURVE"
"379 381 OFFCURVE"
"433 230 OFFCURVE"
"552 146 OFFCURVE"
"649 146 CURVE"
"747 146 OFFCURVE"
"870 230 OFFCURVE"
"929 381 OFFCURVE"
"929 479 CURVE"
"929 622 OFFCURVE"
"797 772 OFFCURVE"
);
},
);
},
);
}
{
unicode = "007B";
layers = (
{
layerId = "master-text-regular";
width = 873;
paths = (
{
closed = 1;
nodes = (
"144 646 LINE" 
"144 741 LINE" 
"266 741 OFFCURVE"
"362 842 OFFCURVE"
"362 960 CURVE"
"362 1190 LINE" 
"362 1292 OFFCURVE"
"403 1440 OFFCURVE"
"494 1535 OFFCURVE"
"643 1581 OFFCURVE"
"750 1581 CURVE"
"750 1430 LINE" 
"623 1431 OFFCURVE"
"528 1314 OFFCURVE"
"528 1187 CURVE"
"528 901 LINE" 
"528 844 OFFCURVE"
"498 751 OFFCURVE"
"416 683 OFFCURVE"
"265 646 OFFCURVE"
);
},
{
closed = 1;
nodes = (
"750 -279 LINE" 
"643 -279 OFFCURVE"
"494 -234 OFFCURVE"
"403 -139 OFFCURVE"
"362 9 OFFCURVE"
"362 112 CURVE"
"362 340 LINE" 
"362 459 OFFCURVE"
"266 561 OFFCURVE"
"144 561 CURVE"
"144 656 LINE" 
"265 656 OFFCURVE"
"416 618 OFFCURVE"
"498 549 OFFCURVE"
"528 455 OFFCURVE"
"528 399 CURVE"
"528 115 LINE" 
"528 -12 OFFCURVE"
"623 -130 OFFCURVE"
"750 -130 CURVE"
);
},
{
closed = 1;
nodes = (
"144 560 LINE" 
"144 742 LINE" 
"323 742 LINE" 
"323 560 LINE" 
);
},
);
},
);
}
{
unicode = "EE4A";
layers = (
{
layerId = "master-text-regular";
width = 1328;
paths = (
{
closed = 1;
nodes = (
"82 646 LINE" 
"82 741 LINE" 
"204 741 OFFCURVE"
"300 842 OFFCURVE"
"300 960 CURVE"
"300 1190 LINE" 
"300 1292 OFFCURVE"
"341 1440 OFFCURVE"
"432 1535 OFFCURVE"
"581 1581 OFFCURVE"
"688 1581 CURVE"
"688 1430 LINE" 
"561 1431 OFFCURVE"
"466 1314 OFFCURVE"
"466 1187 CURVE"
"466 901 LINE" 
"466 844 OFFCURVE"
"436 751 OFFCURVE"
"354 683 OFFCURVE"
"203 646 OFFCURVE"
);
},
{
closed = 1;
nodes = (
"688 -279 LINE" 
"581 -279 OFFCURVE"
"432 -234 OFFCURVE"
"341 -139 OFFCURVE"
"300 9 OFFCURVE"
"300 112 CURVE"
"300 340 LINE" 
"300 459 OFFCURVE"
"204 561 OFFCURVE"
"82 561 CURVE"
"82 656 LINE" 
"203 656 OFFCURVE"
"354 618 OFFCURVE"
"436 549 OFFCURVE"
"466 455 OFFCURVE"
"466 399 CURVE"
"466 115 LINE" 
"466 -12 OFFCURVE"
"561 -130 OFFCURVE"
"688 -130 CURVE"
);
},
{
closed = 1;
nodes = (
"82 560 LINE" 
"82 742 LINE" 
"261 742 LINE" 
"261 560 LINE" 
);
},
);
},
);
}
{
unicode = "007D";
layers = (
{
layerId = "master-text-regular";
width = 873;
paths = (
{
closed = 1;
nodes = (
"729 646 LINE" 
"608 646 OFFCURVE"
"457 683 OFFCURVE"
"375 751 OFFCURVE"
"345 844 OFFCURVE"
"345 901 CURVE"
"345 1187 LINE" 
"345 1313 OFFCURVE"
"251 1430 OFFCURVE"
"123 1430 CURVE"
"123 1581 LINE" 
"230 1581 OFFCURVE"
"378 1535 OFFCURVE"
"469 1440 OFFCURVE"
"510 1292 OFFCURVE"
"510 1190 CURVE"
"510 960 LINE" 
"510 842 OFFCURVE"
"607 741 OFFCURVE"
"729 741 CURVE"
);
},
{
closed = 1;
nodes = (
"123 -279 LINE" 
"123 -130 LINE" 
"251 -130 OFFCURVE"
"345 -12 OFFCURVE"
"345 115 CURVE"
"345 399 LINE" 
"345 455 OFFCURVE"
"375 549 OFFCURVE"
"457 618 OFFCURVE"
"608 656 OFFCURVE"
"729 656 CURVE"
"729 561 LINE" 
"606 560 OFFCURVE"
"510 458 OFFCURVE"
"510 340 CURVE"
"510 112 LINE" 
"510 9 OFFCURVE"
"469 -139 OFFCURVE"
"378 -234 OFFCURVE"
"230 -279 OFFCURVE"
);
},
{
closed = 1;
nodes = (
"729 561 LINE" 
"549 560 LINE" 
"549 742 LINE" 
"729 741 LINE" 
);
},
);
},
);
}
{
unicode = "EE4B";
layers = (
{
layerId = "master-text-regular";
width = 1328;
paths = (
{
closed = 1;
nodes = (
"718 646 LINE" 
"597 646 OFFCURVE"
"446 683 OFFCURVE"
"364 751 OFFCURVE"
"334 844 OFFCURVE"
"334 901 CURVE"
"334 1187 LINE" 
"334 1313 OFFCURVE"
"240 1430 OFFCURVE"
"112 1430 CURVE"
"112 1581 LINE" 
"219 1581 OFFCURVE"
"367 1535 OFFCURVE"
"458 1440 OFFCURVE"
"499 1292 OFFCURVE"
"499 1190 CURVE"
"499 960 LINE" 
"499 842 OFFCURVE"
"596 741 OFFCURVE"
"718 741 CURVE"
);
},
{
closed = 1;
nodes = (
"112 -279 LINE" 
"112 -130 LINE" 
"240 -130 OFFCURVE"
"334 -12 OFFCURVE"
"334 115 CURVE"
"334 399 LINE" 
"334 455 OFFCURVE"
"364 549 OFFCURVE"
"446 618 OFFCURVE"
"597 656 OFFCURVE"
"718 656 CURVE"
"718 561 LINE" 
"595 560 OFFCURVE"
"499 458 OFFCURVE"
"499 340 CURVE"
"499 112 LINE" 
"499 9 OFFCURVE"
"458 -139 OFFCURVE"
"367 -234 OFFCURVE"
"219 -279 OFFCURVE"
);
},
{
closed = 1;
nodes = (
"718 561 LINE" 
"538 560 LINE" 
"538 742 LINE" 
"718 741 LINE" 
);
},
);
},
);
}
{
unicode = "005B";
layers = (
{
layerId = "master-text-regular";
width = 747;
paths = (
{
closed = 1;
nodes = (
"226 -279 LINE" 
"226 1581 LINE" 
"624 1581 LINE" 
"624 1428 LINE" 
"398 1428 LINE" 
"398 -126 LINE" 
"624 -126 LINE" 
"624 -279 LINE" 
);
},
);
},
);
}
{
unicode = "2045";
layers = (
{
layerId = "master-text-regular";
width = 747;
paths = (
{
closed = 1;
nodes = (
"624 727 LINE" 
"624 575 LINE" 
"312 575 LINE" 
"312 727 LINE" 
);
},
{
closed = 1;
nodes = (
"226 -279 LINE" 
"226 1581 LINE" 
"624 1581 LINE" 
"624 1428 LINE" 
"398 1428 LINE" 
"398 -126 LINE" 
"624 -126 LINE" 
"624 -279 LINE" 
);
},
);
},
);
}
{
unicode = "E0A7";
layers = (
{
layerId = "master-text-regular";
width = 551;
paths = (
{
closed = 1;
nodes = (
"157 750 LINE" 
"157 1764 LINE" 
"451 1764 LINE" 
"451 1638 LINE" 
"321 1638 LINE" 
"321 876 LINE" 
"451 876 LINE" 
"451 750 LINE" 
);
},
);
},
);
}
{
unicode = "005D";
layers = (
{
layerId = "master-text-regular";
width = 747;
paths = (
{
closed = 1;
nodes = (
"123 -279 LINE" 
"123 -126 LINE" 
"349 -126 LINE" 
"349 1428 LINE" 
"123 1428 LINE" 
"123 1581 LINE" 
"521 1581 LINE" 
"521 -279 LINE" 
);
},
);
},
);
}
{
unicode = "2046";
layers = (
{
layerId = "master-text-regular";
width = 747;
paths = (
{
closed = 1;
nodes = (
"438 727 LINE" 
"438 575 LINE" 
"126 575 LINE" 
"126 727 LINE" 
);
},
{
closed = 1;
nodes = (
"123 -279 LINE" 
"123 -126 LINE" 
"349 -126 LINE" 
"349 1428 LINE" 
"123 1428 LINE" 
"123 1581 LINE" 
"521 1581 LINE" 
"521 -279 LINE" 
);
},
);
},
);
}
{
unicode = "E0A8";
layers = (
{
layerId = "master-text-regular";
width = 551;
paths = (
{
closed = 1;
nodes = (
"100 750 LINE" 
"100 876 LINE" 
"230 876 LINE" 
"230 1638 LINE" 
"100 1638 LINE" 
"100 1764 LINE" 
"394 1764 LINE" 
"394 750 LINE" 
);
},
);
},
);
}
{
layers = (
{
layerId = "master-text-regular";
width = 768;
paths = (
{
closed = 1;
nodes = (
"389 1247 LINE" 
"308 1247 OFFCURVE"
"177 1322 OFFCURVE"
"99 1451 OFFCURVE"
"99 1530 CURVE"
"231 1530 LINE" 
"231 1462 OFFCURVE"
"320 1375 OFFCURVE"
"389 1375 CURVE"
"458 1375 OFFCURVE"
"547 1462 OFFCURVE"
"547 1530 CURVE"
"679 1530 LINE" 
"679 1451 OFFCURVE"
"602 1323 OFFCURVE"
"471 1247 OFFCURVE"
);
},
{
closed = 1;
nodes = (
"314 1615 LINE" 
"454 1891 LINE" 
"655 1891 LINE" 
"461 1615 LINE" 
);
},
);
},
);
}
{
layers = (
{
layerId = "master-text-regular";
width = 768;
paths = (
{
closed = 1;
nodes = (
"379 1247 LINE" 
"298 1247 OFFCURVE"
"166 1323 OFFCURVE"
"89 1451 OFFCURVE"
"89 1530 CURVE"
"221 1530 LINE" 
"221 1462 OFFCURVE"
"310 1375 OFFCURVE"
"379 1375 CURVE"
"448 1375 OFFCURVE"
"537 1462 OFFCURVE"
"537 1530 CURVE"
"669 1530 LINE" 
"669 1451 OFFCURVE"
"592 1322 OFFCURVE"
"460 1247 OFFCURVE"
);
},
{
closed = 1;
nodes = (
"454 1615 LINE" 
"307 1615 LINE" 
"113 1891 LINE" 
"314 1891 LINE" 
);
},
);
},
);
}
{
unicode = "EEAB";
layers = (
{
layerId = "master-text-regular";
width = 840;
paths = (
{
closed = 1;
nodes = (
"420 1583 LINE" 
"508 1583 OFFCURVE"
"645 1503 OFFCURVE"
"725 1367 OFFCURVE"
"725 1282 CURVE"
"593 1282 LINE" 
"593 1356 OFFCURVE"
"489 1449 OFFCURVE"
"420 1449 CURVE"
"351 1449 OFFCURVE"
"247 1356 OFFCURVE"
"247 1282 CURVE"
"115 1282 LINE" 
"115 1367 OFFCURVE"
"195 1503 OFFCURVE"
"333 1583 OFFCURVE"
);
},
);
},
);
}
{
layers = (
{
layerId = "master-text-regular";
width = 768;
paths = (
{
closed = 1;
nodes = (
"384 1249 LINE" 
"304 1249 OFFCURVE"
"175 1324 OFFCURVE"
"99 1451 OFFCURVE"
"99 1529 CURVE"
"227 1529 LINE" 
"227 1460 OFFCURVE"
"315 1373 OFFCURVE"
"384 1373 CURVE"
"453 1373 OFFCURVE"
"541 1460 OFFCURVE"
"541 1529 CURVE"
"669 1529 LINE" 
"669 1451 OFFCURVE"
"593 1324 OFFCURVE"
"464 1249 OFFCURVE"
);
},
{
closed = 1;
nodes = (
"524 1642 LINE" 
"487 1642 OFFCURVE"
"416 1667 OFFCURVE"
"353 1700 OFFCURVE"
"300 1725 OFFCURVE"
"281 1725 CURVE"
"255 1725 OFFCURVE"
"230 1675 OFFCURVE"
"228 1646 CURVE"
"102 1646 LINE" 
"105 1736 OFFCURVE"
"184 1854 OFFCURVE"
"264 1854 CURVE"
"303 1854 OFFCURVE"
"369 1828 OFFCURVE"
"427 1795 OFFCURVE"
"480 1769 OFFCURVE"
"505 1769 CURVE"
"530 1769 OFFCURVE"
"556 1807 OFFCURVE"
"561 1850 CURVE"
"684 1850 LINE" 
"681 1756 OFFCURVE"
"598 1642 OFFCURVE"
);
},
);
},
);
}
{
unicode = "EEAF";
layers = (
{
layerId = "master-text-regular";
width = 0;
paths = (
{
closed = 1;
nodes = (
"-952 -467 LINE" 
"-952 -109 LINE" 
"-797 -109 LINE" 
"-797 -467 LINE" 
);
},
{
closed = 1;
nodes = (
"-818 -235 LINE" 
"-818 -109 LINE" 
"-406 -109 LINE" 
"-406 -235 LINE" 
);
},
{
closed = 1;
nodes = (
"-421 -467 LINE" 
"-421 -109 LINE" 
"-266 -109 LINE" 
"-266 -467 LINE" 
);
},
);
},
);
}
{
unicode = "00A6";
layers = (
{
layerId = "master-text-regular";
width = 553;
paths = (
{
closed = 1;
nodes = (
"192 403 LINE" 
"361 403 LINE" 
"361 -280 LINE" 
"192 -280 LINE" 
);
},
{
closed = 1;
nodes = (
"361 1490 LINE" 
"361 811 LINE" 
"192 811 LINE" 
"192 1490 LINE" 
);
},
);
},
);
}
{
unicode = "2022";
layers = (
{
layerId = "master-text-regular";
width = 1152;
paths = (
{
closed = 1;
nodes = (
"576 274 LINE" 
"488 274 OFFCURVE"
"342 360 OFFCURVE"
"256 506 OFFCURVE"
"256 594 CURVE"
"256 683 OFFCURVE"
"342 828 OFFCURVE"
"488 914 OFFCURVE"
"576 914 CURVE"
"665 914 OFFCURVE"
"810 828 OFFCURVE"
"896 683 OFFCURVE"
"896 594 CURVE"
"896 506 OFFCURVE"
"810 360 OFFCURVE"
"665 274 OFFCURVE"
);
},
);
},
);
}
{
unicode = "0063";
layers = (
{
layerId = "master-text-regular";
width = 1170;
paths = (
{
closed = 1;
nodes = (
"613 -24 LINE" 
"461 -24 OFFCURVE"
"232 120 OFFCURVE"
"104 380 OFFCURVE"
"104 552 CURVE"
"104 727 OFFCURVE"
"232 988 OFFCURVE"
"461 1132 OFFCURVE"
"613 1132 CURVE"
"694 1132 OFFCURVE"
"838 1090 OFFCURVE"
"957 1011 OFFCURVE"
"1043 896 OFFCURVE"
"1066 823 CURVE"
"893 774 LINE" 
"881 817 OFFCURVE"
"831 889 OFFCURVE"
"760 942 OFFCURVE"
"668 971 OFFCURVE"
"613 971 CURVE"
"501 971 OFFCURVE"
"357 854 OFFCURVE"
"287 664 OFFCURVE"
"287 552 CURVE"
"287 442 OFFCURVE"
"357 253 OFFCURVE"
"501 137 OFFCURVE"
"613 137 CURVE"
"669 137 OFFCURVE"
"763 167 OFFCURVE"
"836 222 OFFCURVE"
"886 298 OFFCURVE"
"898 343 CURVE"
"1070 294 LINE" 
"1048 219 OFFCURVE"
"961 102 OFFCURVE"
"841 19 OFFCURVE"
"695 -24 OFFCURVE"
);
},
);
},
);
}
{
unicode = "1D9C";
layers = (
{
layerId = "master-text-regular";
width = 835;
paths = (
{
closed = 1;
nodes = (
"439 887 LINE" 
"330 887 OFFCURVE"
"171 967 OFFCURVE"
"84 1111 OFFCURVE"
"84 1205 CURVE"
"84 1300 OFFCURVE"
"171 1443 OFFCURVE"
"330 1523 OFFCURVE"
"439 1523 CURVE"
"525 1523 OFFCURVE"
"656 1472 OFFCURVE"
"739 1382 OFFCURVE"
"752 1324 CURVE"
"596 1289 LINE" 
"588 1319 OFFCURVE"
"548 1367 OFFCURVE"
"484 1394 OFFCURVE"
"440 1394 CURVE"
"355 1394 OFFCURVE"
"259 1293 OFFCURVE"
"259 1206 CURVE"
"259 1120 OFFCURVE"
"355 1017 OFFCURVE"
"440 1017 CURVE"
"485 1017 OFFCURVE"
"551 1046 OFFCURVE"
"592 1095 OFFCURVE"
"599 1125 CURVE"
"754 1091 LINE" 
"741 1033 OFFCURVE"
"659 940 OFFCURVE"
"528 887 OFFCURVE"
);
},
);
},
);
}
{
unicode = "EEB0";
layers = (
{
layerId = "master-text-regular";
width = 0;
paths = (
{
closed = 1;
nodes = (
"-586 1217 LINE" 
"-728 1217 OFFCURVE"
"-890 1371 OFFCURVE"
"-890 1489 CURVE"
"-726 1489 LINE" 
"-726 1432 OFFCURVE"
"-663 1346 OFFCURVE"
"-586 1346 CURVE"
"-509 1346 OFFCURVE"
"-443 1431 OFFCURVE"
"-443 1489 CURVE"
"-279 1489 LINE" 
"-279 1409 OFFCURVE"
"-354 1286 OFFCURVE"
"-491 1217 OFFCURVE"
);
},
{
closed = 1;
nodes = (
"-585 1456 LINE" 
"-649 1456 OFFCURVE"
"-702 1519 OFFCURVE"
"-702 1563 CURVE"
"-702 1619 OFFCURVE"
"-637 1679 OFFCURVE"
"-584 1679 CURVE"
"-525 1679 OFFCURVE"
"-464 1613 OFFCURVE"
"-464 1567 CURVE"
"-464 1519 OFFCURVE"
"-523 1456 OFFCURVE"
);
},
);
},
);
}
{
unicode = "EECC";
layers = (
{
layerId = "master-text-regular";
width = 828;
paths = (
{
closed = 1;
nodes = (
"277 1536 LINE" 
"421 1361 LINE" 
"563 1536 LINE" 
"742 1536 LINE" 
"742 1527 LINE" 
"506 1260 LINE" 
"335 1260 LINE" 
"100 1527 LINE" 
"100 1536 LINE" 
);
},
{
closed = 1;
nodes = (
"417 1598 LINE" 
"366 1598 OFFCURVE"
"292 1668 OFFCURVE"
"292 1717 CURVE"
"292 1767 OFFCURVE"
"366 1836 OFFCURVE"
"417 1836 CURVE"
"469 1836 OFFCURVE"
"543 1767 OFFCURVE"
"543 1717 CURVE"
"543 1668 OFFCURVE"
"469 1598 OFFCURVE"
);
},
);
},
);
}
{
unicode = "E2CB";
layers = (
{
layerId = "master-text-regular";
width = 828;
paths = (
{
closed = 1;
nodes = (
"277 1536 LINE" 
"421 1361 LINE" 
"563 1536 LINE" 
"742 1536 LINE" 
"742 1527 LINE" 
"506 1260 LINE" 
"335 1260 LINE" 
"100 1527 LINE" 
"100 1536 LINE" 
);
},
{
closed = 1;
nodes = (
"320 1619 LINE" 
"320 1815 LINE" 
"516 1815 LINE" 
"516 1619 LINE" 
);
},
);
},
);
}
{
unicode = "00A2";
layers = (
{
layerId = "master-text-regular";
width = 1170;
paths = (
{
closed = 1;
nodes = (
"543 0 LINE" 
"543 1490 LINE" 
"661 1490 LINE" 
"661 0 LINE" 
);
},
{
closed = 1;
nodes = (
"613 166 LINE" 
"461 166 OFFCURVE"
"232 310 OFFCURVE"
"104 570 OFFCURVE"
"104 742 CURVE"
"104 917 OFFCURVE"
"232 1178 OFFCURVE"
"461 1322 OFFCURVE"
"613 1322 CURVE"
"694 1322 OFFCURVE"
"838 1280 OFFCURVE"
"957 1201 OFFCURVE"
"1043 1086 OFFCURVE"
"1066 1013 CURVE"
"893 964 LINE" 
"881 1007 OFFCURVE"
"831 1079 OFFCURVE"
"760 1132 OFFCURVE"
"668 1161 OFFCURVE"
"613 1161 CURVE"
"501 1161 OFFCURVE"
"357 1044 OFFCURVE"
"287 854 OFFCURVE"
"287 742 CURVE"
"287 632 OFFCURVE"
"357 443 OFFCURVE"
"501 327 OFFCURVE"
"613 327 CURVE"
"669 327 OFFCURVE"
"763 357 OFFCURVE"
"836 412 OFFCURVE"
"886 488 OFFCURVE"
"898 533 CURVE"
"1070 484 LINE" 
"1048 409 OFFCURVE"
"961 292 OFFCURVE"
"841 209 OFFCURVE"
"695 166 OFFCURVE"
);
},
);
},
);
}
{
unicode = "03C7";
layers = (
{
layerId = "master-text-regular";
width = 1165;
paths = (
{
closed = 1;
nodes = (
"73 -418 LINE" 
"539 462 LINE" 
"622 462 LINE" 
"931 -147 LINE" 
"956 -196 OFFCURVE"
"994 -241 OFFCURVE"
"1049 -252 OFFCURVE"
"1097 -252 CURVE"
"1141 -252 LINE" 
"1141 -418 LINE" 
"1097 -418 LINE" 
"1013 -418 OFFCURVE"
"903 -388 OFFCURVE"
"823 -305 OFFCURVE"
"782 -224 CURVE"
"579 181 LINE" 
"265 -418 LINE" 
);
},
{
closed = 1;
nodes = (
"515 297 LINE" 
"230 843 LINE" 
"200 901 OFFCURVE"
"163 950 OFFCURVE"
"114 962 OFFCURVE"
"64 962 CURVE"
"20 962 LINE" 
"20 1128 LINE" 
"64 1128 LINE" 
"149 1128 OFFCURVE"
"256 1095 OFFCURVE"
"336 1005 OFFCURVE"
"380 920 CURVE"
"583 528 LINE" 
"898 1118 LINE" 
"1090 1118 LINE" 
"647 297 LINE" 
);
},
);
},
);
}
{
unicode = "25CF";
layers = (
{
layerId = "master-text-regular";
width = 1872;
paths = (
{
closed = 1;
nodes = (
"936 -23 LINE" 
"777 -23 OFFCURVE"
"499 96 OFFCURVE"
"287 308 OFFCURVE"
"168 586 OFFCURVE"
"168 745 CURVE"
"168 904 OFFCURVE"
"287 1182 OFFCURVE"
"499 1394 OFFCURVE"
"777 1513 OFFCURVE"
"936 1513 CURVE"
"1095 1513 OFFCURVE"
"1373 1394 OFFCURVE"
"1585 1182 OFFCURVE"
"1704 904 OFFCURVE"
"1704 745 CURVE"
"1704 586 OFFCURVE"
"1585 308 OFFCURVE"
"1373 96 OFFCURVE"
"1095 -23 OFFCURVE"
);
},
);
},
);
}
{
layers = (
{
layerId = "master-text-regular";
width = 832;
paths = (
{
closed = 1;
nodes = (
"279 1254 LINE" 
"102 1254 LINE" 
"102 1263 LINE" 
"337 1530 LINE" 
"508 1530 LINE" 
"744 1263 LINE" 
"744 1254 LINE" 
"565 1254 LINE" 
"423 1429 LINE" 
);
},
{
closed = 1;
nodes = (
"558 1615 LINE" 
"698 1891 LINE" 
"899 1891 LINE" 
"705 1615 LINE" 
);
},
);
},
);
}
{
layers = (
{
layerId = "master-text-regular";
width = 832;
paths = (
{
closed = 1;
nodes = (
"279 1254 LINE" 
"102 1254 LINE" 
"102 1263 LINE" 
"337 1530 LINE" 
"508 1530 LINE" 
"744 1263 LINE" 
"744 1254 LINE" 
"565 1254 LINE" 
"423 1429 LINE" 
);
},
{
closed = 1;
nodes = (
"607 1615 LINE" 
"414 1891 LINE" 
"615 1891 LINE" 
"755 1615 LINE" 
);
},
);
},
);
}
{
layers = (
{
layerId = "master-text-regular";
width = 832;
paths = (
{
closed = 1;
nodes = (
"279 1254 LINE" 
"102 1254 LINE" 
"102 1263 LINE" 
"337 1530 LINE" 
"508 1530 LINE" 
"744 1263 LINE" 
"744 1254 LINE" 
"565 1254 LINE" 
"423 1429 LINE" 
);
},
{
closed = 1;
nodes = (
"689 1615 LINE" 
"553 1615 LINE" 
"616 1734 LINE" 
"627 1755 OFFCURVE"
"614 1773 OFFCURVE"
"594 1773 CURVE"
"455 1773 LINE" 
"455 1891 LINE" 
"594 1891 LINE" 
"677 1891 OFFCURVE"
"765 1833 OFFCURVE"
"773 1739 OFFCURVE"
"735 1683 CURVE"
);
},
);
},
);
}
{
layers = (
{
layerId = "master-text-regular";
width = 832;
paths = (
{
closed = 1;
nodes = (
"279 1254 LINE" 
"102 1254 LINE" 
"102 1263 LINE" 
"337 1530 LINE" 
"508 1530 LINE" 
"744 1263 LINE" 
"744 1254 LINE" 
"565 1254 LINE" 
"423 1429 LINE" 
);
},
{
closed = 1;
nodes = (
"552 1643 LINE" 
"515 1643 OFFCURVE"
"444 1668 OFFCURVE"
"381 1701 OFFCURVE"
"328 1726 OFFCURVE"
"309 1726 CURVE"
"283 1726 OFFCURVE"
"258 1676 OFFCURVE"
"256 1647 CURVE"
"130 1647 LINE" 
"133 1737 OFFCURVE"
"212 1855 OFFCURVE"
"292 1855 CURVE"
"331 1855 OFFCURVE"
"397 1829 OFFCURVE"
"455 1796 OFFCURVE"
"508 1770 OFFCURVE"
"533 1770 CURVE"
"558 1770 OFFCURVE"
"584 1808 OFFCURVE"
"589 1851 CURVE"
"712 1851 LINE" 
"709 1757 OFFCURVE"
"626 1643 OFFCURVE"
);
},
);
},
);
}
{
unicode = "20A1";
layers = (
{
layerId = "master-text-regular";
width = 1496;
paths = (
{
closed = 1;
nodes = (
"1236 1676 LINE" 
"660 -186 LINE" 
"564 -186 LINE" 
"1138 1676 LINE" 
);
},
{
closed = 1;
nodes = (
"974 1676 LINE" 
"398 -186 LINE" 
"302 -190 LINE" 
"876 1672 LINE" 
);
},
{
closed = 1;
nodes = (
"783 -20 LINE" 
"592 -20 OFFCURVE"
"293 165 OFFCURVE"
"122 508 OFFCURVE"
"122 744 CURVE"
"122 981 OFFCURVE"
"293 1324 OFFCURVE"
"592 1510 OFFCURVE"
"783 1510 CURVE"
"896 1510 OFFCURVE"
"1097 1444 OFFCURVE"
"1257 1317 OFFCURVE"
"1364 1136 OFFCURVE"
"1384 1021 CURVE"
"1194 1021 LINE" 
"1178 1098 OFFCURVE"
"1101 1214 OFFCURVE"
"990 1294 OFFCURVE"
"856 1334 OFFCURVE"
"783 1334 CURVE"
"649 1334 OFFCURVE"
"433 1198 OFFCURVE"
"307 935 OFFCURVE"
"307 744 CURVE"
"307 554 OFFCURVE"
"434 291 OFFCURVE"
"650 156 OFFCURVE"
"783 156 CURVE"
"856 156 OFFCURVE"
"990 197 OFFCURVE"
"1101 276 OFFCURVE"
"1178 393 OFFCURVE"
"1194 469 CURVE"
"1384 469 LINE" 
"1365 355 OFFCURVE"
"1258 175 OFFCURVE"
"1098 47 OFFCURVE"
"897 -20 OFFCURVE"
);
},
);
},
);
}
{
layers = (
{
layerId = "master-text-regular";
width = 472;
paths = (
{
closed = 1;
nodes = (
"102 -287 LINE" 
"173 166 LINE" 
"338 166 LINE" 
"213 -287 LINE" 
);
},
);
},
);
}
{
layers = (
{
layerId = "master-text-regular";
width = 472;
paths = (
{
closed = 1;
nodes = (
"175 -244 LINE" 
"140 -170 LINE" 
"207 -135 OFFCURVE"
"274 -44 OFFCURVE"
"274 53 CURVE"
"274 56 OFFCURVE"
"274 60 OFFCURVE"
"274 63 CURVE"
"289 63 LINE" 
"289 36 OFFCURVE"
"254 -14 OFFCURVE"
"225 -14 CURVE"
"184 -14 OFFCURVE"
"126 45 OFFCURVE"
"126 92 CURVE"
"126 140 OFFCURVE"
"189 200 OFFCURVE"
"238 200 CURVE"
"293 200 OFFCURVE"
"360 120 OFFCURVE"
"360 49 CURVE"
"360 -67 OFFCURVE"
"251 -209 OFFCURVE"
);
},
);
},
);
}
{
layers = (
{
layerId = "master-text-regular";
width = 472;
paths = (
{
closed = 1;
nodes = (
"142 -218 LINE" 
"142 -141 LINE" 
"165 -141 LINE" 
"201 -141 OFFCURVE"
"240 -78 OFFCURVE"
"240 -31 CURVE"
"240 14 LINE" 
"255 0 LINE" 
"142 0 LINE" 
"142 186 LINE" 
"330 186 LINE" 
"330 -25 LINE" 
"330 -115 OFFCURVE"
"242 -218 OFFCURVE"
"165 -218 CURVE"
);
},
);
},
);
}
{
layers = (
{
layerId = "master-text-regular";
width = 472;
paths = (
{
closed = 1;
nodes = (
"102 395 LINE" 
"173 848 LINE" 
"338 848 LINE" 
"213 395 LINE" 
);
},
);
},
);
}
{
unicode = "E2AB";
layers = (
{
layerId = "master-text-regular";
width = 590;
paths = (
{
closed = 1;
nodes = (
"178 -273 LINE" 
"178 -176 LINE" 
"206 -176 LINE" 
"252 -176 OFFCURVE"
"300 -97 OFFCURVE"
"300 -39 CURVE"
"300 18 LINE" 
"319 0 LINE" 
"178 0 LINE" 
"178 232 LINE" 
"412 232 LINE" 
"412 -31 LINE" 
"412 -144 OFFCURVE"
"302 -273 OFFCURVE"
"206 -273 CURVE"
);
},
);
},
);
}
{
layers = (
{
layerId = "master-text-regular";
width = 550;
paths = (
{
closed = 1;
nodes = (
"198 1182 LINE" 
"198 1560 LINE" 
"378 1560 LINE" 
"326 1182 LINE" 
);
},
);
},
);
}
{
layers = (
{
layerId = "master-text-regular";
width = 550;
paths = (
{
closed = 1;
nodes = (
"166 1232 LINE" 
"166 1361 LINE" 
"166 1424 OFFCURVE"
"208 1535 OFFCURVE"
"269 1625 OFFCURVE"
"299 1655 CURVE"
"408 1585 LINE" 
"369 1525 OFFCURVE"
"324 1417 OFFCURVE"
"324 1352 CURVE"
"324 1232 LINE" 
);
},
);
},
);
}
{
unicode = "0326";
layers = (
{
layerId = "master-text-regular";
width = 0;
paths = (
{
closed = 1;
nodes = (
"-514 -146 LINE" 
"-514 -223 LINE" 
"-514 -305 OFFCURVE"
"-590 -492 OFFCURVE"
"-665 -556 CURVE"
"-782 -478 LINE" 
"-744 -419 OFFCURVE"
"-691 -299 OFFCURVE"
"-691 -228 CURVE"
"-691 -146 LINE" 
);
},
);
},
);
}
{
unicode = "EEB3";
layers = (
{
layerId = "master-text-regular";
width = 0;
paths = (
{
closed = 1;
nodes = (
"-690 987 LINE" 
"-690 1172 LINE" 
"-690 1236 OFFCURVE"
"-647 1379 OFFCURVE"
"-566 1513 OFFCURVE"
"-509 1563 CURVE"
"-393 1486 LINE" 
"-439 1413 OFFCURVE"
"-488 1260 OFFCURVE"
"-488 1174 CURVE"
"-488 987 LINE" 
);
},
);
},
);
}
{
unicode = "00A9";
layers = (
{
layerId = "master-text-regular";
width = 1872;
paths = (
{
closed = 1;
nodes = (
"512 744 LINE" 
"512 864 OFFCURVE"
"628 1060 OFFCURVE"
"825 1176 OFFCURVE"
"944 1176 CURVE"
"1048 1176 OFFCURVE"
"1223 1087 OFFCURVE"
"1338 935 OFFCURVE"
"1352 838 CURVE"
"1176 838 LINE" 
"1161 912 OFFCURVE"
"1028 1008 OFFCURVE"
"944 1008 CURVE"
"872 1008 OFFCURVE"
"752 937 OFFCURVE"
"680 817 OFFCURVE"
"680 744 CURVE"
"680 672 OFFCURVE"
"752 553 OFFCURVE"
"872 482 OFFCURVE"
"944 482 CURVE"
"1028 482 OFFCURVE"
"1145 577 OFFCURVE"
"1160 652 CURVE"
"1336 652 LINE" 
"1323 555 OFFCURVE"
"1215 401 OFFCURVE"
"1048 312 OFFCURVE"
"944 312 CURVE"
"825 312 OFFCURVE"
"628 429 OFFCURVE"
"512 625 OFFCURVE"
);
},
{
closed = 1;
nodes = (
"936 -23 LINE" 
"777 -23 OFFCURVE"
"499 96 OFFCURVE"
"287 308 OFFCURVE"
"168 586 OFFCURVE"
"168 745 CURVE"
"168 904 OFFCURVE"
"287 1182 OFFCURVE"
"499 1394 OFFCURVE"
"777 1513 OFFCURVE"
"936 1513 CURVE"
"1095 1513 OFFCURVE"
"1373 1394 OFFCURVE"
"1585 1182 OFFCURVE"
"1704 904 OFFCURVE"
"1704 745 CURVE"
"1704 586 OFFCURVE"
"1585 308 OFFCURVE"
"1373 96 OFFCURVE"
"1095 -23 OFFCURVE"
);
},
{
closed = 1;
nodes = (
"936 151 LINE" 
"1059 151 OFFCURVE"
"1274 243 OFFCURVE"
"1438 407 OFFCURVE"
"1530 622 OFFCURVE"
"1530 745 CURVE"
"1530 868 OFFCURVE"
"1438 1083 OFFCURVE"
"1274 1247 OFFCURVE"
"1059 1339 OFFCURVE"
"936 1339 CURVE"
"813 1339 OFFCURVE"
"598 1247 OFFCURVE"
"434 1083 OFFCURVE"
"342 868 OFFCURVE"
"342 745 CURVE"
"342 622 OFFCURVE"
"434 407 OFFCURVE"
"598 243 OFFCURVE"
"813 151 OFFCURVE"
);
},
);
},
);
}
{
unicode = "EED6";
layers = (
{
layerId = "master-text-regular";
width = 926;
paths = (
{
closed = 1;
nodes = (
"140 676 LINE" 
"140 814 LINE" 
"786 814 LINE" 
"786 676 LINE" 
);
},
);
},
);
}
{
layers = (
{
layerId = "master-text-regular";
width = 873;
paths = (
{
closed = 1;
nodes = (
"50 668 LINE" 
"50 822 LINE" 
"823 822 LINE" 
"823 668 LINE" 
);
},
);
},
);
}
{
unicode = "EEDE";
layers = (
{
layerId = "master-text-regular";
width = 913;
paths = (
{
closed = 1;
nodes = (
"50 668 LINE" 
"50 822 LINE" 
"863 822 LINE" 
"863 668 LINE" 
);
},
);
},
);
}
{
unicode = "0297";
layers = (
{
layerId = "master-text-regular";
width = 1111;
paths = (
{
closed = 1;
nodes = (
"580 -276 LINE" 
"676 -276 OFFCURVE"
"815 -162 OFFCURVE"
"821 -79 CURVE"
"1017 -79 LINE" 
"1014 -175 OFFCURVE"
"893 -340 OFFCURVE"
"697 -442 OFFCURVE"
"580 -442 CURVE"
"414 -442 OFFCURVE"
"199 -293 OFFCURVE"
"94 -47 OFFCURVE"
"94 99 CURVE"
"94 589 LINE" 
"94 735 OFFCURVE"
"200 982 OFFCURVE"
"416 1132 OFFCURVE"
"580 1132 CURVE"
"710 1132 OFFCURVE"
"904 1027 OFFCURVE"
"1014 848 OFFCURVE"
"1017 735 CURVE"
"821 735 LINE" 
"815 829 OFFCURVE"
"688 966 OFFCURVE"
"580 966 CURVE"
"470 966 OFFCURVE"
"349 853 OFFCURVE"
"302 680 OFFCURVE"
"302 589 CURVE"
"302 99 LINE" 
"302 9 OFFCURVE"
"348 -164 OFFCURVE"
"469 -276 OFFCURVE"
);
},
);
},
);
}
{
unicode = "00A4";
layers = (
{
layerId = "master-text-regular";
width = 1484;
paths = (
{
closed = 1;
nodes = (
"738 -20 LINE" 
"614 -20 OFFCURVE"
"398 76 OFFCURVE"
"235 247 OFFCURVE"
"143 475 OFFCURVE"
"143 608 CURVE"
"143 741 OFFCURVE"
"235 969 OFFCURVE"
"398 1139 OFFCURVE"
"614 1234 OFFCURVE"
"738 1234 CURVE"
"861 1234 OFFCURVE"
"1078 1139 OFFCURVE"
"1242 969 OFFCURVE"
"1335 741 OFFCURVE"
"1335 608 CURVE"
"1335 475 OFFCURVE"
"1242 246 OFFCURVE"
"1078 75 OFFCURVE"
"861 -20 OFFCURVE"
);
},
{
closed = 1;
nodes = (
"738 142 LINE" 
"858 142 OFFCURVE"
"1053 269 OFFCURVE"
"1168 481 OFFCURVE"
"1168 608 CURVE"
"1168 737 OFFCURVE"
"1053 949 OFFCURVE"
"858 1074 OFFCURVE"
"738 1074 CURVE"
"619 1074 OFFCURVE"
"422 949 OFFCURVE"
"305 737 OFFCURVE"
"305 608 CURVE"
"305 481 OFFCURVE"
"422 269 OFFCURVE"
"619 142 OFFCURVE"
);
},
{
closed = 1;
nodes = (
"1162 925 LINE" 
"1044 1049 LINE" 
"1244 1255 LINE" 
"1366 1131 LINE" 
);
},
{
closed = 1;
nodes = (
"1244 -15 LINE" 
"1044 191 LINE" 
"1162 313 LINE" 
"1366 109 LINE" 
);
},
{
closed = 1;
nodes = (
"238 -15 LINE" 
"120 109 LINE" 
"320 313 LINE" 
"442 191 LINE" 
);
},
{
closed = 1;
nodes = (
"320 925 LINE" 
"120 1131 LINE" 
"238 1255 LINE" 
"442 1049 LINE" 
);
},
);
},
);
}
{
unicode = "0064";
layers = (
{
layerId = "master-text-regular";
width = 1254;
paths = (
{
closed = 1;
nodes = (
"577 -24 LINE" 
"438 -24 OFFCURVE"
"224 118 OFFCURVE"
"104 378 OFFCURVE"
"104 556 CURVE"
"104 733 OFFCURVE"
"225 992 OFFCURVE"
"439 1132 OFFCURVE"
"578 1132 CURVE"
"687 1132 OFFCURVE"
"815 1060 OFFCURVE"
"884 969 OFFCURVE"
"902 939 CURVE"
"916 939 LINE" 
"916 1490 LINE" 
"1096 1490 LINE" 
"1096 0 LINE" 
"922 0 LINE" 
"922 173 LINE" 
"902 173 LINE" 
"884 142 OFFCURVE"
"813 49 OFFCURVE"
"684 -24 OFFCURVE"
);
},
{
closed = 1;
nodes = (
"604 137 LINE" 
"706 137 OFFCURVE"
"846 244 OFFCURVE"
"918 434 OFFCURVE"
"918 558 CURVE"
"918 682 OFFCURVE"
"847 867 OFFCURVE"
"707 971 OFFCURVE"
"604 971 CURVE"
"498 971 OFFCURVE"
"357 861 OFFCURVE"
"287 674 OFFCURVE"
"287 558 CURVE"
"287 441 OFFCURVE"
"358 250 OFFCURVE"
"500 137 OFFCURVE"
);
},
);
},
);
}
{
unicode = "1D48";
layers = (
{
layerId = "master-text-regular";
width = 894;
paths = (
{
closed = 1;
nodes = (
"379 890 LINE" 
"296 890 OFFCURVE"
"162 961 OFFCURVE"
"84 1102 OFFCURVE"
"84 1206 CURVE"
"84 1316 OFFCURVE"
"165 1456 OFFCURVE"
"299 1523 OFFCURVE"
"378 1523 CURVE"
"477 1523 OFFCURVE"
"580 1441 OFFCURVE"
"598 1397 CURVE"
"605 1397 LINE" 
"605 1710 LINE" 
"777 1710 LINE" 
"777 898 LINE" 
"608 898 LINE" 
"608 1008 LINE" 
"597 1008 LINE" 
"576 962 OFFCURVE"
"471 890 OFFCURVE"
);
},
{
closed = 1;
nodes = (
"434 1022 LINE" 
"517 1022 OFFCURVE"
"607 1124 OFFCURVE"
"607 1206 CURVE"
"607 1290 OFFCURVE"
"517 1390 OFFCURVE"
"434 1390 CURVE"
"349 1390 OFFCURVE"
"261 1287 OFFCURVE"
"261 1206 CURVE"
"261 1125 OFFCURVE"
"350 1022 OFFCURVE"
);
},
);
},
);
}
{
unicode = "2020";
layers = (
{
layerId = "master-text-regular";
width = 1006;
paths = (
{
closed = 1;
nodes = (
"447 390 LINE" 
"414 813 LINE" 
"414 1490 LINE" 
"592 1490 LINE" 
"592 813 LINE" 
"559 390 LINE" 
);
},
{
closed = 1;
nodes = (
"114 1028 LINE" 
"114 1179 LINE" 
"892 1179 LINE" 
"892 1028 LINE" 
);
},
);
},
);
}
{
unicode = "2021";
layers = (
{
layerId = "master-text-regular";
width = 1006;
paths = (
{
closed = 1;
nodes = (
"447 0 LINE" 
"414 423 LINE" 
"414 1490 LINE" 
"592 1490 LINE" 
"592 423 LINE" 
"559 0 LINE" 
);
},
{
closed = 1;
nodes = (
"114 574 LINE" 
"114 725 LINE" 
"892 725 LINE" 
"892 574 LINE" 
);
},
{
closed = 1;
nodes = (
"114 1029 LINE" 
"114 1180 LINE" 
"892 1180 LINE" 
"892 1029 LINE" 
);
},
);
},
);
}
{
unicode = "00B0";
layers = (
{
layerId = "master-text-regular";
width = 933;
paths = (
{
closed = 1;
nodes = (
"468 829 LINE" 
"375 829 OFFCURVE"
"222 919 OFFCURVE"
"130 1072 OFFCURVE"
"130 1164 CURVE"
"130 1257 OFFCURVE"
"222 1411 OFFCURVE"
"375 1502 OFFCURVE"
"468 1502 CURVE"
"560 1502 OFFCURVE"
"712 1411 OFFCURVE"
"803 1257 OFFCURVE"
"803 1164 CURVE"
"803 1072 OFFCURVE"
"712 919 OFFCURVE"
"560 829 OFFCURVE"
);
},
{
closed = 1;
nodes = (
"468 979 LINE" 
"519 979 OFFCURVE"
"603 1029 OFFCURVE"
"653 1113 OFFCURVE"
"653 1164 CURVE"
"653 1216 OFFCURVE"
"603 1300 OFFCURVE"
"519 1351 OFFCURVE"
"468 1351 CURVE"
"416 1351 OFFCURVE"
"331 1300 OFFCURVE"
"281 1216 OFFCURVE"
"281 1164 CURVE"
"281 1113 OFFCURVE"
"331 1029 OFFCURVE"
"416 979 OFFCURVE"
);
},
);
},
);
}
{
unicode = "03B4";
layers = (
{
layerId = "master-text-regular";
width = 1196;
paths = (
{
closed = 1;
nodes = (
"598 -24 LINE" 
"451 -24 OFFCURVE"
"228 97 OFFCURVE"
"104 326 OFFCURVE"
"104 487 CURVE"
"104 650 OFFCURVE"
"228 874 OFFCURVE"
"451 991 OFFCURVE"
"598 991 CURVE"
"598 979 LINE" 
"514 996 OFFCURVE"
"386 1037 OFFCURVE"
"300 1094 OFFCURVE"
"256 1172 OFFCURVE"
"256 1225 CURVE"
"256 1313 OFFCURVE"
"377 1430 OFFCURVE"
"619 1490 OFFCURVE"
"798 1490 CURVE"
"952 1490 LINE" 
"952 1329 LINE" 
"758 1329 LINE" 
"646 1329 OFFCURVE"
"505 1303 OFFCURVE"
"438 1249 OFFCURVE"
"438 1206 CURVE"
"438 1177 OFFCURVE"
"469 1128 OFFCURVE"
"535 1084 OFFCURVE"
"643 1044 OFFCURVE"
"721 1023 CURVE"
"806 1001 OFFCURVE"
"943 907 OFFCURVE"
"1040 770 OFFCURVE"
"1092 594 OFFCURVE"
"1092 489 CURVE"
"1092 326 OFFCURVE"
"968 97 OFFCURVE"
"746 -24 OFFCURVE"
);
},
{
closed = 1;
nodes = (
"598 137 LINE" 
"696 137 OFFCURVE"
"835 214 OFFCURVE"
"909 370 OFFCURVE"
"909 487 CURVE"
"909 606 OFFCURVE"
"834 778 OFFCURVE"
"695 872 OFFCURVE"
"598 872 CURVE"
"501 872 OFFCURVE"
"361 779 OFFCURVE"
"286 606 OFFCURVE"
"286 487 CURVE"
"286 369 OFFCURVE"
"360 214 OFFCURVE"
"500 137 OFFCURVE"
);
},
);
},
);
}
{
unicode = "018D";
layers = (
{
layerId = "master-text-regular";
width = 1112;
paths = (
{
closed = 1;
nodes = (
"905 -376 LINE" 
"189 -376 LINE" 
"189 -215 LINE" 
"630 -215 LINE" 
"618 -198 OFFCURVE"
"549 -132 OFFCURVE"
"468 -58 OFFCURVE"
"435 -31 CURVE"
"273 106 OFFCURVE"
"70 381 OFFCURVE"
"70 550 CURVE"
"70 570 LINE" 
"70 736 OFFCURVE"
"185 989 OFFCURVE"
"402 1132 OFFCURVE"
"555 1132 CURVE"
"709 1132 OFFCURVE"
"928 990 OFFCURVE"
"1044 738 OFFCURVE"
"1044 573 CURVE"
"1044 553 LINE" 
"1044 431 OFFCURVE"
"937 228 OFFCURVE"
"739 95 OFFCURVE"
"602 77 CURVE"
"585 75 OFFCURVE"
"573 73 OFFCURVE"
"561 73 CURVE"
"604 34 OFFCURVE"
"696 -48 OFFCURVE"
"787 -130 OFFCURVE"
"870 -212 OFFCURVE"
"905 -253 CURVE"
);
},
{
closed = 1;
nodes = (
"837 550 LINE" 
"837 570 LINE" 
"837 683 OFFCURVE"
"779 862 OFFCURVE"
"655 966 OFFCURVE"
"555 966 CURVE"
"458 966 OFFCURVE"
"335 863 OFFCURVE"
"276 684 OFFCURVE"
"276 570 CURVE"
"276 550 LINE" 
"276 433 OFFCURVE"
"385 258 OFFCURVE"
"455 213 CURVE"
"474 206 OFFCURVE"
"514 201 OFFCURVE"
"540 201 CURVE"
"643 201 OFFCURVE"
"774 298 OFFCURVE"
"837 458 OFFCURVE"
);
},
);
},
);
}
{
unicode = "25C6";
layers = (
{
layerId = "master-text-regular";
width = 2152;
paths = (
{
closed = 1;
nodes = (
"2054 744 LINE" 
"1082 -232 LINE" 
"98 744 LINE" 
"1082 1722 LINE" 
);
},
);
},
);
}
{
unicode = "2756";
layers = (
{
layerId = "master-text-regular";
width = 2152;
paths = (
{
closed = 1;
nodes = (
"1506 1292 LINE" 
"1082 866 LINE" 
"652 1292 LINE" 
"1082 1722 LINE" 
);
},
{
closed = 1;
nodes = (
"2054 744 LINE" 
"1630 314 LINE" 
"1204 744 LINE" 
"1630 1170 LINE" 
);
},
{
closed = 1;
nodes = (
"960 744 LINE" 
"530 314 LINE" 
"98 744 LINE" 
"530 1170 LINE" 
);
},
{
closed = 1;
nodes = (
"1506 192 LINE" 
"1082 -232 LINE" 
"652 192 LINE" 
"1082 622 LINE" 
);
},
);
},
);
}
{
unicode = "25C7";
layers = (
{
layerId = "master-text-regular";
width = 2152;
paths = (
{
closed = 1;
nodes = (
"2054 744 LINE" 
"1082 -232 LINE" 
"98 744 LINE" 
"1082 1722 LINE" 
);
},
{
closed = 1;
nodes = (
"1820 744 LINE" 
"1082 1488 LINE" 
"334 744 LINE" 
"1082 2 LINE" 
);
},
);
},
);
}
{
unicode = "E000";
layers = (
{
layerId = "master-text-regular";
width = 2152;
paths = (
{
closed = 1;
nodes = (
"530 314 LINE" 
"98 744 LINE" 
"530 1170 LINE" 
"960 744 LINE" 
);
},
{
closed = 1;
nodes = (
"530 493 LINE" 
"781 744 LINE" 
"530 995 LINE" 
"279 744 LINE" 
);
},
{
closed = 1;
nodes = (
"1082 -232 LINE" 
"652 192 LINE" 
"1082 622 LINE" 
"1506 192 LINE" 
);
},
{
closed = 1;
nodes = (
"1082 -53 LINE" 
"1327 192 LINE" 
"1082 443 LINE" 
"831 192 LINE" 
);
},
{
closed = 1;
nodes = (
"1630 314 LINE" 
"1204 744 LINE" 
"1630 1170 LINE" 
"2054 744 LINE" 
);
},
{
closed = 1;
nodes = (
"1630 493 LINE" 
"1881 744 LINE" 
"1630 995 LINE" 
"1379 744 LINE" 
);
},
{
closed = 1;
nodes = (
"1082 866 LINE" 
"652 1292 LINE" 
"1082 1722 LINE" 
"1506 1292 LINE" 
);
},
{
closed = 1;
nodes = (
"1082 1047 LINE" 
"1327 1292 LINE" 
"1082 1543 LINE" 
"831 1292 LINE" 
);
},
);
},
);
}
{
unicode = "EE72";
layers = (
{
layerId = "master-text-regular";
width = 1629;
paths = (
{
closed = 1;
nodes = (
"1235 1301 LINE" 
"1186 1301 OFFCURVE"
"1116 1371 OFFCURVE"
"1116 1420 CURVE"
"1116 1469 OFFCURVE"
"1186 1538 OFFCURVE"
"1235 1538 CURVE"
"1284 1538 OFFCURVE"
"1353 1469 OFFCURVE"
"1353 1420 CURVE"
"1353 1371 OFFCURVE"
"1284 1301 OFFCURVE"
);
},
{
closed = 1;
nodes = (
"395 1301 LINE" 
"346 1301 OFFCURVE"
"276 1371 OFFCURVE"
"276 1420 CURVE"
"276 1469 OFFCURVE"
"346 1538 OFFCURVE"
"395 1538 CURVE"
"444 1538 OFFCURVE"
"513 1469 OFFCURVE"
"513 1420 CURVE"
"513 1371 OFFCURVE"
"444 1301 OFFCURVE"
);
},
{
closed = 1;
nodes = (
"815 1301 LINE" 
"766 1301 OFFCURVE"
"696 1371 OFFCURVE"
"696 1420 CURVE"
"696 1469 OFFCURVE"
"766 1538 OFFCURVE"
"815 1538 CURVE"
"864 1538 OFFCURVE"
"933 1469 OFFCURVE"
"933 1420 CURVE"
"933 1371 OFFCURVE"
"864 1301 OFFCURVE"
);
},
);
},
);
}
{
unicode = "E2C7";
layers = (
{
layerId = "master-text-regular";
width = 1630;
paths = (
{
closed = 1;
nodes = (
"297 1294 LINE" 
"297 1490 LINE" 
"493 1490 LINE" 
"493 1294 LINE" 
);
},
{
closed = 1;
nodes = (
"717 1294 LINE" 
"717 1490 LINE" 
"913 1490 LINE" 
"913 1294 LINE" 
);
},
{
closed = 1;
nodes = (
"1137 1294 LINE" 
"1137 1490 LINE" 
"1333 1490 LINE" 
"1333 1294 LINE" 
);
},
);
},
);
}
{
unicode = "E2CD";
layers = (
{
layerId = "master-text-regular";
width = 1200;
paths = (
{
closed = 1;
nodes = (
"292 1294 LINE" 
"292 1490 LINE" 
"488 1490 LINE" 
"488 1294 LINE" 
);
},
{
closed = 1;
nodes = (
"712 1294 LINE" 
"712 1490 LINE" 
"908 1490 LINE" 
"908 1294 LINE" 
);
},
{
closed = 1;
nodes = (
"527 1615 LINE" 
"667 1891 LINE" 
"868 1891 LINE" 
"674 1615 LINE" 
);
},
);
},
);
}
{
unicode = "E2CF";
layers = (
{
layerId = "master-text-regular";
width = 1200;
paths = (
{
closed = 1;
nodes = (
"463 1891 LINE" 
"607 1716 LINE" 
"749 1891 LINE" 
"928 1891 LINE" 
"928 1882 LINE" 
"692 1615 LINE" 
"521 1615 LINE" 
"286 1882 LINE" 
"286 1891 LINE" 
);
},
{
closed = 1;
nodes = (
"292 1294 LINE" 
"292 1490 LINE" 
"488 1490 LINE" 
"488 1294 LINE" 
);
},
{
closed = 1;
nodes = (
"712 1294 LINE" 
"712 1490 LINE" 
"908 1490 LINE" 
"908 1294 LINE" 
);
},
);
},
);
}
{
unicode = "E10E";
layers = (
{
layerId = "master-text-regular";
width = 1200;
paths = (
{
closed = 1;
nodes = (
"816 1273 LINE" 
"767 1273 OFFCURVE"
"697 1343 OFFCURVE"
"697 1392 CURVE"
"697 1441 OFFCURVE"
"767 1510 OFFCURVE"
"816 1510 CURVE"
"865 1510 OFFCURVE"
"934 1441 OFFCURVE"
"934 1392 CURVE"
"934 1343 OFFCURVE"
"865 1273 OFFCURVE"
);
},
{
closed = 1;
nodes = (
"395 1273 LINE" 
"346 1273 OFFCURVE"
"276 1343 OFFCURVE"
"276 1392 CURVE"
"276 1441 OFFCURVE"
"346 1510 OFFCURVE"
"395 1510 CURVE"
"444 1510 OFFCURVE"
"513 1441 OFFCURVE"
"513 1392 CURVE"
"513 1343 OFFCURVE"
"444 1273 OFFCURVE"
);
},
{
closed = 1;
nodes = (
"522 1615 LINE" 
"329 1891 LINE" 
"530 1891 LINE" 
"670 1615 LINE" 
);
},
);
},
);
}
{
unicode = "E2D1";
layers = (
{
layerId = "master-text-regular";
width = 1200;
paths = (
{
closed = 1;
nodes = (
"522 1615 LINE" 
"329 1891 LINE" 
"530 1891 LINE" 
"670 1615 LINE" 
);
},
{
closed = 1;
nodes = (
"292 1294 LINE" 
"292 1490 LINE" 
"488 1490 LINE" 
"488 1294 LINE" 
);
},
{
closed = 1;
nodes = (
"712 1294 LINE" 
"712 1490 LINE" 
"908 1490 LINE" 
"908 1294 LINE" 
);
},
);
},
);
}
{
unicode = "E2D3";
layers = (
{
layerId = "master-text-regular";
width = 1210;
paths = (
{
closed = 1;
nodes = (
"878 1781 LINE" 
"878 1653 LINE" 
"324 1653 LINE" 
"324 1781 LINE" 
);
},
{
closed = 1;
nodes = (
"292 1294 LINE" 
"292 1490 LINE" 
"488 1490 LINE" 
"488 1294 LINE" 
);
},
{
closed = 1;
nodes = (
"712 1294 LINE" 
"712 1490 LINE" 
"908 1490 LINE" 
"908 1294 LINE" 
);
},
);
},
);
}
{
unicode = "EE91";
layers = (
{
layerId = "master-text-regular";
width = 1106;
paths = (
{
closed = 1;
nodes = (
"717 1276 LINE" 
"669 1276 OFFCURVE"
"601 1344 OFFCURVE"
"601 1392 CURVE"
"601 1440 OFFCURVE"
"669 1508 OFFCURVE"
"717 1508 CURVE"
"765 1508 OFFCURVE"
"833 1440 OFFCURVE"
"833 1392 CURVE"
"833 1344 OFFCURVE"
"765 1276 OFFCURVE"
);
},
{
closed = 1;
nodes = (
"339 1276 LINE" 
"291 1276 OFFCURVE"
"223 1344 OFFCURVE"
"223 1392 CURVE"
"223 1440 OFFCURVE"
"291 1508 OFFCURVE"
"339 1508 CURVE"
"387 1508 OFFCURVE"
"455 1440 OFFCURVE"
"455 1392 CURVE"
"455 1344 OFFCURVE"
"387 1276 OFFCURVE"
);
},
{
closed = 1;
nodes = (
"461 1594 LINE" 
"495 1888 LINE" 
"688 1888 LINE" 
"586 1594 LINE" 
);
},
);
},
);
}
{
unicode = "E2BB";
layers = (
{
layerId = "master-text-regular";
width = 1366;
paths = (
{
closed = 1;
nodes = (
"297 1294 LINE" 
"297 1490 LINE" 
"493 1490 LINE" 
"493 1294 LINE" 
);
},
{
closed = 1;
nodes = (
"873 1294 LINE" 
"873 1490 LINE" 
"1069 1490 LINE" 
"1069 1294 LINE" 
);
},
{
closed = 1;
nodes = (
"614 1489 LINE" 
"648 1783 LINE" 
"841 1783 LINE" 
"739 1489 LINE" 
);
},
);
},
);
}
{
unicode = "00F7";
layers = (
{
layerId = "master-text-regular";
width = 1355;
paths = (
{
closed = 1;
nodes = (
"1147 668 LINE" 
"1147 498 LINE" 
"210 498 LINE" 
"210 668 LINE" 
);
},
{
closed = 1;
nodes = (
"677 72 LINE" 
"622 72 OFFCURVE"
"544 150 OFFCURVE"
"544 205 CURVE"
"544 259 OFFCURVE"
"622 336 OFFCURVE"
"677 336 CURVE"
"732 336 OFFCURVE"
"809 259 OFFCURVE"
"809 205 CURVE"
"809 150 OFFCURVE"
"732 72 OFFCURVE"
);
},
{
closed = 1;
nodes = (
"677 830 LINE" 
"622 830 OFFCURVE"
"544 907 OFFCURVE"
"544 963 CURVE"
"544 1017 OFFCURVE"
"622 1095 OFFCURVE"
"677 1095 CURVE"
"732 1095 OFFCURVE"
"809 1017 OFFCURVE"
"809 963 CURVE"
"809 907 OFFCURVE"
"732 830 OFFCURVE"
);
},
);
},
);
}
{
unicode = "2717";
layers = (
{
layerId = "master-text-regular";
width = 1815;
paths = (
{
closed = 1;
nodes = (
"519 173 LINE" 
"398 294 LINE" 
"1296 1188 LINE" 
"1417 1067 LINE" 
);
},
{
closed = 1;
nodes = (
"1296 173 LINE" 
"398 1067 LINE" 
"519 1188 LINE" 
"1416 294 LINE" 
);
},
);
},
);
}
{
unicode = "2713";
layers = (
{
layerId = "master-text-regular";
width = 1811;
paths = (
{
closed = 1;
nodes = (
"222 669 LINE" 
"339 789 LINE" 
"720 415 LINE" 
"1510 1201 LINE" 
"1631 1082 LINE" 
"720 173 LINE" 
);
},
);
},
);
}
{
unicode = "0024";
layers = (
{
layerId = "master-text-regular";
width = 1314;
paths = (
{
closed = 1;
nodes = (
"597 -218 LINE" 
"597 1708 LINE" 
"717 1708 LINE" 
"717 -218 LINE" 
);
},
{
closed = 1;
nodes = (
"657 -26 LINE" 
"496 -26 OFFCURVE"
"259 78 OFFCURVE"
"125 265 OFFCURVE"
"116 390 CURVE"
"311 390 LINE" 
"319 306 OFFCURVE"
"417 197 OFFCURVE"
"570 144 OFFCURVE"
"657 144 CURVE"
"758 144 OFFCURVE"
"919 210 OFFCURVE"
"1013 330 OFFCURVE"
"1013 409 CURVE"
"1013 481 OFFCURVE"
"932 571 OFFCURVE"
"798 629 OFFCURVE"
"718 651 CURVE"
"538 702 LINE" 
"358 753 OFFCURVE"
"158 943 OFFCURVE"
"158 1091 CURVE"
"158 1217 OFFCURVE"
"294 1406 OFFCURVE"
"526 1510 OFFCURVE"
"670 1510 CURVE"
"817 1510 OFFCURVE"
"1043 1406 OFFCURVE"
"1174 1227 OFFCURVE"
"1178 1114 CURVE"
"992 1114 LINE" 
"979 1223 OFFCURVE"
"797 1342 OFFCURVE"
"664 1342 CURVE"
"568 1342 OFFCURVE"
"423 1279 OFFCURVE"
"343 1170 OFFCURVE"
"343 1100 CURVE"
"343 1022 OFFCURVE"
"440 927 OFFCURVE"
"573 874 OFFCURVE"
"627 859 CURVE"
"776 818 LINE" 
"836 802 OFFCURVE"
"981 746 OFFCURVE"
"1113 653 OFFCURVE"
"1198 510 OFFCURVE"
"1198 406 CURVE"
"1198 284 OFFCURVE"
"1071 88 OFFCURVE"
"829 -26 OFFCURVE"
);
},
);
},
);
}
{
unicode = "0131";
layers = (
{
layerId = "master-text-regular";
width = 496;
paths = (
{
closed = 1;
nodes = (
"158 0 LINE" 
"158 1118 LINE" 
"338 1118 LINE" 
"338 0 LINE" 
);
},
);
},
);
}
{
unicode = "E10C";
layers = (
{
layerId = "master-text-regular";
width = 495;
paths = (
{
closed = 1;
nodes = (
"247 1273 LINE" 
"196 1273 OFFCURVE"
"122 1343 OFFCURVE"
"122 1392 CURVE"
"122 1442 OFFCURVE"
"196 1511 OFFCURVE"
"247 1511 CURVE"
"299 1511 OFFCURVE"
"373 1442 OFFCURVE"
"373 1392 CURVE"
"373 1343 OFFCURVE"
"299 1273 OFFCURVE"
);
},
{
closed = 1;
nodes = (
"522 1781 LINE" 
"522 1653 LINE" 
"-32 1653 LINE" 
"-32 1781 LINE" 
);
},
);
},
);
}
{
unicode = "02A4";
layers = (
{
layerId = "master-text-regular";
width = 2052;
paths = (
{
closed = 1;
nodes = (
"1112 -96 LINE" 
"1132 -154 OFFCURVE"
"1221 -233 OFFCURVE"
"1349 -274 OFFCURVE"
"1424 -274 CURVE"
"1517 -274 OFFCURVE"
"1665 -212 OFFCURVE"
"1752 -88 OFFCURVE"
"1752 4 CURVE"
"1752 85 OFFCURVE"
"1676 224 OFFCURVE"
"1508 310 OFFCURVE"
"1370 310 CURVE"
"1252 310 LINE" 
"1252 456 LINE" 
"1632 947 LINE" 
"1632 959 LINE" 
"990 959 LINE" 
"990 1119 LINE" 
"1872 1119 LINE" 
"1872 987 LINE" 
"1460 462 LINE" 
"1460 450 LINE" 
"1594 444 OFFCURVE"
"1806 326 OFFCURVE"
"1930 129 OFFCURVE"
"1930 4 CURVE"
"1930 -123 OFFCURVE"
"1800 -321 OFFCURVE"
"1570 -434 OFFCURVE"
"1420 -434 CURVE"
"1298 -434 OFFCURVE"
"1088 -355 OFFCURVE"
"945 -203 OFFCURVE"
"923 -96 CURVE"
);
},
{
closed = 1;
nodes = (
"577 -24 LINE" 
"438 -24 OFFCURVE"
"224 118 OFFCURVE"
"104 378 OFFCURVE"
"104 556 CURVE"
"104 733 OFFCURVE"
"225 992 OFFCURVE"
"439 1132 OFFCURVE"
"578 1132 CURVE"
"687 1132 OFFCURVE"
"815 1060 OFFCURVE"
"884 969 OFFCURVE"
"902 939 CURVE"
"916 939 LINE" 
"916 1490 LINE" 
"1096 1490 LINE" 
"1096 0 LINE" 
"922 0 LINE" 
"922 173 LINE" 
"902 173 LINE" 
"884 142 OFFCURVE"
"813 49 OFFCURVE"
"684 -24 OFFCURVE"
);
},
{
closed = 1;
nodes = (
"604 137 LINE" 
"706 137 OFFCURVE"
"846 244 OFFCURVE"
"918 434 OFFCURVE"
"918 558 CURVE"
"918 682 OFFCURVE"
"847 867 OFFCURVE"
"707 971 OFFCURVE"
"604 971 CURVE"
"498 971 OFFCURVE"
"357 861 OFFCURVE"
"287 674 OFFCURVE"
"287 558 CURVE"
"287 441 OFFCURVE"
"358 250 OFFCURVE"
"500 137 OFFCURVE"
);
},
);
},
);
}
{
unicode = "0065";
layers = (
{
layerId = "master-text-regular";
width = 1194;
paths = (
{
closed = 1;
nodes = (
"628 -24 LINE" 
"466 -24 OFFCURVE"
"231 120 OFFCURVE"
"104 378 OFFCURVE"
"104 550 CURVE"
"104 722 OFFCURVE"
"228 984 OFFCURVE"
"455 1132 OFFCURVE"
"607 1132 CURVE"
"696 1132 OFFCURVE"
"869 1073 OFFCURVE"
"1010 942 OFFCURVE"
"1094 728 OFFCURVE"
"1094 573 CURVE"
"1094 498 LINE" 
"226 498 LINE" 
"226 650 LINE" 
"997 650 LINE" 
"913 594 LINE" 
"913 704 OFFCURVE"
"844 875 OFFCURVE"
"708 972 OFFCURVE"
"607 972 CURVE"
"506 972 OFFCURVE"
"362 873 OFFCURVE"
"286 714 OFFCURVE"
"286 623 CURVE"
"286 522 LINE" 
"286 398 OFFCURVE"
"372 225 OFFCURVE"
"527 136 OFFCURVE"
"629 136 CURVE"
"695 136 OFFCURVE"
"803 174 OFFCURVE"
"881 251 OFFCURVE"
"902 308 CURVE"
"1076 260 LINE" 
"1050 176 OFFCURVE"
"926 48 OFFCURVE"
"743 -24 OFFCURVE"
);
},
);
},
);
}
{
unicode = "1D49";
layers = (
{
layerId = "master-text-regular";
width = 854;
paths = (
{
closed = 1;
nodes = (
"445 887 LINE" 
"333 887 OFFCURVE"
"171 963 OFFCURVE"
"84 1106 OFFCURVE"
"84 1205 CURVE"
"84 1300 OFFCURVE"
"171 1443 OFFCURVE"
"328 1523 OFFCURVE"
"434 1523 CURVE"
"529 1523 OFFCURVE"
"683 1452 OFFCURVE"
"774 1312 OFFCURVE"
"774 1210 CURVE"
"774 1167 LINE" 
"154 1167 LINE" 
"154 1266 LINE" 
"691 1266 LINE" 
"610 1241 LINE" 
"610 1313 OFFCURVE"
"519 1400 OFFCURVE"
"435 1400 CURVE"
"379 1400 OFFCURVE"
"298 1360 OFFCURVE"
"254 1290 OFFCURVE"
"254 1244 CURVE"
"254 1175 LINE" 
"254 1096 OFFCURVE"
"360 1011 OFFCURVE"
"448 1011 CURVE"
"508 1011 OFFCURVE"
"588 1049 OFFCURVE"
"605 1079 CURVE"
"757 1045 LINE" 
"729 976 OFFCURVE"
"573 887 OFFCURVE"
);
},
);
},
);
}
{
unicode = "0038";
layers = (
{
layerId = "master-text-regular";
width = 1267;
paths = (
{
closed = 1;
nodes = (
"633 -20 LINE" 
"482 -20 OFFCURVE"
"251 87 OFFCURVE"
"122 275 OFFCURVE"
"122 396 CURVE"
"122 490 OFFCURVE"
"198 651 OFFCURVE"
"330 759 OFFCURVE"
"413 774 CURVE"
"413 782 LINE" 
"304 810 OFFCURVE"
"176 996 OFFCURVE"
"176 1114 CURVE"
"176 1228 OFFCURVE"
"294 1407 OFFCURVE"
"500 1510 OFFCURVE"
"633 1510 CURVE"
"764 1510 OFFCURVE"
"970 1407 OFFCURVE"
"1089 1228 OFFCURVE"
"1089 1114 CURVE"
"1089 996 OFFCURVE"
"960 810 OFFCURVE"
"854 782 CURVE"
"854 774 LINE" 
"935 759 OFFCURVE"
"1067 651 OFFCURVE"
"1145 490 OFFCURVE"
"1145 396 CURVE"
"1145 275 OFFCURVE"
"1014 87 OFFCURVE"
"783 -20 OFFCURVE"
);
},
{
closed = 1;
nodes = (
"633 145 LINE" 
"732 145 OFFCURVE"
"876 210 OFFCURVE"
"955 327 OFFCURVE"
"955 406 CURVE"
"955 489 OFFCURVE"
"871 616 OFFCURVE"
"725 689 OFFCURVE"
"633 689 CURVE"
"539 689 OFFCURVE"
"393 616 OFFCURVE"
"309 489 OFFCURVE"
"309 406 CURVE"
"309 327 OFFCURVE"
"387 210 OFFCURVE"
"533 145 OFFCURVE"
);
},
{
closed = 1;
nodes = (
"633 848 LINE" 
"712 848 OFFCURVE"
"834 911 OFFCURVE"
"905 1025 OFFCURVE"
"905 1100 CURVE"
"905 1175 OFFCURVE"
"837 1285 OFFCURVE"
"714 1346 OFFCURVE"
"633 1346 CURVE"
"551 1346 OFFCURVE"
"428 1285 OFFCURVE"
"360 1175 OFFCURVE"
"360 1100 CURVE"
"360 1025 OFFCURVE"
"429 911 OFFCURVE"
"553 848 OFFCURVE"
);
},
);
},
);
}
{
unicode = "E0BC";
layers = (
{
layerId = "master-text-regular";
width = 773;
paths = (
{
closed = 1;
nodes = (
"386 -9 LINE" 
"294 -9 OFFCURVE"
"155 50 OFFCURVE"
"78 153 OFFCURVE"
"78 219 CURVE"
"78 268 OFFCURVE"
"118 352 OFFCURVE"
"189 410 OFFCURVE"
"233 419 CURVE"
"233 428 LINE" 
"175 443 OFFCURVE"
"108 544 OFFCURVE"
"108 604 CURVE"
"108 667 OFFCURVE"
"180 765 OFFCURVE"
"305 821 OFFCURVE"
"386 821 CURVE"
"466 821 OFFCURVE"
"592 764 OFFCURVE"
"664 666 OFFCURVE"
"664 604 CURVE"
"664 543 OFFCURVE"
"596 443 OFFCURVE"
"540 428 CURVE"
"540 419 LINE" 
"582 411 OFFCURVE"
"652 353 OFFCURVE"
"695 269 OFFCURVE"
"695 219 CURVE"
"695 153 OFFCURVE"
"616 50 OFFCURVE"
"477 -9 OFFCURVE"
);
},
{
closed = 1;
nodes = (
"386 116 LINE" 
"454 116 OFFCURVE"
"529 178 OFFCURVE"
"529 230 CURVE"
"529 286 OFFCURVE"
"447 355 OFFCURVE"
"386 355 CURVE"
"323 355 OFFCURVE"
"242 286 OFFCURVE"
"242 230 CURVE"
"242 178 OFFCURVE"
"316 116 OFFCURVE"
);
},
{
closed = 1;
nodes = (
"386 478 LINE" 
"438 478 OFFCURVE"
"507 537 OFFCURVE"
"507 587 CURVE"
"507 637 OFFCURVE"
"441 694 OFFCURVE"
"386 694 CURVE"
"330 694 OFFCURVE"
"265 637 OFFCURVE"
"265 587 CURVE"
"265 537 OFFCURVE"
"332 478 OFFCURVE"
);
},
);
},
);
}
{
unicode = "2078";
layers = (
{
layerId = "master-text-regular";
width = 922;
paths = (
{
closed = 1;
nodes = (
"461 888 LINE" 
"356 888 OFFCURVE"
"189 949 OFFCURVE"
"93 1052 OFFCURVE"
"93 1116 CURVE"
"93 1164 OFFCURVE"
"147 1248 OFFCURVE"
"241 1306 OFFCURVE"
"299 1315 CURVE"
"299 1322 LINE" 
"226 1336 OFFCURVE"
"129 1438 OFFCURVE"
"129 1504 CURVE"
"129 1566 OFFCURVE"
"216 1663 OFFCURVE"
"367 1720 OFFCURVE"
"461 1720 CURVE"
"555 1720 OFFCURVE"
"705 1663 OFFCURVE"
"793 1565 OFFCURVE"
"793 1504 CURVE"
"793 1438 OFFCURVE"
"696 1336 OFFCURVE"
"623 1322 CURVE"
"623 1315 LINE" 
"679 1307 OFFCURVE"
"772 1249 OFFCURVE"
"829 1165 OFFCURVE"
"829 1116 CURVE"
"829 1052 OFFCURVE"
"732 949 OFFCURVE"
"566 888 OFFCURVE"
);
},
{
closed = 1;
nodes = (
"461 1010 LINE" 
"542 1010 OFFCURVE"
"647 1079 OFFCURVE"
"647 1131 CURVE"
"647 1183 OFFCURVE"
"540 1251 OFFCURVE"
"461 1251 CURVE"
"382 1251 OFFCURVE"
"275 1183 OFFCURVE"
"275 1131 CURVE"
"275 1079 OFFCURVE"
"379 1010 OFFCURVE"
);
},
{
closed = 1;
nodes = (
"461 1372 LINE" 
"529 1372 OFFCURVE"
"623 1436 OFFCURVE"
"623 1483 CURVE"
"623 1530 OFFCURVE"
"530 1592 OFFCURVE"
"461 1592 CURVE"
"392 1592 OFFCURVE"
"299 1531 OFFCURVE"
"299 1483 CURVE"
"299 1437 OFFCURVE"
"392 1372 OFFCURVE"
);
},
);
},
);
}
{
unicode = "2014";
layers = (
{
layerId = "master-text-regular";
width = 2048;
paths = (
{
closed = 1;
nodes = (
"2048 719 LINE" 
"2048 553 LINE" 
"0 553 LINE" 
"0 719 LINE" 
);
},
);
},
);
}
{
unicode = "2205";
layers = (
{
layerId = "master-text-regular";
width = 1402;
paths = (
{
closed = 1;
nodes = (
"172 -50 LINE" 
"94 30 LINE" 
"1230 1166 LINE" 
"1310 1090 LINE" 
);
},
{
closed = 1;
nodes = (
"704 -18 LINE" 
"584 -18 OFFCURVE"
"375 72 OFFCURVE"
"217 230 OFFCURVE"
"128 439 OFFCURVE"
"128 558 CURVE"
"128 677 OFFCURVE"
"217 884 OFFCURVE"
"375 1043 OFFCURVE"
"584 1132 OFFCURVE"
"704 1132 CURVE"
"822 1132 OFFCURVE"
"1029 1043 OFFCURVE"
"1188 884 OFFCURVE"
"1278 677 OFFCURVE"
"1278 558 CURVE"
"1278 439 OFFCURVE"
"1188 230 OFFCURVE"
"1029 72 OFFCURVE"
"822 -18 OFFCURVE"
);
},
{
closed = 1;
nodes = (
"704 166 LINE" 
"811 166 OFFCURVE"
"988 272 OFFCURVE"
"1094 450 OFFCURVE"
"1094 558 CURVE"
"1094 666 OFFCURVE"
"988 844 OFFCURVE"
"811 950 OFFCURVE"
"704 950 CURVE"
"622 950 OFFCURVE"
"478 889 OFFCURVE"
"371 781 OFFCURVE"
"310 639 OFFCURVE"
"310 558 CURVE"
"310 450 OFFCURVE"
"415 272 OFFCURVE"
"594 166 OFFCURVE"
);
},
);
},
);
}
{
unicode = "2013";
layers = (
{
layerId = "master-text-regular";
width = 1024;
paths = (
{
closed = 1;
nodes = (
"1024 719 LINE" 
"1024 553 LINE" 
"0 553 LINE" 
"0 719 LINE" 
);
},
);
},
);
}
{
unicode = "014B";
layers = (
{
layerId = "master-text-regular";
width = 1210;
paths = (
{
closed = 1;
nodes = (
"658 -418 LINE" 
"658 -259 LINE" 
"675 -262 OFFCURVE"
"716 -264 OFFCURVE"
"726 -264 CURVE"
"810 -264 OFFCURVE"
"872 -215 OFFCURVE"
"872 -163 CURVE"
"872 0 LINE" 
"1053 0 LINE" 
"1053 -171 LINE" 
"1053 -295 OFFCURVE"
"905 -427 OFFCURVE"
"762 -427 CURVE"
"730 -427 OFFCURVE"
"673 -422 OFFCURVE"
);
},
{
closed = 1;
nodes = (
"338 670 LINE" 
"338 0 LINE" 
"158 0 LINE" 
"158 1118 LINE" 
"331 1118 LINE" 
"332 847 LINE" 
"307 847 LINE" 
"358 1002 OFFCURVE"
"547 1132 OFFCURVE"
"674 1132 CURVE"
"787 1132 OFFCURVE"
"957 1039 OFFCURVE"
"1052 852 OFFCURVE"
"1052 710 CURVE"
"1052 0 LINE" 
"872 0 LINE" 
"872 695 LINE" 
"872 824 OFFCURVE"
"737 970 OFFCURVE"
"620 970 CURVE"
"540 970 OFFCURVE"
"412 900 OFFCURVE"
"338 766 OFFCURVE"
);
},
);
},
);
}
{
unicode = "03B5";
layers = (
{
layerId = "master-text-regular";
width = 1100;
paths = (
{
closed = 1;
nodes = (
"564 -20 LINE" 
"434 -20 OFFCURVE"
"227 60 OFFCURVE"
"108 205 OFFCURVE"
"108 302 CURVE"
"108 348 OFFCURVE"
"144 446 OFFCURVE"
"235 530 OFFCURVE"
"400 582 OFFCURVE"
"529 582 CURVE"
"685 582 LINE" 
"685 498 LINE" 
"551 498 LINE" 
"473 498 OFFCURVE"
"360 449 OFFCURVE"
"298 366 OFFCURVE"
"298 314 CURVE"
"298 237 OFFCURVE"
"447 141 OFFCURVE"
"572 141 CURVE"
"652 141 OFFCURVE"
"751 183 OFFCURVE"
"806 266 OFFCURVE"
"821 327 CURVE"
"998 287 LINE" 
"977 193 OFFCURVE"
"868 55 OFFCURVE"
"690 -20 OFFCURVE"
);
},
{
closed = 1;
nodes = (
"529 536 LINE" 
"403 536 OFFCURVE"
"245 584 OFFCURVE"
"161 663 OFFCURVE"
"130 758 OFFCURVE"
"130 803 CURVE"
"130 907 OFFCURVE"
"239 1054 OFFCURVE"
"434 1132 OFFCURVE"
"561 1132 CURVE"
"679 1132 OFFCURVE"
"847 1066 OFFCURVE"
"953 942 OFFCURVE"
"978 853 CURVE"
"806 806 LINE" 
"783 884 OFFCURVE"
"667 973 OFFCURVE"
"560 973 CURVE"
"448 973 OFFCURVE"
"313 877 OFFCURVE"
"313 800 CURVE"
"313 733 OFFCURVE"
"432 649 OFFCURVE"
"551 649 CURVE"
"685 649 LINE" 
"685 536 LINE" 
);
},
);
},
);
}
{
unicode = "025C";
layers = (
{
layerId = "master-text-regular";
width = 1100;
paths = (
{
closed = 1;
nodes = (
"536 -20 LINE" 
"411 -20 OFFCURVE"
"232 55 OFFCURVE"
"124 193 OFFCURVE"
"102 287 CURVE"
"279 327 LINE" 
"294 266 OFFCURVE"
"349 183 OFFCURVE"
"448 141 OFFCURVE"
"528 141 CURVE"
"653 141 OFFCURVE"
"802 237 OFFCURVE"
"802 314 CURVE"
"802 366 OFFCURVE"
"741 449 OFFCURVE"
"627 498 OFFCURVE"
"549 498 CURVE"
"415 498 LINE" 
"415 582 LINE" 
"571 582 LINE" 
"700 582 OFFCURVE"
"865 530 OFFCURVE"
"956 446 OFFCURVE"
"992 348 OFFCURVE"
"992 302 CURVE"
"992 205 OFFCURVE"
"873 60 OFFCURVE"
"667 -20 OFFCURVE"
);
},
{
closed = 1;
nodes = (
"571 536 LINE" 
"415 536 LINE" 
"415 649 LINE" 
"549 649 LINE" 
"668 649 OFFCURVE"
"787 733 OFFCURVE"
"787 800 CURVE"
"787 877 OFFCURVE"
"653 973 OFFCURVE"
"540 973 CURVE"
"433 973 OFFCURVE"
"317 884 OFFCURVE"
"294 806 CURVE"
"122 853 LINE" 
"147 942 OFFCURVE"
"253 1066 OFFCURVE"
"422 1132 OFFCURVE"
"539 1132 CURVE"
"667 1132 OFFCURVE"
"861 1054 OFFCURVE"
"970 907 OFFCURVE"
"970 803 CURVE"
"970 758 OFFCURVE"
"939 663 OFFCURVE"
"855 584 OFFCURVE"
"697 536 OFFCURVE"
);
},
);
},
);
}
{
unicode = "025E";
layers = (
{
layerId = "master-text-regular";
width = 1158;
paths = (
{
closed = 1;
nodes = (
"594 -20 LINE" 
"428 -20 OFFCURVE"
"210 122 OFFCURVE"
"104 389 OFFCURVE"
"104 575 CURVE"
"283 575 LINE" 
"283 440 OFFCURVE"
"346 246 OFFCURVE"
"484 141 OFFCURVE"
"594 141 CURVE"
"716 141 OFFCURVE"
"860 237 OFFCURVE"
"860 314 CURVE"
"860 391 OFFCURVE"
"724 498 OFFCURVE"
"607 498 CURVE"
"478 498 LINE" 
"478 582 LINE" 
"629 582 LINE" 
"758 582 OFFCURVE"
"923 530 OFFCURVE"
"1014 446 OFFCURVE"
"1050 348 OFFCURVE"
"1050 302 CURVE"
"1050 205 OFFCURVE"
"931 60 OFFCURVE"
"725 -20 OFFCURVE"
);
},
{
closed = 1;
nodes = (
"629 536 LINE" 
"478 536 LINE" 
"478 649 LINE" 
"607 649 LINE" 
"726 649 OFFCURVE"
"845 733 OFFCURVE"
"845 800 CURVE"
"845 877 OFFCURVE"
"714 973 OFFCURVE"
"605 973 CURVE"
"487 973 OFFCURVE"
"346 872 OFFCURVE"
"284 692 OFFCURVE"
"283 575 CURVE"
"104 575 LINE" 
"104 705 OFFCURVE"
"164 911 OFFCURVE"
"287 1056 OFFCURVE"
"472 1132 OFFCURVE"
"598 1132 CURVE"
"725 1132 OFFCURVE"
"919 1054 OFFCURVE"
"1028 907 OFFCURVE"
"1028 803 CURVE"
"1028 758 OFFCURVE"
"997 663 OFFCURVE"
"913 584 OFFCURVE"
"755 536 OFFCURVE"
);
},
);
},
);
}
{
unicode = "029A";
layers = (
{
layerId = "master-text-regular";
width = 1158;
paths = (
{
closed = 1;
nodes = (
"564 -20 LINE" 
"434 -20 OFFCURVE"
"227 60 OFFCURVE"
"108 205 OFFCURVE"
"108 302 CURVE"
"108 348 OFFCURVE"
"144 446 OFFCURVE"
"235 530 OFFCURVE"
"400 582 OFFCURVE"
"529 582 CURVE"
"680 582 LINE" 
"680 498 LINE" 
"551 498 LINE" 
"434 498 OFFCURVE"
"298 391 OFFCURVE"
"298 314 CURVE"
"298 237 OFFCURVE"
"443 141 OFFCURVE"
"564 141 CURVE"
"675 141 OFFCURVE"
"812 246 OFFCURVE"
"875 440 OFFCURVE"
"875 575 CURVE"
"1054 575 LINE" 
"1055 389 OFFCURVE"
"948 122 OFFCURVE"
"731 -20 OFFCURVE"
);
},
{
closed = 1;
nodes = (
"529 536 LINE" 
"403 536 OFFCURVE"
"245 584 OFFCURVE"
"161 663 OFFCURVE"
"130 758 OFFCURVE"
"130 803 CURVE"
"130 907 OFFCURVE"
"239 1054 OFFCURVE"
"433 1132 OFFCURVE"
"560 1132 CURVE"
"686 1132 OFFCURVE"
"871 1056 OFFCURVE"
"994 911 OFFCURVE"
"1054 705 OFFCURVE"
"1054 575 CURVE"
"875 575 LINE" 
"875 692 OFFCURVE"
"812 872 OFFCURVE"
"671 973 OFFCURVE"
"553 973 CURVE"
"444 973 OFFCURVE"
"313 877 OFFCURVE"
"313 800 CURVE"
"313 733 OFFCURVE"
"432 649 OFFCURVE"
"551 649 CURVE"
"680 649 LINE" 
"680 536 LINE" 
);
},
);
},
);
}
{
unicode = "003D";
layers = (
{
layerId = "master-text-regular";
width = 1355;
paths = (
{
closed = 1;
nodes = (
"226 717 LINE" 
"226 883 LINE" 
"1130 883 LINE" 
"1130 717 LINE" 
);
},
{
closed = 1;
nodes = (
"226 283 LINE" 
"226 449 LINE" 
"1130 449 LINE" 
"1130 283 LINE" 
);
},
);
},
);
}
{
unicode = "E0CA";
layers = (
{
layerId = "master-text-regular";
width = 794;
paths = (
{
closed = 1;
nodes = (
"134 466 LINE" 
"134 593 LINE" 
"660 593 LINE" 
"660 466 LINE" 
);
},
{
closed = 1;
nodes = (
"134 206 LINE" 
"134 334 LINE" 
"660 334 LINE" 
"660 206 LINE" 
);
},
);
},
);
}
{
unicode = "207C";
layers = (
{
layerId = "master-text-regular";
width = 878;
paths = (
{
closed = 1;
nodes = (
"150 1328 LINE" 
"150 1468 LINE" 
"728 1468 LINE" 
"728 1328 LINE" 
);
},
{
closed = 1;
nodes = (
"150 1064 LINE" 
"150 1204 LINE" 
"728 1204 LINE" 
"728 1064 LINE" 
);
},
);
},
);
}
{
unicode = "0258";
layers = (
{
layerId = "master-text-regular";
width = 1113;
paths = (
{
closed = 1;
nodes = (
"517 -20 LINE" 
"383 -20 OFFCURVE"
"173 88 OFFCURVE"
"103 191 CURVE"
"227 290 LINE" 
"283 216 OFFCURVE"
"431 146 OFFCURVE"
"511 146 CURVE"
"654 146 OFFCURVE"
"813 349 OFFCURVE"
"813 518 CURVE"
"813 558 LINE" 
"813 652 OFFCURVE"
"779 803 OFFCURVE"
"711 909 OFFCURVE"
"611 966 OFFCURVE"
"545 966 CURVE"
"439 966 OFFCURVE"
"308 816 OFFCURVE"
"297 670 CURVE"
"297 654 LINE" 
"902 654 LINE" 
"902 491 LINE" 
"90 491 LINE" 
"90 582 LINE" 
"90 840 OFFCURVE"
"326 1132 OFFCURVE"
"534 1132 CURVE"
"681 1132 OFFCURVE"
"901 988 OFFCURVE"
"1023 730 OFFCURVE"
"1023 558 CURVE"
"1023 518 LINE" 
"1023 356 OFFCURVE"
"898 114 OFFCURVE"
"671 -20 OFFCURVE"
);
},
);
},
);
}
{
unicode = "01AA";
layers = (
{
layerId = "master-text-regular";
width = 1120;
paths = (
{
closed = 1;
nodes = (
"598 1123 LINE" 
"806 1213 LINE" 
"806 -67 LINE" 
"806 -167 OFFCURVE"
"875 -249 OFFCURVE"
"940 -249 CURVE"
"971 -249 OFFCURVE"
"1006 -239 CURVE"
"1006 -403 LINE" 
"984 -411 OFFCURVE"
"915 -419 OFFCURVE"
"887 -419 CURVE"
"743 -419 OFFCURVE"
"598 -239 OFFCURVE"
"598 -67 CURVE"
);
},
{
closed = 1;
nodes = (
"114 1213 LINE" 
"114 1309 OFFCURVE"
"207 1466 OFFCURVE"
"364 1558 OFFCURVE"
"460 1558 CURVE"
"555 1558 OFFCURVE"
"712 1466 OFFCURVE"
"806 1309 OFFCURVE"
"806 1213 CURVE"
"806 1119 OFFCURVE"
"712 962 OFFCURVE"
"555 867 OFFCURVE"
"460 867 CURVE"
"364 867 OFFCURVE"
"207 961 OFFCURVE"
"114 1119 OFFCURVE"
);
},
{
closed = 1;
nodes = (
"460 1057 LINE" 
"522 1057 OFFCURVE"
"611 1136 OFFCURVE"
"611 1217 CURVE"
"611 1295 OFFCURVE"
"522 1376 OFFCURVE"
"460 1376 CURVE"
"395 1376 OFFCURVE"
"306 1295 OFFCURVE"
"306 1217 CURVE"
"306 1136 OFFCURVE"
"395 1057 OFFCURVE"
);
},
);
},
);
}
{
unicode = "212E";
layers = (
{
layerId = "master-text-regular";
width = 1294;
paths = (
{
closed = 1;
nodes = (
"1032 198 LINE" 
"1032 94 LINE" 
"951 42 OFFCURVE"
"762 -20 OFFCURVE"
"661 -20 CURVE"
"552 -20 OFFCURVE"
"361 68 OFFCURVE"
"217 223 OFFCURVE"
"136 426 OFFCURVE"
"136 542 CURVE"
"136 657 OFFCURVE"
"225 860 OFFCURVE"
"376 1014 OFFCURVE"
"563 1102 OFFCURVE"
"661 1102 CURVE"
"798 1102 OFFCURVE"
"1023 962 OFFCURVE"
"1156 718 OFFCURVE"
"1156 562 CURVE"
"1156 560 OFFCURVE"
"1156 541 OFFCURVE"
"1156 514 CURVE"
"387 514 LINE" 
"387 186 LINE" 
"442 137 OFFCURVE"
"582 76 OFFCURVE"
"661 76 CURVE"
"753 76 OFFCURVE"
"941 133 OFFCURVE"
);
},
{
closed = 1;
nodes = (
"661 1010 LINE" 
"587 1009 OFFCURVE"
"445 942 OFFCURVE"
"387 888 CURVE"
"387 608 LINE" 
"930 608 LINE" 
"930 896 LINE" 
"878 949 OFFCURVE"
"738 1009 OFFCURVE"
);
},
);
},
);
}
{
unicode = "03B7";
layers = (
{
layerId = "master-text-regular";
width = 1211;
paths = (
{
closed = 1;
nodes = (
"338 670 LINE" 
"338 0 LINE" 
"158 0 LINE" 
"158 1118 LINE" 
"331 1118 LINE" 
"332 847 LINE" 
"307 847 LINE" 
"358 1002 OFFCURVE"
"547 1132 OFFCURVE"
"674 1132 CURVE"
"787 1132 OFFCURVE"
"958 1039 OFFCURVE"
"1053 852 OFFCURVE"
"1053 710 CURVE"
"1053 -418 LINE" 
"872 -418 LINE" 
"872 695 LINE" 
"872 824 OFFCURVE"
"737 970 OFFCURVE"
"620 970 CURVE"
"540 970 OFFCURVE"
"412 900 OFFCURVE"
"338 766 OFFCURVE"
);
},
);
},
);
}
{
unicode = "00F0";
layers = (
{
layerId = "master-text-regular";
width = 1193;
paths = (
{
closed = 1;
nodes = (
"967 1415 LINE" 
"364 1123 LINE" 
"317 1233 LINE" 
"919 1525 LINE" 
);
},
{
closed = 1;
nodes = (
"597 -24 LINE" 
"447 -24 OFFCURVE"
"225 114 OFFCURVE"
"104 356 OFFCURVE"
"104 512 CURVE"
"104 670 OFFCURVE"
"224 911 OFFCURVE"
"427 1047 OFFCURVE"
"551 1047 CURVE"
"635 1047 OFFCURVE"
"760 989 OFFCURVE"
"846 904 OFFCURVE"
"870 861 CURVE"
"886 861 LINE" 
"853 953 OFFCURVE"
"721 1163 OFFCURVE"
"498 1370 OFFCURVE"
"328 1456 CURVE"
"401 1581 LINE" 
"526 1520 OFFCURVE"
"770 1326 OFFCURVE"
"970 1065 OFFCURVE"
"1089 740 OFFCURVE"
"1089 548 CURVE"
"1089 368 OFFCURVE"
"966 112 OFFCURVE"
"745 -24 OFFCURVE"
);
},
{
closed = 1;
nodes = (
"598 136 LINE" 
"702 136 OFFCURVE"
"842 234 OFFCURVE"
"914 400 OFFCURVE"
"914 502 CURVE"
"914 596 OFFCURVE"
"849 778 OFFCURVE"
"710 899 OFFCURVE"
"598 899 CURVE"
"493 899 OFFCURVE"
"354 792 OFFCURVE"
"285 616 OFFCURVE"
"285 513 CURVE"
"285 415 OFFCURVE"
"349 243 OFFCURVE"
"488 136 OFFCURVE"
);
},
);
},
);
}
{
unicode = "01DD";
layers = (
{
layerId = "master-text-regular";
width = 1194;
paths = (
{
closed = 1;
nodes = (
"566 1142 LINE" 
"728 1142 OFFCURVE"
"963 998 OFFCURVE"
"1090 740 OFFCURVE"
"1090 568 CURVE"
"1090 397 OFFCURVE"
"966 134 OFFCURVE"
"740 -14 OFFCURVE"
"587 -14 CURVE"
"498 -14 OFFCURVE"
"325 45 OFFCURVE"
"184 176 OFFCURVE"
"100 390 OFFCURVE"
"100 545 CURVE"
"100 620 LINE" 
"968 620 LINE" 
"968 468 LINE" 
"197 468 LINE" 
"281 524 LINE" 
"281 414 OFFCURVE"
"350 243 OFFCURVE"
"486 146 OFFCURVE"
"587 146 CURVE"
"688 146 OFFCURVE"
"832 245 OFFCURVE"
"908 404 OFFCURVE"
"908 495 CURVE"
"908 596 LINE" 
"908 721 OFFCURVE"
"822 893 OFFCURVE"
"668 982 OFFCURVE"
"565 982 CURVE"
"499 982 OFFCURVE"
"391 944 OFFCURVE"
"313 867 OFFCURVE"
"292 810 CURVE"
"118 858 LINE" 
"144 943 OFFCURVE"
"268 1070 OFFCURVE"
"452 1142 OFFCURVE"
);
},
);
},
);
}
{
unicode = "0021";
layers = (
{
layerId = "master-text-regular";
width = 589;
paths = (
{
closed = 1;
nodes = (
"204 479 LINE" 
"192 1490 LINE" 
"396 1490 LINE" 
"383 479 LINE" 
);
},
{
closed = 1;
nodes = (
"295 -13 LINE" 
"239 -13 OFFCURVE"
"160 66 OFFCURVE"
"160 121 CURVE"
"160 177 OFFCURVE"
"239 256 OFFCURVE"
"295 256 CURVE"
"351 256 OFFCURVE"
"429 177 OFFCURVE"
"429 121 CURVE"
"429 66 OFFCURVE"
"351 -13 OFFCURVE"
);
},
);
},
);
}
{
unicode = "E2AF";
layers = (
{
layerId = "master-text-regular";
width = 554;
paths = (
{
closed = 1;
nodes = (
"187 479 LINE" 
"175 1490 LINE" 
"379 1490 LINE" 
"366 479 LINE" 
);
},
{
closed = 1;
nodes = (
"160 0 LINE" 
"160 232 LINE" 
"394 232 LINE" 
"394 0 LINE" 
);
},
);
},
);
}
{
unicode = "00A1";
layers = (
{
layerId = "master-text-regular";
width = 589;
paths = (
{
closed = 1;
nodes = (
"193 -361 LINE" 
"206 650 LINE" 
"385 650 LINE" 
"397 -361 LINE" 
);
},
{
closed = 1;
nodes = (
"294 873 LINE" 
"239 873 OFFCURVE"
"160 952 OFFCURVE"
"160 1008 CURVE"
"160 1064 OFFCURVE"
"239 1142 OFFCURVE"
"294 1142 CURVE"
"350 1142 OFFCURVE"
"429 1064 OFFCURVE"
"429 1008 CURVE"
"429 952 OFFCURVE"
"350 873 OFFCURVE"
);
},
);
},
);
}
{
unicode = "E1E1";
layers = (
{
layerId = "master-text-regular";
width = 589;
paths = (
{
closed = 1;
nodes = (
"193 0 LINE" 
"206 1022 LINE" 
"385 1022 LINE" 
"397 0 LINE" 
);
},
{
closed = 1;
nodes = (
"294 1245 LINE" 
"239 1245 OFFCURVE"
"160 1324 OFFCURVE"
"160 1380 CURVE"
"160 1436 OFFCURVE"
"239 1514 OFFCURVE"
"294 1514 CURVE"
"350 1514 OFFCURVE"
"429 1436 OFFCURVE"
"429 1380 CURVE"
"429 1324 OFFCURVE"
"350 1245 OFFCURVE"
);
},
);
},
);
}
{
unicode = "0066";
layers = (
{
layerId = "master-text-regular";
width = 758;
paths = (
{
closed = 1;
nodes = (
"678 1118 LINE" 
"678 964 LINE" 
"20 964 LINE" 
"20 1118 LINE" 
);
},
{
closed = 1;
nodes = (
"240 0 LINE" 
"240 1267 LINE" 
"240 1364 OFFCURVE"
"331 1494 OFFCURVE"
"477 1560 OFFCURVE"
"558 1560 CURVE"
"622 1560 OFFCURVE"
"706 1539 OFFCURVE"
"726 1530 CURVE"
"676 1376 LINE" 
"662 1381 OFFCURVE"
"617 1393 OFFCURVE"
"579 1393 CURVE"
"496 1393 OFFCURVE"
"420 1308 OFFCURVE"
"420 1227 CURVE"
"420 0 LINE" 
);
},
);
},
);
}
{
unicode = "EE0D";
layers = (
{
layerId = "master-text-regular";
width = 676;
paths = (
{
closed = 1;
nodes = (
"596 1118 LINE" 
"596 964 LINE" 
"238 964 LINE" 
"238 1118 LINE" 
);
},
{
closed = 1;
nodes = (
"158 0 LINE" 
"158 1267 LINE" 
"158 1364 OFFCURVE"
"249 1494 OFFCURVE"
"395 1560 OFFCURVE"
"476 1560 CURVE"
"540 1560 OFFCURVE"
"624 1539 OFFCURVE"
"644 1530 CURVE"
"594 1376 LINE" 
"580 1381 OFFCURVE"
"535 1393 OFFCURVE"
"497 1393 CURVE"
"414 1393 OFFCURVE"
"338 1308 OFFCURVE"
"338 1227 CURVE"
"338 0 LINE" 
);
},
);
},
);
}
{
unicode = "EE0E";
layers = (
{
layerId = "master-text-regular";
width = 688;
paths = (
{
closed = 1;
nodes = (
"238 0 LINE" 
"238 1267 LINE" 
"238 1364 OFFCURVE"
"329 1494 OFFCURVE"
"475 1560 OFFCURVE"
"556 1560 CURVE"
"583 1560 OFFCURVE"
"631 1556 OFFCURVE"
"650 1552 CURVE"
"623 1389 LINE" 
"613 1391 OFFCURVE"
"591 1393 OFFCURVE"
"577 1393 CURVE"
"494 1393 OFFCURVE"
"418 1308 OFFCURVE"
"418 1227 CURVE"
"418 0 LINE" 
);
},
{
closed = 1;
nodes = (
"20 964 LINE" 
"20 1118 LINE" 
"906 1118 LINE" 
"906 964 LINE" 
);
},
);
},
);
}
{
unicode = "EE0F";
layers = (
{
layerId = "master-text-regular";
width = 608;
paths = (
{
closed = 1;
nodes = (
"158 0 LINE" 
"158 1267 LINE" 
"158 1364 OFFCURVE"
"249 1494 OFFCURVE"
"395 1560 OFFCURVE"
"476 1560 CURVE"
"503 1560 OFFCURVE"
"551 1556 OFFCURVE"
"570 1552 CURVE"
"543 1389 LINE" 
"533 1391 OFFCURVE"
"510 1393 OFFCURVE"
"497 1393 CURVE"
"414 1393 OFFCURVE"
"338 1308 OFFCURVE"
"338 1227 CURVE"
"338 0 LINE" 
);
},
{
closed = 1;
nodes = (
"246 964 LINE" 
"246 1118 LINE" 
"826 1118 LINE" 
"826 964 LINE" 
);
},
);
},
);
}
{
unicode = "1DA0";
layers = (
{
layerId = "master-text-regular";
width = 562;
paths = (
{
closed = 1;
nodes = (
"165 898 LINE" 
"165 1549 LINE" 
"165 1653 OFFCURVE"
"299 1759 OFFCURVE"
"393 1759 CURVE"
"438 1759 OFFCURVE"
"512 1744 OFFCURVE"
"532 1738 CURVE"
"492 1614 LINE" 
"479 1618 OFFCURVE"
"447 1624 OFFCURVE"
"427 1624 CURVE"
"380 1624 OFFCURVE"
"335 1588 OFFCURVE"
"335 1559 CURVE"
"335 898 LINE" 
);
},
{
closed = 1;
nodes = (
"497 1517 LINE" 
"497 1391 LINE" 
"32 1391 LINE" 
"32 1517 LINE" 
);
},
);
},
);
}
{
unicode = "2012";
layers = (
{
layerId = "master-text-regular";
width = 1328;
paths = (
{
closed = 1;
nodes = (
"1228 748 LINE" 
"1228 582 LINE" 
"96 582 LINE" 
"96 748 LINE" 
);
},
);
},
);
}
{
unicode = "25A0";
layers = (
{
layerId = "master-text-regular";
width = 1872;
paths = (
{
closed = 1;
nodes = (
"192 0 LINE" 
"192 1490 LINE" 
"1682 1490 LINE" 
"1682 0 LINE" 
);
},
);
},
);
}
{
unicode = "0035";
layers = (
{
layerId = "master-text-regular";
width = 1215;
paths = (
{
closed = 1;
nodes = (
"596 -20 LINE" 
"465 -20 OFFCURVE"
"257 83 OFFCURVE"
"133 262 OFFCURVE"
"128 376 CURVE"
"312 376 LINE" 
"318 310 OFFCURVE"
"396 206 OFFCURVE"
"521 147 OFFCURVE"
"596 147 CURVE"
"686 147 OFFCURVE"
"827 231 OFFCURVE"
"907 379 OFFCURVE"
"907 473 CURVE"
"907 569 OFFCURVE"
"823 721 OFFCURVE"
"678 808 OFFCURVE"
"584 808 CURVE"
"515 808 OFFCURVE"
"373 764 OFFCURVE"
"329 730 CURVE"
"151 752 LINE" 
"239 1490 LINE" 
"1023 1490 LINE" 
"1023 1323 LINE" 
"399 1323 LINE" 
"348 888 LINE" 
"356 888 LINE" 
"402 926 OFFCURVE"
"542 975 OFFCURVE"
"619 975 CURVE"
"721 975 OFFCURVE"
"894 901 OFFCURVE"
"1022 766 OFFCURVE"
"1093 584 OFFCURVE"
"1093 476 CURVE"
"1093 333 OFFCURVE"
"964 109 OFFCURVE"
"740 -20 OFFCURVE"
);
},
);
},
);
}
{
unicode = "E0B9";
layers = (
{
layerId = "master-text-regular";
width = 762;
paths = (
{
closed = 1;
nodes = (
"387 -11 LINE" 
"310 -11 OFFCURVE"
"189 44 OFFCURVE"
"119 138 OFFCURVE"
"116 198 CURVE"
"271 198 LINE" 
"275 164 OFFCURVE"
"344 121 OFFCURVE"
"387 121 CURVE"
"446 121 OFFCURVE"
"526 197 OFFCURVE"
"526 258 CURVE"
"526 320 OFFCURVE"
"440 405 OFFCURVE"
"373 405 CURVE"
"357 405 OFFCURVE"
"297 400 OFFCURVE"
"273 402 CURVE"
"131 434 LINE" 
"189 812 LINE" 
"643 812 LINE" 
"643 677 LINE" 
"318 677 LINE" 
"291 494 LINE" 
"298 494 LINE" 
"312 507 OFFCURVE"
"383 531 OFFCURVE"
"420 531 CURVE"
"496 531 OFFCURVE"
"615 461 OFFCURVE"
"684 339 OFFCURVE"
"684 262 CURVE"
"684 184 OFFCURVE"
"607 61 OFFCURVE"
"473 -11 OFFCURVE"
);
},
);
},
);
}
{
unicode = "2075";
layers = (
{
layerId = "master-text-regular";
width = 901;
paths = (
{
closed = 1;
nodes = (
"456 888 LINE" 
"360 888 OFFCURVE"
"210 950 OFFCURVE"
"124 1058 OFFCURVE"
"123 1126 CURVE"
"293 1126 LINE" 
"295 1078 OFFCURVE"
"389 1021 OFFCURVE"
"456 1021 CURVE"
"536 1021 OFFCURVE"
"640 1100 OFFCURVE"
"640 1164 CURVE"
"640 1230 OFFCURVE"
"531 1309 OFFCURVE"
"451 1309 CURVE"
"411 1309 OFFCURVE"
"331 1280 OFFCURVE"
"305 1255 CURVE"
"147 1293 LINE" 
"200 1710 LINE" 
"760 1710 LINE" 
"760 1570 LINE" 
"340 1570 LINE" 
"308 1351 LINE" 
"314 1351 LINE" 
"339 1384 OFFCURVE"
"443 1430 OFFCURVE"
"508 1430 CURVE"
"594 1430 OFFCURVE"
"729 1364 OFFCURVE"
"808 1247 OFFCURVE"
"808 1169 CURVE"
"808 1046 OFFCURVE"
"612 888 OFFCURVE"
);
},
);
},
);
}
{
unicode = "0192";
layers = (
{
layerId = "master-text-regular";
width = 798;
paths = (
{
closed = 1;
nodes = (
"672 1082 LINE" 
"672 929 LINE" 
"467 929 LINE" 
"467 -69 LINE" 
"467 -239 OFFCURVE"
"300 -418 OFFCURVE"
"145 -418 CURVE"
"114 -418 OFFCURVE"
"59 -413 OFFCURVE"
"30 -404 CURVE"
"44 -242 LINE" 
"60 -248 OFFCURVE"
"130 -252 OFFCURVE"
"142 -252 CURVE"
"201 -252 OFFCURVE"
"278 -155 OFFCURVE"
"278 -69 CURVE"
"278 929 LINE" 
"97 929 LINE" 
"97 1082 LINE" 
"278 1082 LINE" 
"278 1191 LINE" 
"278 1369 OFFCURVE"
"457 1556 OFFCURVE"
"596 1556 CURVE"
"638 1556 OFFCURVE"
"739 1541 OFFCURVE"
"768 1530 CURVE"
"725 1369 LINE" 
"710 1373 OFFCURVE"
"669 1379 OFFCURVE"
"643 1379 CURVE"
"557 1379 OFFCURVE"
"467 1286 OFFCURVE"
"467 1191 CURVE"
"467 1082 LINE" 
);
},
);
},
);
}
{
unicode = "0034";
layers = (
{
layerId = "master-text-regular";
width = 1323;
paths = (
{
closed = 1;
nodes = (
"120 303 LINE" 
"120 458 LINE" 
"772 1490 LINE" 
"887 1490 LINE" 
"887 1252 LINE" 
"810 1252 LINE" 
"323 482 LINE" 
"323 470 LINE" 
"1205 470 LINE" 
"1205 303 LINE" 
);
},
{
closed = 1;
nodes = (
"821 0 LINE" 
"821 349 LINE" 
"822 422 LINE" 
"822 1490 LINE" 
"1003 1490 LINE" 
"1003 0 LINE" 
);
},
);
},
);
}
{
unicode = "E0B8";
layers = (
{
layerId = "master-text-regular";
width = 801;
paths = (
{
closed = 1;
nodes = (
"91 125 LINE" 
"91 254 LINE" 
"415 812 LINE" 
"520 812 LINE" 
"520 620 LINE" 
"453 620 LINE" 
"252 270 LINE" 
"252 259 LINE" 
"714 259 LINE" 
"714 125 LINE" 
);
},
{
closed = 1;
nodes = (
"461 0 LINE" 
"461 163 LINE" 
"464 222 LINE" 
"464 812 LINE" 
"615 812 LINE" 
"615 0 LINE" 
);
},
);
},
);
}
{
layers = (
{
layerId = "master-text-regular";
width = 801;
paths = (
{
closed = 1;
nodes = (
"91 125 LINE" 
"91 254 LINE" 
"351 812 LINE" 
"500 812 LINE" 
"250 270 LINE" 
"250 259 LINE" 
"714 259 LINE" 
"714 125 LINE" 
);
},
{
closed = 1;
nodes = (
"462 0 LINE" 
"462 163 LINE" 
"465 222 LINE" 
"465 507 LINE" 
"613 507 LINE" 
"613 0 LINE" 
);
},
);
},
);
}
{
unicode = "E06E";
layers = (
{
layerId = "master-text-regular";
width = 1323;
paths = (
{
closed = 1;
nodes = (
"120 303 LINE" 
"120 458 LINE" 
"713 1490 LINE" 
"900 1490 LINE" 
"321 482 LINE" 
"321 470 LINE" 
"1205 470 LINE" 
"1205 303 LINE" 
);
},
{
closed = 1;
nodes = (
"822 0 LINE" 
"822 349 LINE" 
"822 422 LINE" 
"822 930 LINE" 
"1002 930 LINE" 
"1002 0 LINE" 
);
},
);
},
);
}
{
unicode = "2074";
layers = (
{
layerId = "master-text-regular";
width = 942;
paths = (
{
closed = 1;
nodes = (
"101 1032 LINE" 
"101 1166 LINE" 
"513 1710 LINE" 
"633 1710 LINE" 
"633 1517 LINE" 
"558 1517 LINE" 
"279 1177 LINE" 
"279 1169 LINE" 
"848 1169 LINE" 
"848 1032 LINE" 
);
},
{
closed = 1;
nodes = (
"562 898 LINE" 
"562 1073 LINE" 
"567 1132 LINE" 
"567 1710 LINE" 
"729 1710 LINE" 
"729 898 LINE" 
);
},
);
},
);
}
{
layers = (
{
layerId = "master-text-regular";
width = 942;
paths = (
{
closed = 1;
nodes = (
"101 1032 LINE" 
"101 1166 LINE" 
"467 1710 LINE" 
"632 1710 LINE" 
"275 1177 LINE" 
"275 1169 LINE" 
"848 1169 LINE" 
"848 1032 LINE" 
);
},
{
closed = 1;
nodes = (
"563 898 LINE" 
"563 1072 LINE" 
"569 1132 LINE" 
"569 1405 LINE" 
"725 1405 LINE" 
"725 898 LINE" 
);
},
);
},
);
}
{
unicode = "2044";
layers = (
{
layerId = "master-text-regular";
width = 393;
paths = (
{
closed = 1;
nodes = (
"-400 0 LINE" 
"624 1490 LINE" 
"793 1490 LINE" 
"-231 0 LINE" 
);
},
);
},
);
}
{
unicode = "0067";
layers = (
{
layerId = "master-text-regular";
width = 1256;
paths = (
{
closed = 1;
nodes = (
"611 -442 LINE" 
"487 -442 OFFCURVE"
"306 -379 OFFCURVE"
"186 -275 OFFCURVE"
"151 -214 CURVE"
"297 -120 LINE" 
"321 -152 OFFCURVE"
"392 -230 OFFCURVE"
"513 -285 OFFCURVE"
"611 -285 CURVE"
"745 -285 OFFCURVE"
"918 -157 OFFCURVE"
"918 -19 CURVE"
"918 205 LINE" 
"901 205 LINE" 
"882 173 OFFCURVE"
"813 85 OFFCURVE"
"684 18 OFFCURVE"
"576 18 CURVE"
"442 18 OFFCURVE"
"228 145 OFFCURVE"
"104 389 OFFCURVE"
"104 564 CURVE"
"104 737 OFFCURVE"
"226 992 OFFCURVE"
"441 1132 OFFCURVE"
"580 1132 CURVE"
"688 1132 OFFCURVE"
"817 1061 OFFCURVE"
"887 969 OFFCURVE"
"906 939 CURVE"
"923 939 LINE" 
"923 1118 LINE" 
"1098 1118 LINE" 
"1098 -29 LINE" 
"1098 -173 OFFCURVE"
"968 -356 OFFCURVE"
"747 -442 OFFCURVE"
);
},
{
closed = 1;
nodes = (
"606 178 LINE" 
"708 178 OFFCURVE"
"848 271 OFFCURVE"
"920 446 OFFCURVE"
"920 568 CURVE"
"920 687 OFFCURVE"
"849 868 OFFCURVE"
"709 971 OFFCURVE"
"606 971 CURVE"
"500 971 OFFCURVE"
"358 862 OFFCURVE"
"287 680 OFFCURVE"
"287 568 CURVE"
"287 453 OFFCURVE"
"359 277 OFFCURVE"
"501 178 OFFCURVE"
);
},
);
},
);
}
{
unicode = "0262";
layers = (
{
layerId = "master-text-regular";
width = 1148;
paths = (
{
closed = 1;
nodes = (
"593 -15 LINE" 
"441 -15 OFFCURVE"
"210 124 OFFCURVE"
"82 382 OFFCURVE"
"82 558 CURVE"
"82 737 OFFCURVE"
"213 995 OFFCURVE"
"441 1133 OFFCURVE"
"586 1133 CURVE"
"708 1133 OFFCURVE"
"905 1039 OFFCURVE"
"1034 872 OFFCURVE"
"1052 763 CURVE"
"868 763 LINE" 
"849 826 OFFCURVE"
"772 919 OFFCURVE"
"661 970 OFFCURVE"
"588 970 CURVE"
"495 970 OFFCURVE"
"347 875 OFFCURVE"
"261 692 OFFCURVE"
"261 559 CURVE"
"261 427 OFFCURVE"
"346 243 OFFCURVE"
"497 148 OFFCURVE"
"594 148 CURVE"
"727 148 OFFCURVE"
"886 305 OFFCURVE"
"886 438 CURVE"
"931 430 LINE" 
"617 430 LINE" 
"617 576 LINE" 
"1061 576 LINE" 
"1061 447 LINE" 
"1061 305 OFFCURVE"
"940 98 OFFCURVE"
"729 -15 OFFCURVE"
);
},
);
},
);
}
{
unicode = "1D4D";
layers = (
{
layerId = "master-text-regular";
width = 896;
paths = (
{
closed = 1;
nodes = (
"431 656 LINE" 
"344 656 OFFCURVE"
"213 693 OFFCURVE"
"128 759 OFFCURVE"
"110 802 CURVE"
"253 842 LINE" 
"270 811 OFFCURVE"
"358 774 OFFCURVE"
"430 774 CURVE"
"513 774 OFFCURVE"
"609 831 OFFCURVE"
"609 891 CURVE"
"609 1013 LINE" 
"592 1013 LINE" 
"573 970 OFFCURVE"
"472 907 OFFCURVE"
"379 907 CURVE"
"298 907 OFFCURVE"
"164 968 OFFCURVE"
"84 1100 OFFCURVE"
"84 1206 CURVE"
"84 1316 OFFCURVE"
"165 1456 OFFCURVE"
"300 1523 OFFCURVE"
"379 1523 CURVE"
"476 1523 OFFCURVE"
"582 1445 OFFCURVE"
"601 1398 CURVE"
"610 1398 LINE" 
"610 1517 LINE" 
"779 1517 LINE" 
"779 904 LINE" 
"779 824 OFFCURVE"
"690 713 OFFCURVE"
"534 656 OFFCURVE"
);
},
{
closed = 1;
nodes = (
"435 1030 LINE" 
"518 1030 OFFCURVE"
"608 1123 OFFCURVE"
"608 1206 CURVE"
"608 1289 OFFCURVE"
"519 1389 OFFCURVE"
"435 1389 CURVE"
"350 1389 OFFCURVE"
"261 1286 OFFCURVE"
"261 1206 CURVE"
"261 1125 OFFCURVE"
"351 1030 OFFCURVE"
);
},
);
},
);
}
{
unicode = "03B3";
layers = (
{
layerId = "master-text-regular";
width = 1151;
paths = (
{
closed = 1;
nodes = (
"488 -20 LINE" 
"54 1118 LINE" 
"251 1118 LINE" 
"489 455 LINE" 
"527 352 OFFCURVE"
"580 147 OFFCURVE"
"609 51 CURVE"
"543 51 LINE" 
"572 147 OFFCURVE"
"625 352 OFFCURVE"
"662 455 CURVE"
"900 1118 LINE" 
"1097 1118 LINE" 
"662 -20 LINE" 
);
},
{
closed = 1;
nodes = (
"485 -418 LINE" 
"485 8 LINE" 
"665 8 LINE" 
"665 -418 LINE" 
);
},
);
},
);
}
{
unicode = "0263";
layers = (
{
layerId = "master-text-regular";
width = 1225;
paths = (
{
closed = 1;
nodes = (
"611 -442 LINE" 
"484 -442 OFFCURVE"
"330 -317 OFFCURVE"
"330 -198 CURVE"
"330 -173 OFFCURVE"
"345 -115 OFFCURVE"
"370 -53 OFFCURVE"
"384 -24 CURVE"
"957 1118 LINE" 
"1157 1118 LINE" 
"653 97 LINE" 
"595 -20 OFFCURVE"
"525 -149 OFFCURVE"
"525 -197 CURVE"
"525 -230 OFFCURVE"
"573 -272 OFFCURVE"
"611 -272 CURVE"
"649 -272 OFFCURVE"
"697 -228 OFFCURVE"
"697 -197 CURVE"
"697 -151 OFFCURVE"
"634 -20 OFFCURVE"
"572 105 CURVE"
"70 1118 LINE" 
"267 1118 LINE" 
"842 -23 LINE" 
"861 -60 OFFCURVE"
"880 -127 OFFCURVE"
"886 -180 OFFCURVE"
"886 -198 CURVE"
"886 -316 OFFCURVE"
"741 -442 OFFCURVE"
);
},
);
},
);
}
{
unicode = "02E0";
layers = (
{
layerId = "master-text-regular";
width = 925;
paths = (
{
closed = 1;
nodes = (
"469 926 LINE" 
"635 1452 LINE" 
"839 1452 LINE" 
"550 652 LINE" 
"423 652 LINE" 
);
},
{
closed = 1;
nodes = (
"293 1452 LINE" 
"458 926 LINE" 
"504 652 LINE" 
"377 652 LINE" 
"88 1452 LINE" 
);
},
{
closed = 1;
nodes = (
"457 213 LINE" 
"394 213 OFFCURVE"
"304 256 OFFCURVE"
"255 337 OFFCURVE"
"255 394 CURVE"
"255 409 OFFCURVE"
"262 441 OFFCURVE"
"276 482 OFFCURVE"
"288 510 CURVE"
"382 729 LINE" 
"535 729 LINE" 
"486 606 LINE" 
"464 550 OFFCURVE"
"433 474 OFFCURVE"
"417 424 OFFCURVE"
"417 405 CURVE"
"417 384 OFFCURVE"
"435 360 OFFCURVE"
"457 360 CURVE"
"480 360 OFFCURVE"
"496 386 OFFCURVE"
"496 405 CURVE"
"496 434 OFFCURVE"
"462 527 OFFCURVE"
"430 610 CURVE"
"385 729 LINE" 
"541 729 LINE" 
"630 516 LINE" 
"641 491 OFFCURVE"
"654 448 OFFCURVE"
"660 411 OFFCURVE"
"660 394 CURVE"
"660 337 OFFCURVE"
"611 256 OFFCURVE"
"520 213 OFFCURVE"
);
},
);
},
);
}
{
unicode = "00DF";
layers = (
{
layerId = "master-text-regular";
width = 1262;
paths = (
{
closed = 1;
nodes = (
"180 0 LINE" 
"180 1107 LINE" 
"180 1232 OFFCURVE"
"291 1413 OFFCURVE"
"488 1510 OFFCURVE"
"616 1510 CURVE"
"742 1510 OFFCURVE"
"941 1417 OFFCURVE"
"1057 1245 OFFCURVE"
"1057 1125 CURVE"
"1057 1001 OFFCURVE"
"930 826 OFFCURVE"
"823 789 CURVE"
"823 775 LINE" 
"968 761 OFFCURVE"
"1146 564 OFFCURVE"
"1146 410 CURVE"
"1146 292 OFFCURVE"
"1038 106 OFFCURVE"
"841 0 OFFCURVE"
"709 0 CURVE"
"544 0 LINE" 
"544 167 LINE" 
"709 167 LINE" 
"825 167 OFFCURVE"
"964 305 OFFCURVE"
"964 412 CURVE"
"964 525 OFFCURVE"
"810 671 OFFCURVE"
"679 671 CURVE"
"550 671 LINE" 
"550 841 LINE" 
"641 841 LINE" 
"713 841 OFFCURVE"
"818 914 OFFCURVE"
"875 1031 OFFCURVE"
"875 1097 CURVE"
"875 1200 OFFCURVE"
"739 1343 OFFCURVE"
"621 1343 CURVE"
"509 1343 OFFCURVE"
"362 1210 OFFCURVE"
"362 1104 CURVE"
"362 0 LINE" 
);
},
);
},
);
}
{
unicode = "E06A";
layers = (
{
layerId = "master-text-regular";
width = 1302;
paths = (
{
closed = 1;
nodes = (
"362 1061 LINE" 
"362 0 LINE" 
"180 0 LINE" 
"180 1061 LINE" 
"180 1285 OFFCURVE"
"408 1510 OFFCURVE"
"580 1510 CURVE"
"676 1510 OFFCURVE"
"858 1435 OFFCURVE"
"977 1277 OFFCURVE"
"977 1152 CURVE"
"977 1077 OFFCURVE"
"936 979 OFFCURVE"
"882 908 OFFCURVE"
"841 842 OFFCURVE"
"841 798 CURVE"
"841 745 OFFCURVE"
"911 667 OFFCURVE"
"1014 594 OFFCURVE"
"1116 506 OFFCURVE"
"1186 384 OFFCURVE"
"1186 294 CURVE"
"1186 194 OFFCURVE"
"1088 53 OFFCURVE"
"911 -20 OFFCURVE"
"793 -20 CURVE"
"695 -20 OFFCURVE"
"528 28 OFFCURVE"
"484 60 CURVE"
"553 216 LINE" 
"587 196 OFFCURVE"
"693 147 OFFCURVE"
"781 147 CURVE"
"885 147 OFFCURVE"
"1005 231 OFFCURVE"
"1005 306 CURVE"
"1005 364 OFFCURVE"
"935 450 OFFCURVE"
"831 526 OFFCURVE"
"726 609 OFFCURVE"
"656 719 OFFCURVE"
"656 797 CURVE"
"656 859 OFFCURVE"
"700 934 OFFCURVE"
"757 996 OFFCURVE"
"800 1073 OFFCURVE"
"800 1136 CURVE"
"800 1242 OFFCURVE"
"672 1343 OFFCURVE"
"580 1343 CURVE"
"474 1343 OFFCURVE"
"362 1207 OFFCURVE"
);
},
);
},
);
}
{
unicode = "02A1";
layers = (
{
layerId = "master-text-regular";
width = 1111;
paths = (
{
closed = 1;
nodes = (
"838 307 LINE" 
"838 145 LINE" 
"192 145 LINE" 
"192 307 LINE" 
);
},
{
closed = 1;
nodes = (
"412 551 LINE" 
"529 551 LINE" 
"639 551 OFFCURVE"
"762 663 OFFCURVE"
"811 834 OFFCURVE"
"811 924 CURVE"
"811 971 LINE" 
"811 1061 OFFCURVE"
"763 1233 OFFCURVE"
"641 1344 OFFCURVE"
"529 1344 CURVE"
"435 1344 OFFCURVE"
"298 1232 OFFCURVE"
"289 1147 CURVE"
"94 1147 LINE" 
"99 1244 OFFCURVE"
"220 1409 OFFCURVE"
"414 1510 OFFCURVE"
"528 1510 CURVE"
"695 1510 OFFCURVE"
"911 1361 OFFCURVE"
"1017 1116 OFFCURVE"
"1017 971 CURVE"
"1017 924 LINE" 
"1017 779 OFFCURVE"
"911 534 OFFCURVE"
"695 385 OFFCURVE"
"529 385 CURVE"
"412 385 LINE" 
);
},
{
closed = 1;
nodes = (
"629 551 LINE" 
"629 0 LINE" 
"411 0 LINE" 
"411 551 LINE" 
);
},
);
},
);
}
{
unicode = "01BE";
layers = (
{
layerId = "master-text-regular";
width = 1112;
paths = (
{
closed = 1;
nodes = (
"787 289 LINE" 
"787 338 OFFCURVE"
"734 404 OFFCURVE"
"651 458 OFFCURVE"
"558 514 OFFCURVE"
"475 590 OFFCURVE"
"422 702 OFFCURVE"
"422 785 CURVE"
"422 1343 LINE" 
"632 1343 LINE" 
"632 790 LINE" 
"632 728 OFFCURVE"
"685 648 OFFCURVE"
"767 593 OFFCURVE"
"861 543 OFFCURVE"
"943 479 OFFCURVE"
"996 382 OFFCURVE"
"996 307 CURVE"
"996 211 OFFCURVE"
"889 63 OFFCURVE"
"698 -20 OFFCURVE"
"571 -20 CURVE"
"424 -20 OFFCURVE"
"223 84 OFFCURVE"
"120 249 OFFCURVE"
"120 340 CURVE"
"327 340 LINE" 
"330 266 OFFCURVE"
"405 180 OFFCURVE"
"516 144 OFFCURVE"
"571 144 CURVE"
"675 144 OFFCURVE"
"787 227 OFFCURVE"
);
},
{
closed = 1;
nodes = (
"829 1082 LINE" 
"829 929 LINE" 
"231 929 LINE" 
"231 1082 LINE" 
);
},
);
},
);
}
{
unicode = "0296";
layers = (
{
layerId = "master-text-regular";
width = 1111;
paths = (
{
closed = 1;
nodes = (
"529 991 LINE" 
"480 991 LINE" 
"480 1157 LINE" 
"528 1157 LINE" 
"695 1157 OFFCURVE"
"911 1007 OFFCURVE"
"1017 760 OFFCURVE"
"1017 614 CURVE"
"1017 521 LINE" 
"1017 377 OFFCURVE"
"911 130 OFFCURVE"
"695 -20 OFFCURVE"
"528 -20 CURVE"
"401 -20 OFFCURVE"
"209 85 OFFCURVE"
"99 264 OFFCURVE"
"94 375 CURVE"
"289 375 LINE" 
"297 283 OFFCURVE"
"421 146 OFFCURVE"
"529 146 CURVE"
"640 146 OFFCURVE"
"763 260 OFFCURVE"
"811 433 OFFCURVE"
"811 521 CURVE"
"811 614 LINE" 
"811 706 OFFCURVE"
"763 879 OFFCURVE"
"640 991 OFFCURVE"
);
},
{
closed = 1;
nodes = (
"644 1490 LINE" 
"644 991 LINE" 
"434 991 LINE" 
"434 1490 LINE" 
);
},
);
},
);
}
{
unicode = "0295";
layers = (
{
layerId = "master-text-regular";
width = 1111;
paths = (
{
closed = 1;
nodes = (
"580 547 LINE" 
"629 547 LINE" 
"629 381 LINE" 
"580 381 LINE" 
"414 381 OFFCURVE"
"199 530 OFFCURVE"
"94 777 OFFCURVE"
"94 922 CURVE"
"94 971 LINE" 
"94 1116 OFFCURVE"
"200 1361 OFFCURVE"
"416 1510 OFFCURVE"
"580 1510 CURVE"
"710 1510 OFFCURVE"
"904 1407 OFFCURVE"
"1014 1228 OFFCURVE"
"1017 1115 CURVE"
"821 1115 LINE" 
"815 1209 OFFCURVE"
"688 1344 OFFCURVE"
"580 1344 CURVE"
"470 1344 OFFCURVE"
"349 1231 OFFCURVE"
"302 1059 OFFCURVE"
"302 971 CURVE"
"302 922 LINE" 
"302 874 OFFCURVE"
"320 747 OFFCURVE"
"375 627 OFFCURVE"
"487 547 OFFCURVE"
);
},
{
closed = 1;
nodes = (
"470 0 LINE" 
"470 551 LINE" 
"676 551 LINE" 
"676 0 LINE" 
);
},
);
},
);
}
{
unicode = "EE9D";
layers = (
{
layerId = "master-text-regular";
width = 661;
paths = (
{
closed = 1;
nodes = (
"353 1282 LINE" 
"160 1558 LINE" 
"361 1558 LINE" 
"501 1282 LINE" 
);
},
);
},
);
}
{
unicode = "0300";
layers = (
{
layerId = "master-text-regular";
width = 0;
paths = (
{
closed = 1;
nodes = (
"343 1264 LINE" 
"150 1558 LINE" 
"351 1558 LINE" 
"491 1264 LINE" 
);
},
);
},
);
}
{
unicode = "003E";
layers = (
{
layerId = "master-text-regular";
width = 1355;
paths = (
{
closed = 1;
nodes = (
"1181 520 LINE" 
"237 44 LINE" 
"237 238 LINE" 
"956 579 LINE" 
"949 569 LINE" 
"949 597 LINE" 
"956 585 LINE" 
"237 926 LINE" 
"237 1122 LINE" 
"1181 646 LINE" 
);
},
);
},
);
}
{
unicode = "2265";
layers = (
{
layerId = "master-text-regular";
width = 1355;
paths = (
{
closed = 1;
nodes = (
"206 69 LINE" 
"206 237 LINE" 
"1150 237 LINE" 
"1150 69 LINE" 
);
},
{
closed = 1;
nodes = (
"1150 683 LINE" 
"206 352 LINE" 
"206 533 LINE" 
"864 745 LINE" 
"857 732 LINE" 
"857 763 LINE" 
"864 751 LINE" 
"206 961 LINE" 
"206 1143 LINE" 
"1150 810 LINE" 
);
},
);
},
);
}
{
unicode = "2039";
layers = (
{
layerId = "master-text-regular";
width = 787;
paths = (
{
closed = 1;
nodes = (
"501 144 LINE" 
"100 616 LINE" 
"501 1088 LINE" 
"707 1088 LINE" 
"313 616 LINE" 
"707 144 LINE" 
);
},
);
},
);
}
{
unicode = "203A";
layers = (
{
layerId = "master-text-regular";
width = 787;
paths = (
{
closed = 1;
nodes = (
"80 144 LINE" 
"474 616 LINE" 
"80 1088 LINE" 
"286 1088 LINE" 
"687 616 LINE" 
"286 144 LINE" 
);
},
);
},
);
}
{
unicode = "029C";
layers = (
{
layerId = "master-text-regular";
width = 1205;
paths = (
{
closed = 1;
nodes = (
"908 657 LINE" 
"908 491 LINE" 
"295 491 LINE" 
"295 657 LINE" 
);
},
{
closed = 1;
nodes = (
"338 1118 LINE" 
"338 0 LINE" 
"158 0 LINE" 
"158 1118 LINE" 
);
},
{
closed = 1;
nodes = (
"1047 1118 LINE" 
"1047 0 LINE" 
"867 0 LINE" 
"867 1118 LINE" 
);
},
);
},
);
}
{
unicode = "2665";
layers = (
{
layerId = "master-text-regular";
width = 2094;
paths = (
{
closed = 1;
nodes = (
"1048 -24 LINE" 
"300 724 LINE" 
"210 814 OFFCURVE"
"151 1051 OFFCURVE"
"211 1286 OFFCURVE"
"299 1373 CURVE"
"391 1464 OFFCURVE"
"625 1521 OFFCURVE"
"858 1461 OFFCURVE"
"948 1374 CURVE"
"1048 1278 LINE" 
"1146 1374 LINE" 
"1236 1462 OFFCURVE"
"1467 1523 OFFCURVE"
"1700 1466 OFFCURVE"
"1791 1377 CURVE"
"1883 1288 OFFCURVE"
"1943 1051 OFFCURVE"
"1883 813 OFFCURVE"
"1794 724 CURVE"
);
},
);
},
);
}
{
unicode = "02B1";
layers = (
{
layerId = "master-text-regular";
width = 925;
paths = (
{
closed = 1;
nodes = (
"325 1556 LINE" 
"325 652 LINE" 
"140 652 LINE" 
"140 1567 LINE" 
"140 1640 OFFCURVE"
"167 1747 OFFCURVE"
"236 1806 OFFCURVE"
"300 1806 CURVE"
"326 1806 OFFCURVE"
"377 1801 OFFCURVE"
"427 1793 OFFCURVE"
"452 1787 CURVE"
"452 1617 LINE" 
"442 1619 OFFCURVE"
"399 1625 OFFCURVE"
"379 1625 CURVE"
"355 1625 OFFCURVE"
"326 1594 OFFCURVE"
);
},
{
closed = 1;
nodes = (
"303 1080 LINE" 
"257 1076 LINE" 
"257 1190 OFFCURVE"
"321 1366 OFFCURVE"
"443 1466 OFFCURVE"
"528 1466 CURVE"
"646 1466 OFFCURVE"
"785 1322 OFFCURVE"
"785 1160 CURVE"
"785 652 LINE" 
"598 652 LINE" 
"598 1123 LINE" 
"598 1227 OFFCURVE"
"526 1311 OFFCURVE"
"464 1311 CURVE"
"408 1311 OFFCURVE"
"337 1249 OFFCURVE"
"303 1145 OFFCURVE"
);
},
);
},
);
}
{
unicode = "EEB8";
layers = (
{
layerId = "master-text-regular";
width = 514;
paths = (
{
closed = 1;
nodes = (
"334 1282 LINE" 
"198 1282 LINE" 
"261 1401 LINE" 
"272 1422 OFFCURVE"
"259 1440 OFFCURVE"
"239 1440 CURVE"
"100 1440 LINE" 
"100 1558 LINE" 
"239 1558 LINE" 
"301 1558 OFFCURVE"
"381 1525 OFFCURVE"
"418 1467 OFFCURVE"
"408 1392 OFFCURVE"
"380 1350 CURVE"
);
},
);
},
);
}
{
unicode = "0309";
layers = (
{
layerId = "master-text-regular";
width = 0;
paths = (
{
closed = 1;
nodes = (
"326 1264 LINE" 
"190 1264 LINE" 
"261 1401 LINE" 
"272 1421 OFFCURVE"
"259 1440 OFFCURVE"
"239 1440 CURVE"
"100 1440 LINE" 
"100 1558 LINE" 
"239 1558 LINE" 
"301 1558 OFFCURVE"
"380 1525 OFFCURVE"
"416 1468 OFFCURVE"
"407 1392 OFFCURVE"
"380 1350 CURVE"
);
},
);
},
);
}
{
unicode = "EEB9";
layers = (
{
layerId = "master-text-regular";
width = 0;
paths = (
{
closed = 1;
nodes = (
"-398 159 LINE" 
"-195 159 LINE" 
"-195 -88 LINE" 
"-195 -257 OFFCURVE"
"-338 -435 OFFCURVE"
"-481 -435 CURVE"
"-505 -435 OFFCURVE"
"-575 -428 OFFCURVE"
"-600 -421 CURVE"
"-600 -259 LINE" 
"-582 -264 OFFCURVE"
"-549 -265 OFFCURVE"
"-535 -265 CURVE"
"-487 -265 OFFCURVE"
"-426 -227 OFFCURVE"
"-398 -148 OFFCURVE"
"-398 -88 CURVE"
);
},
);
},
);
}
{
unicode = "EEBA";
layers = (
{
layerId = "master-text-regular";
width = 0;
paths = (
{
closed = 1;
nodes = (
"-22 -435 LINE" 
"-165 -435 OFFCURVE"
"-308 -256 OFFCURVE"
"-308 -88 CURVE"
"-308 159 LINE" 
"-106 159 LINE" 
"-106 -88 LINE" 
"-106 -145 OFFCURVE"
"-79 -224 OFFCURVE"
"-19 -265 OFFCURVE"
"30 -265 CURVE"
"44 -265 OFFCURVE"
"79 -264 OFFCURVE"
"95 -259 CURVE"
"95 -421 LINE" 
"69 -428 OFFCURVE"
"1 -435 OFFCURVE"
);
},
);
},
);
}
{
unicode = "0265";
layers = (
{
layerId = "master-text-regular";
width = 1211;
paths = (
{
closed = 1;
nodes = (
"873 448 LINE" 
"873 1118 LINE" 
"1053 1118 LINE" 
"1053 -372 LINE" 
"873 -372 LINE" 
"873 271 LINE" 
"904 271 LINE" 
"853 117 OFFCURVE"
"664 -14 OFFCURVE"
"537 -14 CURVE"
"424 -14 OFFCURVE"
"253 79 OFFCURVE"
"158 267 OFFCURVE"
"158 408 CURVE"
"158 1118 LINE" 
"339 1118 LINE" 
"339 423 LINE" 
"339 294 OFFCURVE"
"474 148 OFFCURVE"
"591 148 CURVE"
"672 148 OFFCURVE"
"799 218 OFFCURVE"
"873 353 OFFCURVE"
);
},
);
},
);
}
{
unicode = "02AF";
layers = (
{
layerId = "master-text-regular";
width = 1292;
paths = (
{
closed = 1;
nodes = (
"1246 -427 LINE" 
"1104 -427 OFFCURVE"
"956 -295 OFFCURVE"
"956 -171 CURVE"
"956 271 LINE" 
"986 271 LINE" 
"934 114 OFFCURVE"
"743 -14 OFFCURVE"
"620 -14 CURVE"
"507 -14 OFFCURVE"
"336 79 OFFCURVE"
"241 267 OFFCURVE"
"241 408 CURVE"
"241 828 LINE" 
"241 914 OFFCURVE"
"145 977 OFFCURVE"
"76 977 CURVE"
"66 977 OFFCURVE"
"45 975 OFFCURVE"
"27 973 OFFCURVE"
"20 971 CURVE"
"20 1122 LINE" 
"39 1129 OFFCURVE"
"87 1132 OFFCURVE"
"122 1132 CURVE"
"185 1132 OFFCURVE"
"293 1093 OFFCURVE"
"375 1016 OFFCURVE"
"421 902 OFFCURVE"
"421 828 CURVE"
"421 423 LINE" 
"421 294 OFFCURVE"
"557 148 OFFCURVE"
"674 148 CURVE"
"754 148 OFFCURVE"
"881 218 OFFCURVE"
"955 353 OFFCURVE"
"955 448 CURVE"
"955 1118 LINE" 
"1136 1118 LINE" 
"1136 -171 LINE" 
"1136 -223 OFFCURVE"
"1209 -272 OFFCURVE"
"1292 -272 CURVE"
"1303 -272 OFFCURVE"
"1335 -270 OFFCURVE"
"1350 -268 CURVE"
"1350 -418 LINE" 
"1340 -420 OFFCURVE"
"1308 -425 OFFCURVE"
"1268 -427 OFFCURVE"
);
},
);
},
);
}
{
unicode = "002D";
layers = (
{
layerId = "master-text-regular";
width = 942;
paths = (
{
closed = 1;
nodes = (
"798 719 LINE" 
"798 553 LINE" 
"144 553 LINE" 
"144 719 LINE" 
);
},
);
},
);
}
{
unicode = "E0A5";
layers = (
{
layerId = "master-text-regular";
width = 405;
paths = (
{
closed = 1;
nodes = (
"98 744 LINE" 
"98 1536 LINE" 
"259 1536 LINE" 
"259 744 LINE" 
);
},
{
closed = 1;
nodes = (
"180 1637 LINE" 
"142 1637 OFFCURVE"
"88 1691 OFFCURVE"
"88 1727 CURVE"
"88 1762 OFFCURVE"
"142 1815 OFFCURVE"
"180 1815 CURVE"
"216 1815 OFFCURVE"
"269 1762 OFFCURVE"
"269 1727 CURVE"
"269 1689 OFFCURVE"
"216 1637 OFFCURVE"
);
},
);
},
);
}
{
unicode = "026A";
layers = (
{
layerId = "master-text-regular";
width = 701;
paths = (
{
closed = 1;
nodes = (
"63 0 LINE" 
"63 154 LINE" 
"261 154 LINE" 
"261 964 LINE" 
"63 964 LINE" 
"63 1118 LINE" 
"638 1118 LINE" 
"638 964 LINE" 
"441 964 LINE" 
"441 154 LINE" 
"638 154 LINE" 
"638 0 LINE" 
);
},
);
},
);
}
{
unicode = "2071";
layers = (
{
layerId = "master-text-regular";
width = 405;
paths = (
{
closed = 1;
nodes = (
"117 898 LINE" 
"117 1517 LINE" 
"288 1517 LINE" 
"288 898 LINE" 
);
},
{
closed = 1;
nodes = (
"202 1599 LINE" 
"164 1599 OFFCURVE"
"108 1647 OFFCURVE"
"108 1681 CURVE"
"108 1715 OFFCURVE"
"164 1763 OFFCURVE"
"202 1763 CURVE"
"241 1763 OFFCURVE"
"297 1715 OFFCURVE"
"297 1681 CURVE"
"297 1647 OFFCURVE"
"241 1599 OFFCURVE"
);
},
);
},
);
}
{
unicode = "221E";
layers = (
{
layerId = "master-text-regular";
width = 1917;
paths = (
{
closed = 1;
nodes = (
"511 1036 LINE" 
"586 1037 OFFCURVE"
"713 995 OFFCURVE"
"820 926 OFFCURVE"
"864 884 CURVE"
"893 857 OFFCURVE"
"940 805 OFFCURVE"
"960 780 CURVE"
"977 803 OFFCURVE"
"1015 847 OFFCURVE"
"1044 875 CURVE"
"1107 937 OFFCURVE"
"1288 1036 OFFCURVE"
"1409 1036 CURVE"
"1521 1036 OFFCURVE"
"1703 928 OFFCURVE"
"1811 746 OFFCURVE"
"1811 634 CURVE"
"1811 521 OFFCURVE"
"1703 337 OFFCURVE"
"1521 228 OFFCURVE"
"1409 228 CURVE"
"1331 228 OFFCURVE"
"1198 273 OFFCURVE"
"1089 345 OFFCURVE"
"1046 387 CURVE"
"1022 410 OFFCURVE"
"977 463 OFFCURVE"
"960 486 CURVE"
"943 465 OFFCURVE"
"895 409 OFFCURVE"
"872 387 CURVE"
"830 346 OFFCURVE"
"721 273 OFFCURVE"
"589 228 OFFCURVE"
"511 228 CURVE"
"398 228 OFFCURVE"
"213 337 OFFCURVE"
"104 521 OFFCURVE"
"104 634 CURVE"
"104 746 OFFCURVE"
"213 929 OFFCURVE"
"398 1037 OFFCURVE"
);
},
{
closed = 1;
nodes = (
"278 634 LINE" 
"279 570 OFFCURVE"
"341 464 OFFCURVE"
"447 402 OFFCURVE"
"511 402 CURVE"
"580 402 OFFCURVE"
"698 465 OFFCURVE"
"750 515 CURVE"
"781 545 OFFCURVE"
"830 605 OFFCURVE"
"851 634 CURVE"
"837 653 OFFCURVE"
"785 719 OFFCURVE"
"750 752 CURVE"
"704 797 OFFCURVE"
"583 862 OFFCURVE"
"511 862 CURVE"
"447 862 OFFCURVE"
"341 801 OFFCURVE"
"279 697 OFFCURVE"
);
},
{
closed = 1;
nodes = (
"1637 634 LINE" 
"1638 697 OFFCURVE"
"1576 801 OFFCURVE"
"1472 862 OFFCURVE"
"1409 862 CURVE"
"1333 862 OFFCURVE"
"1213 796 OFFCURVE"
"1166 751 CURVE"
"1126 712 OFFCURVE"
"1079 648 OFFCURVE"
"1067 634 CURVE"
"1088 603 OFFCURVE"
"1137 544 OFFCURVE"
"1167 515 CURVE"
"1219 465 OFFCURVE"
"1338 402 OFFCURVE"
"1409 402 CURVE"
"1472 402 OFFCURVE"
"1576 464 OFFCURVE"
"1638 569 OFFCURVE"
);
},
);
},
);
}
{
unicode = "222B";
layers = (
{
layerId = "master-text-regular";
width = 748;
paths = (
{
closed = 1;
nodes = (
"94 -469 LINE" 
"63 -469 OFFCURVE"
"3 -461 OFFCURVE"
"-26 -451 CURVE"
"-8 -291 LINE" 
"6 -295 OFFCURVE"
"75 -302 OFFCURVE"
"90 -302 CURVE"
"163 -302 OFFCURVE"
"232 -222 OFFCURVE"
"232 -137 CURVE"
"232 1222 LINE" 
"232 1398 OFFCURVE"
"404 1587 OFFCURVE"
"567 1587 CURVE"
"606 1587 OFFCURVE"
"679 1575 OFFCURVE"
"716 1567 CURVE"
"692 1412 LINE" 
"674 1416 OFFCURVE"
"599 1420 OFFCURVE"
"569 1420 CURVE"
"490 1420 OFFCURVE"
"413 1325 OFFCURVE"
"413 1225 CURVE"
"413 -136 LINE" 
"413 -297 OFFCURVE"
"249 -469 OFFCURVE"
);
},
);
},
);
}
{
unicode = "0269,03B9";
layers = (
{
layerId = "master-text-regular";
width = 564;
paths = (
{
closed = 1;
nodes = (
"409 -8 LINE" 
"283 -8 OFFCURVE"
"158 127 OFFCURVE"
"158 248 CURVE"
"158 1118 LINE" 
"338 1118 LINE" 
"338 293 LINE" 
"338 216 OFFCURVE"
"375 153 OFFCURVE"
"431 153 CURVE"
"460 153 OFFCURVE"
"490 157 OFFCURVE"
"503 161 CURVE"
"539 9 LINE" 
"515 2 OFFCURVE"
"445 -8 OFFCURVE"
);
},
);
},
);
}
{
unicode = "EEBB";
layers = (
{
layerId = "master-text-regular";
width = 0;
paths = (
{
closed = 1;
nodes = (
"-666 -70 LINE" 
"-512 -70 LINE" 
"-512 -336 LINE" 
"-512 -373 OFFCURVE"
"-488 -414 OFFCURVE"
"-463 -414 CURVE"
"-452 -414 OFFCURVE"
"-426 -412 OFFCURVE"
"-419 -412 CURVE"
"-419 -514 LINE" 
"-428 -518 OFFCURVE"
"-467 -526 OFFCURVE"
"-496 -526 CURVE"
"-570 -526 OFFCURVE"
"-666 -438 OFFCURVE"
"-666 -340 CURVE"
);
},
);
},
);
}
{
unicode = "02B2";
layers = (
{
layerId = "master-text-regular";
width = 406;
paths = (
{
closed = 1;
nodes = (
"117 1517 LINE" 
"289 1517 LINE" 
"289 867 LINE" 
"289 793 OFFCURVE"
"221 706 OFFCURVE"
"100 670 OFFCURVE"
"19 670 CURVE"
"-7 670 LINE" 
"-7 799 LINE" 
"12 799 LINE" 
"65 799 OFFCURVE"
"117 833 OFFCURVE"
"117 865 CURVE"
);
},
{
closed = 1;
nodes = (
"203 1599 LINE" 
"164 1599 OFFCURVE"
"109 1647 OFFCURVE"
"109 1681 CURVE"
"109 1715 OFFCURVE"
"165 1763 OFFCURVE"
"203 1763 CURVE"
"242 1763 OFFCURVE"
"298 1715 OFFCURVE"
"298 1681 CURVE"
"298 1647 OFFCURVE"
"242 1599 OFFCURVE"
);
},
);
},
);
}
{
unicode = "E04F";
layers = (
{
layerId = "master-text-regular";
width = 710;
paths = (
{
closed = 1;
nodes = (
"264 -418 LINE" 
"174 -418 OFFCURVE"
"44 -348 OFFCURVE"
"-26 -228 OFFCURVE"
"-26 -154 CURVE"
"-26 -71 OFFCURVE"
"56 50 OFFCURVE"
"193 116 OFFCURVE"
"274 116 CURVE"
"768 116 LINE" 
"768 -46 LINE" 
"274 -46 LINE" 
"222 -47 OFFCURVE"
"158 -111 OFFCURVE"
"158 -158 CURVE"
"158 -201 OFFCURVE"
"216 -262 OFFCURVE"
"262 -262 CURVE"
"325 -262 OFFCURVE"
"382 -162 OFFCURVE"
"382 -116 CURVE"
"382 244 LINE" 
"552 244 LINE" 
"552 -98 LINE" 
"552 -161 OFFCURVE"
"514 -276 OFFCURVE"
"440 -366 OFFCURVE"
"333 -418 OFFCURVE"
);
},
{
closed = 1;
nodes = (
"382 0 LINE" 
"382 1118 LINE" 
"562 1118 LINE" 
"562 0 LINE" 
);
},
);
},
);
}
{
unicode = "EE17";
layers = (
{
layerId = "master-text-regular";
width = 1124;
paths = (
{
closed = 1;
nodes = (
"327 402 LINE" 
"327 625 LINE" 
"360 625 LINE" 
"838 1118 LINE" 
"1061 1118 LINE" 
"544 587 LINE" 
"524 587 LINE" 
);
},
{
closed = 1;
nodes = (
"158 0 LINE" 
"158 1118 LINE" 
"338 1118 LINE" 
"338 0 LINE" 
);
},
{
closed = 1;
nodes = (
"865 0 LINE" 
"437 547 LINE" 
"565 674 LINE" 
"1096 0 LINE" 
);
},
);
},
);
}
{
unicode = "1D4F";
layers = (
{
layerId = "master-text-regular";
width = 812;
paths = (
{
closed = 1;
nodes = (
"271 1073 LINE" 
"271 1280 LINE" 
"301 1280 LINE" 
"565 1517 LINE" 
"763 1517 LINE" 
"443 1205 LINE" 
"401 1204 LINE" 
);
},
{
closed = 1;
nodes = (
"117 898 LINE" 
"117 1710 LINE" 
"288 1710 LINE" 
"288 898 LINE" 
);
},
{
closed = 1;
nodes = (
"574 898 LINE" 
"337 1167 LINE" 
"452 1289 LINE" 
"775 898 LINE" 
);
},
);
},
);
}
{
unicode = "03F0";
layers = (
{
layerId = "master-text-regular";
width = 1484;
paths = (
{
closed = 1;
nodes = (
"243 0 LINE" 
"1052 1118 LINE" 
"1267 1118 LINE" 
"458 0 LINE" 
);
},
{
closed = 1;
nodes = (
"353 43 LINE" 
"353 782 LINE" 
"353 883 OFFCURVE"
"260 961 OFFCURVE"
"181 961 CURVE"
"166 961 OFFCURVE"
"131 957 OFFCURVE"
"116 954 CURVE"
"116 1114 LINE" 
"140 1121 OFFCURVE"
"209 1132 OFFCURVE"
"235 1132 CURVE"
"308 1132 OFFCURVE"
"427 1085 OFFCURVE"
"513 995 OFFCURVE"
"559 865 OFFCURVE"
"559 782 CURVE"
"559 228 LINE" 
);
},
{
closed = 1;
nodes = (
"1249 -20 LINE" 
"1176 -20 OFFCURVE"
"1056 27 OFFCURVE"
"971 117 OFFCURVE"
"925 247 OFFCURVE"
"925 329 CURVE"
"925 888 LINE" 
"1129 1075 LINE" 
"1129 328 LINE" 
"1129 228 OFFCURVE"
"1224 151 OFFCURVE"
"1303 151 CURVE"
"1317 151 OFFCURVE"
"1353 154 OFFCURVE"
"1368 158 CURVE"
"1368 -2 LINE" 
"1345 -12 OFFCURVE"
"1275 -20 OFFCURVE"
);
},
);
},
);
}
{
unicode = "0138";
layers = (
{
layerId = "master-text-regular";
width = 1076;
paths = (
{
closed = 1;
nodes = (
"338 1118 LINE" 
"338 0 LINE" 
"158 0 LINE" 
"158 1118 LINE" 
);
},
{
closed = 1;
nodes = (
"1048 1118 LINE" 
"517 494 LINE" 
"270 494 LINE" 
"270 622 LINE" 
"430 622 LINE" 
"829 1118 LINE" 
);
},
{
closed = 1;
nodes = (
"818 0 LINE" 
"411 499 LINE" 
"508 626 LINE" 
"1042 0 LINE" 
);
},
);
},
);
}
{
unicode = "029E";
layers = (
{
layerId = "master-text-regular";
width = 1124;
paths = (
{
closed = 1;
nodes = (
"797 716 LINE" 
"797 493 LINE" 
"764 493 LINE" 
"286 0 LINE" 
"63 0 LINE" 
"580 531 LINE" 
"600 531 LINE" 
);
},
{
closed = 1;
nodes = (
"966 1118 LINE" 
"966 -372 LINE" 
"786 -372 LINE" 
"786 1118 LINE" 
);
},
{
closed = 1;
nodes = (
"259 1118 LINE" 
"687 571 LINE" 
"559 444 LINE" 
"28 1118 LINE" 
);
},
);
},
);
}
{
unicode = "006C";
layers = (
{
layerId = "master-text-regular";
width = 496;
paths = (
{
closed = 1;
nodes = (
"338 1490 LINE" 
"338 0 LINE" 
"158 0 LINE" 
"158 1490 LINE" 
);
},
);
},
);
}
{
unicode = "029F";
layers = (
{
layerId = "master-text-regular";
width = 988;
paths = (
{
closed = 1;
nodes = (
"158 0 LINE" 
"158 1118 LINE" 
"338 1118 LINE" 
"338 166 LINE" 
"890 166 LINE" 
"890 0 LINE" 
);
},
);
},
);
}
{
unicode = "02E1";
layers = (
{
layerId = "master-text-regular";
width = 405;
paths = (
{
closed = 1;
nodes = (
"288 1710 LINE" 
"288 898 LINE" 
"117 898 LINE" 
"117 1710 LINE" 
);
},
);
},
);
}
{
unicode = "019B";
layers = (
{
layerId = "master-text-regular";
width = 1314;
paths = (
{
closed = 1;
nodes = (
"272 1081 LINE" 
"272 1233 LINE" 
"774 1424 LINE" 
"774 1269 LINE" 
);
},
{
closed = 1;
nodes = (
"54 0 LINE" 
"483 1128 LINE" 
"460 1188 LINE" 
"430 1268 OFFCURVE"
"360 1341 OFFCURVE"
"273 1354 OFFCURVE"
"216 1341 CURVE"
"198 1337 LINE" 
"152 1493 LINE" 
"169 1501 OFFCURVE"
"243 1514 OFFCURVE"
"284 1514 CURVE"
"362 1514 OFFCURVE"
"487 1460 OFFCURVE"
"584 1346 OFFCURVE"
"618 1255 CURVE"
"981 303 LINE" 
"1011 225 OFFCURVE"
"1081 150 OFFCURVE"
"1169 136 OFFCURVE"
"1225 148 CURVE"
"1243 152 LINE" 
"1289 -3 LINE" 
"1273 -10 OFFCURVE"
"1202 -24 OFFCURVE"
"1157 -24 CURVE"
"1081 -24 OFFCURVE"
"956 30 OFFCURVE"
"859 144 OFFCURVE"
"825 235 CURVE"
"665 663 LINE" 
"625 770 OFFCURVE"
"572 967 OFFCURVE"
"542 1067 CURVE"
"608 1067 LINE" 
"579 971 OFFCURVE"
"527 767 OFFCURVE"
"489 663 CURVE"
"251 0 LINE" 
);
},
);
},
);
}
{
unicode = "E10F";
layers = (
{
layerId = "master-text-regular";
width = 1083;
paths = (
{
closed = 1;
nodes = (
"384 -89 LINE" 
"384 87 LINE" 
"491 87 LINE" 
"646 87 OFFCURVE"
"829 262 OFFCURVE"
"829 412 CURVE"
"829 563 OFFCURVE"
"645 743 OFFCURVE"
"491 743 CURVE"
"335 743 OFFCURVE"
"153 553 OFFCURVE"
"153 389 CURVE"
"64 389 LINE" 
"64 563 OFFCURVE"
"160 800 OFFCURVE"
"352 920 OFFCURVE"
"494 920 CURVE"
"648 920 OFFCURVE"
"884 791 OFFCURVE"
"1019 562 OFFCURVE"
"1019 412 CURVE"
"1019 263 OFFCURVE"
"884 37 OFFCURVE"
"646 -89 OFFCURVE"
"491 -89 CURVE"
);
},
);
},
);
}
{
unicode = "1F850";
layers = (
{
layerId = "master-text-regular";
width = 5492;
paths = (
{
closed = 1;
nodes = (
"860 -6 LINE" 
"202 652 LINE" 
"860 1310 LINE" 
"976 1194 LINE" 
"516 735 LINE" 
"5236 735 LINE" 
"5236 569 LINE" 
"516 569 LINE" 
"976 110 LINE" 
);
},
);
},
);
}
{
unicode = "003C";
layers = (
{
layerId = "master-text-regular";
width = 1355;
paths = (
{
closed = 1;
nodes = (
"174 520 LINE" 
"174 646 LINE" 
"1118 1122 LINE" 
"1118 926 LINE" 
"400 585 LINE" 
"406 597 LINE" 
"406 569 LINE" 
"400 579 LINE" 
"1118 238 LINE" 
"1118 44 LINE" 
);
},
);
},
);
}
{
unicode = "2264";
layers = (
{
layerId = "master-text-regular";
width = 1355;
paths = (
{
closed = 1;
nodes = (
"1150 69 LINE" 
"206 69 LINE" 
"206 237 LINE" 
"1150 237 LINE" 
);
},
{
closed = 1;
nodes = (
"206 683 LINE" 
"206 810 LINE" 
"1150 1143 LINE" 
"1150 961 LINE" 
"493 751 LINE" 
"499 763 LINE" 
"499 732 LINE" 
"493 745 LINE" 
"1150 533 LINE" 
"1150 352 LINE" 
);
},
);
},
);
}
{
unicode = "02C8";
layers = (
{
layerId = "master-text-regular";
width = 363;
paths = (
{
closed = 1;
nodes = (
"259 1561 LINE" 
"259 1151 LINE" 
"104 1151 LINE" 
"104 1561 LINE" 
);
},
);
},
);
}
{
unicode = "20A4";
layers = (
{
layerId = "master-text-regular";
width = 1251;
paths = (
{
closed = 1;
nodes = (
"110 120 LINE" 
"110 167 LINE" 
"199 167 OFFCURVE"
"276 269 OFFCURVE"
"273 366 CURVE"
"252 1050 LINE" 
"248 1181 OFFCURVE"
"357 1389 OFFCURVE"
"563 1510 OFFCURVE"
"705 1510 CURVE"
"819 1510 OFFCURVE"
"1002 1418 OFFCURVE"
"1121 1251 OFFCURVE"
"1138 1138 CURVE"
"965 1110 LINE" 
"946 1217 OFFCURVE"
"813 1343 OFFCURVE"
"706 1343 CURVE"
"611 1343 OFFCURVE"
"487 1266 OFFCURVE"
"429 1136 OFFCURVE"
"431 1055 CURVE"
"452 373 LINE" 
"454 306 OFFCURVE"
"402 215 OFFCURVE"
"317 159 OFFCURVE"
"221 130 OFFCURVE"
"136 120 OFFCURVE"
);
},
{
closed = 1;
nodes = (
"110 0 LINE" 
"110 167 LINE" 
"886 167 LINE" 
"932 167 OFFCURVE"
"970 206 OFFCURVE"
"970 251 CURVE"
"970 313 LINE" 
"1139 313 LINE" 
"1139 266 LINE" 
"1139 133 OFFCURVE"
"1014 0 OFFCURVE"
"880 0 CURVE"
);
},
{
closed = 1;
nodes = (
"110 493 LINE" 
"110 626 LINE" 
"923 626 LINE" 
"923 493 LINE" 
);
},
{
closed = 1;
nodes = (
"110 794 LINE" 
"110 926 LINE" 
"923 926 LINE" 
"923 794 LINE" 
);
},
);
},
);
}
{
unicode = "00AC";
layers = (
{
layerId = "master-text-regular";
width = 1355;
paths = (
{
closed = 1;
nodes = (
"891 315 LINE" 
"891 586 LINE" 
"224 586 LINE" 
"224 745 LINE" 
"1060 745 LINE" 
"1060 315 LINE" 
);
},
);
},
);
}
{
unicode = "25CA";
layers = (
{
layerId = "master-text-regular";
width = 1128;
paths = (
{
closed = 1;
nodes = (
"82 744 LINE" 
"481 1490 LINE" 
"618 1490 LINE" 
"599 1339 LINE" 
"296 744 LINE" 
"605 148 LINE" 
"621 0 LINE" 
"483 0 LINE" 
);
},
{
closed = 1;
nodes = (
"529 148 LINE" 
"832 744 LINE" 
"520 1339 LINE" 
"507 1490 LINE" 
"641 1490 LINE" 
"1046 744 LINE" 
"647 0 LINE" 
"509 0 LINE" 
);
},
);
},
);
}
{
unicode = "026D";
layers = (
{
layerId = "master-text-regular";
width = 496;
paths = (
{
closed = 1;
nodes = (
"448 -427 LINE" 
"306 -427 OFFCURVE"
"158 -295 OFFCURVE"
"158 -171 CURVE"
"158 0 LINE" 
"338 0 LINE" 
"338 -171 LINE" 
"338 -223 OFFCURVE"
"411 -272 OFFCURVE"
"494 -272 CURVE"
"507 -272 OFFCURVE"
"537 -270 OFFCURVE"
"553 -268 CURVE"
"553 -418 LINE" 
"538 -422 OFFCURVE"
"481 -427 OFFCURVE"
);
},
{
closed = 1;
nodes = (
"338 1490 LINE" 
"338 0 LINE" 
"158 0 LINE" 
"158 1490 LINE" 
);
},
);
},
);
}
{
unicode = "026E";
layers = (
{
layerId = "master-text-regular";
width = 1313;
paths = (
{
closed = 1;
nodes = (
"180 1490 LINE" 
"361 1490 LINE" 
"361 4 LINE" 
"180 4 LINE" 
);
},
{
closed = 1;
nodes = (
"441 -182 LINE" 
"485 -226 OFFCURVE"
"613 -277 OFFCURVE"
"692 -277 CURVE"
"785 -277 OFFCURVE"
"927 -200 OFFCURVE"
"1008 -57 OFFCURVE"
"1008 41 CURVE"
"1008 137 OFFCURVE"
"927 274 OFFCURVE"
"785 347 OFFCURVE"
"691 347 CURVE"
"548 347 LINE" 
"548 499 LINE" 
"917 939 LINE" 
"917 951 LINE" 
"282 951 LINE" 
"282 1118 LINE" 
"1168 1118 LINE" 
"1168 980 LINE" 
"765 503 LINE" 
"765 491 LINE" 
"897 477 OFFCURVE"
"1091 361 OFFCURVE"
"1197 169 OFFCURVE"
"1197 39 CURVE"
"1197 -106 OFFCURVE"
"1067 -323 OFFCURVE"
"838 -444 OFFCURVE"
"688 -444 CURVE"
"571 -444 OFFCURVE"
"378 -372 OFFCURVE"
"310 -311 CURVE"
);
},
);
},
);
}
{
unicode = "006D";
layers = (
{
layerId = "master-text-regular";
width = 1794;
paths = (
{
closed = 1;
nodes = (
"158 0 LINE" 
"158 1118 LINE" 
"333 1118 LINE" 
"334 868 LINE" 
"320 868 LINE" 
"343 959 OFFCURVE"
"442 1078 OFFCURVE"
"575 1138 OFFCURVE"
"647 1138 CURVE"
"769 1138 OFFCURVE"
"920 988 OFFCURVE"
"942 866 CURVE"
"918 866 LINE" 
"938 950 OFFCURVE"
"1044 1072 OFFCURVE"
"1195 1138 OFFCURVE"
"1284 1138 CURVE"
"1381 1138 OFFCURVE"
"1541 1054 OFFCURVE"
"1636 884 OFFCURVE"
"1636 754 CURVE"
"1636 0 LINE" 
"1456 0 LINE" 
"1456 749 LINE" 
"1456 870 OFFCURVE"
"1320 974 OFFCURVE"
"1230 974 CURVE"
"1155 974 OFFCURVE"
"1046 911 OFFCURVE"
"987 801 OFFCURVE"
"987 730 CURVE"
"987 0 LINE" 
"807 0 LINE" 
"807 767 LINE" 
"807 860 OFFCURVE"
"683 974 OFFCURVE"
"588 974 CURVE"
"523 974 OFFCURVE"
"408 913 OFFCURVE"
"338 793 OFFCURVE"
"338 704 CURVE"
"338 0 LINE" 
);
},
);
},
);
}
{
unicode = "1D0D";
layers = (
{
layerId = "master-text-regular";
width = 1577;
paths = (
{
closed = 1;
nodes = (
"158 0 LINE" 
"158 1118 LINE" 
"428 1118 LINE" 
"683 500 LINE" 
"707 442 OFFCURVE"
"743 340 OFFCURVE"
"770 248 OFFCURVE"
"793 159 OFFCURVE"
"804 114 CURVE"
"774 114 LINE" 
"784 157 OFFCURVE"
"806 244 OFFCURVE"
"833 338 OFFCURVE"
"869 441 OFFCURVE"
"893 500 CURVE"
"1145 1118 LINE" 
"1419 1118 LINE" 
"1419 0 LINE" 
"1238 0 LINE" 
"1238 584 LINE" 
"1238 641 OFFCURVE"
"1239 755 OFFCURVE"
"1241 871 OFFCURVE"
"1243 989 OFFCURVE"
"1244 1049 CURVE"
"1264 1049 LINE" 
"1241 960 OFFCURVE"
"1199 816 OFFCURVE"
"1147 673 OFFCURVE"
"1110 584 CURVE"
"866 0 LINE" 
"708 0 LINE" 
"461 584 LINE" 
"424 672 OFFCURVE"
"372 815 OFFCURVE"
"329 960 OFFCURVE"
"306 1049 CURVE"
"330 1049 LINE" 
"331 998 OFFCURVE"
"334 884 OFFCURVE"
"336 764 OFFCURVE"
"337 643 OFFCURVE"
"337 584 CURVE"
"337 0 LINE" 
);
},
);
},
);
}
{
unicode = "1D50";
layers = (
{
layerId = "master-text-regular";
width = 1278;
paths = (
{
closed = 1;
nodes = (
"117 898 LINE" 
"117 1517 LINE" 
"274 1517 LINE" 
"285 1354 LINE" 
"271 1354 LINE" 
"294 1445 OFFCURVE"
"421 1524 OFFCURVE"
"496 1524 CURVE"
"548 1524 OFFCURVE"
"626 1487 OFFCURVE"
"680 1405 OFFCURVE"
"697 1337 CURVE"
"675 1337 LINE" 
"692 1405 OFFCURVE"
"768 1487 OFFCURVE"
"871 1524 OFFCURVE"
"927 1524 CURVE"
"1030 1524 OFFCURVE"
"1161 1413 OFFCURVE"
"1161 1317 CURVE"
"1161 898 LINE" 
"989 898 LINE" 
"989 1278 LINE" 
"989 1329 OFFCURVE"
"916 1384 OFFCURVE"
"859 1384 CURVE"
"798 1384 OFFCURVE"
"722 1326 OFFCURVE"
"722 1276 CURVE"
"722 898 LINE" 
"556 898 LINE" 
"556 1280 LINE" 
"556 1328 OFFCURVE"
"486 1384 OFFCURVE"
"428 1384 CURVE"
"368 1384 OFFCURVE"
"288 1325 OFFCURVE"
"288 1274 CURVE"
"288 898 LINE" 
);
},
);
},
);
}
{
unicode = "E111";
layers = (
{
layerId = "master-text-regular";
width = 978;
paths = (
{
closed = 1;
nodes = (
"766 1463 LINE" 
"766 1321 LINE" 
"212 1321 LINE" 
"212 1463 LINE" 
);
},
{
closed = 1;
nodes = (
"704 1598 LINE" 
"655 1598 OFFCURVE"
"585 1668 OFFCURVE"
"585 1717 CURVE"
"585 1766 OFFCURVE"
"655 1835 OFFCURVE"
"704 1835 CURVE"
"753 1835 OFFCURVE"
"822 1766 OFFCURVE"
"822 1717 CURVE"
"822 1668 OFFCURVE"
"753 1598 OFFCURVE"
);
},
{
closed = 1;
nodes = (
"283 1598 LINE" 
"234 1598 OFFCURVE"
"164 1668 OFFCURVE"
"164 1717 CURVE"
"164 1766 OFFCURVE"
"234 1835 OFFCURVE"
"283 1835 CURVE"
"332 1835 OFFCURVE"
"401 1766 OFFCURVE"
"401 1717 CURVE"
"401 1668 OFFCURVE"
"332 1598 OFFCURVE"
);
},
);
},
);
}
{
unicode = "E2D6";
layers = (
{
layerId = "master-text-regular";
width = 978;
paths = (
{
closed = 1;
nodes = (
"766 1463 LINE" 
"766 1321 LINE" 
"212 1321 LINE" 
"212 1463 LINE" 
);
},
{
closed = 1;
nodes = (
"185 1591 LINE" 
"185 1787 LINE" 
"381 1787 LINE" 
"381 1591 LINE" 
);
},
{
closed = 1;
nodes = (
"605 1591 LINE" 
"605 1787 LINE" 
"801 1787 LINE" 
"801 1591 LINE" 
);
},
);
},
);
}
{
unicode = "019C";
layers = (
{
layerId = "master-text-regular";
width = 1859;
paths = (
{
closed = 1;
nodes = (
"1487 215 LINE" 
"1487 1490 LINE" 
"1693 1490 LINE" 
"1693 0 LINE" 
"1498 0 LINE" 
);
},
{
closed = 1;
nodes = (
"1504 504 LINE" 
"1596 506 LINE" 
"1596 355 OFFCURVE"
"1512 117 OFFCURVE"
"1331 -20 OFFCURVE"
"1183 -20 CURVE"
"1077 -20 OFFCURVE"
"916 66 OFFCURVE"
"826 267 OFFCURVE"
"826 441 CURVE"
"826 1490 LINE" 
"1032 1490 LINE" 
"1032 441 LINE" 
"1032 326 OFFCURVE"
"1087 200 OFFCURVE"
"1173 152 OFFCURVE"
"1220 152 CURVE"
"1333 152 OFFCURVE"
"1456 255 OFFCURVE"
"1504 417 OFFCURVE"
);
},
{
closed = 1;
nodes = (
"846 504 LINE" 
"938 506 LINE" 
"939 355 OFFCURVE"
"853 117 OFFCURVE"
"669 -20 OFFCURVE"
"521 -20 CURVE"
"413 -20 OFFCURVE"
"253 67 OFFCURVE"
"166 269 OFFCURVE"
"166 441 CURVE"
"166 1490 LINE" 
"374 1490 LINE" 
"374 441 LINE" 
"374 326 OFFCURVE"
"427 200 OFFCURVE"
"511 152 OFFCURVE"
"557 152 CURVE"
"653 152 OFFCURVE"
"768 224 OFFCURVE"
"827 334 OFFCURVE"
"846 455 OFFCURVE"
);
},
);
},
);
}
{
unicode = "2212";
layers = (
{
layerId = "master-text-regular";
width = 1355;
paths = (
{
closed = 1;
nodes = (
"1147 669 LINE" 
"1147 497 LINE" 
"210 497 LINE" 
"210 669 LINE" 
);
},
);
},
);
}
{
unicode = "E0C9";
layers = (
{
layerId = "master-text-regular";
width = 781;
paths = (
{
closed = 1;
nodes = (
"665 468 LINE" 
"665 336 LINE" 
"116 336 LINE" 
"116 468 LINE" 
);
},
);
},
);
}
{
unicode = "207B";
layers = (
{
layerId = "master-text-regular";
width = 879;
paths = (
{
closed = 1;
nodes = (
"740 1337 LINE" 
"740 1195 LINE" 
"139 1195 LINE" 
"139 1337 LINE" 
);
},
);
},
);
}
{
unicode = "0270";
layers = (
{
layerId = "master-text-regular";
width = 1794;
paths = (
{
closed = 1;
nodes = (
"1450 -418 LINE" 
"1450 0 LINE" 
"1624 0 LINE" 
"1624 -418 LINE" 
);
},
{
closed = 1;
nodes = (
"1636 1118 LINE" 
"1636 0 LINE" 
"1461 0 LINE" 
"1460 250 LINE" 
"1474 250 LINE" 
"1452 160 OFFCURVE"
"1352 40 OFFCURVE"
"1220 -20 OFFCURVE"
"1147 -20 CURVE"
"1026 -20 OFFCURVE"
"875 131 OFFCURVE"
"852 252 CURVE"
"876 252 LINE" 
"856 169 OFFCURVE"
"751 46 OFFCURVE"
"599 -20 OFFCURVE"
"510 -20 CURVE"
"413 -20 OFFCURVE"
"253 64 OFFCURVE"
"158 235 OFFCURVE"
"158 364 CURVE"
"158 1118 LINE" 
"338 1118 LINE" 
"338 369 LINE" 
"338 248 OFFCURVE"
"474 144 OFFCURVE"
"564 144 CURVE"
"640 144 OFFCURVE"
"748 207 OFFCURVE"
"807 318 OFFCURVE"
"807 388 CURVE"
"807 1118 LINE" 
"987 1118 LINE" 
"987 351 LINE" 
"987 258 OFFCURVE"
"1112 144 OFFCURVE"
"1206 144 CURVE"
"1272 144 OFFCURVE"
"1386 205 OFFCURVE"
"1456 325 OFFCURVE"
"1456 414 CURVE"
"1456 1118 LINE" 
);
},
);
},
);
}
{
unicode = "00D7";
layers = (
{
layerId = "master-text-regular";
width = 1355;
paths = (
{
closed = 1;
nodes = (
"1034 112 LINE" 
"210 936 LINE" 
"326 1054 LINE" 
"1150 228 LINE" 
);
},
{
closed = 1;
nodes = (
"326 112 LINE" 
"210 228 LINE" 
"1034 1054 LINE" 
"1150 936 LINE" 
);
},
);
},
);
}
{
unicode = "266A";
layers = (
{
layerId = "master-text-regular";
width = 1596;
paths = (
{
closed = 1;
nodes = (
"423 -126 LINE" 
"331 -126 OFFCURVE"
"195 -62 OFFCURVE"
"122 49 OFFCURVE"
"122 119 CURVE"
"122 189 OFFCURVE"
"192 309 OFFCURVE"
"312 382 OFFCURVE"
"386 382 CURVE"
"452 382 OFFCURVE"
"567 319 OFFCURVE"
"648 220 OFFCURVE"
"663 165 CURVE"
"871 221 LINE" 
"871 126 OFFCURVE"
"741 -32 OFFCURVE"
"536 -126 OFFCURVE"
);
},
{
closed = 1;
nodes = (
"711 157 LINE" 
"711 1490 LINE" 
"951 1490 LINE" 
"1059 1490 OFFCURVE"
"1249 1409 OFFCURVE"
"1393 1266 OFFCURVE"
"1474 1078 OFFCURVE"
"1474 971 CURVE"
"1474 868 OFFCURVE"
"1397 685 OFFCURVE"
"1331 615 CURVE"
"1215 719 LINE" 
"1260 766 OFFCURVE"
"1314 898 OFFCURVE"
"1314 971 CURVE"
"1314 1073 OFFCURVE"
"1215 1239 OFFCURVE"
"1051 1338 OFFCURVE"
"951 1338 CURVE"
"871 1338 LINE" 
"871 221 LINE" 
);
},
);
},
);
}
{
unicode = "266B";
layers = (
{
layerId = "master-text-regular";
width = 2033;
paths = (
{
closed = 1;
nodes = (
"1853 404 LINE" 
"1693 340 LINE" 
"1693 1270 LINE" 
"871 1105 LINE" 
"871 221 LINE" 
"711 157 LINE" 
"711 1373 LINE" 
"1853 1602 LINE" 
);
},
{
closed = 1;
nodes = (
"1405 57 LINE" 
"1313 57 OFFCURVE"
"1177 121 OFFCURVE"
"1104 232 OFFCURVE"
"1104 302 CURVE"
"1104 372 OFFCURVE"
"1174 492 OFFCURVE"
"1294 565 OFFCURVE"
"1368 565 CURVE"
"1434 565 OFFCURVE"
"1549 502 OFFCURVE"
"1630 403 OFFCURVE"
"1645 348 CURVE"
"1853 404 LINE" 
"1853 309 OFFCURVE"
"1723 151 OFFCURVE"
"1518 57 OFFCURVE"
);
},
{
closed = 1;
nodes = (
"423 -126 LINE" 
"331 -126 OFFCURVE"
"195 -62 OFFCURVE"
"122 49 OFFCURVE"
"122 119 CURVE"
"122 189 OFFCURVE"
"192 309 OFFCURVE"
"312 382 OFFCURVE"
"386 382 CURVE"
"452 382 OFFCURVE"
"567 319 OFFCURVE"
"648 220 OFFCURVE"
"663 165 CURVE"
"871 221 LINE" 
"871 126 OFFCURVE"
"741 -32 OFFCURVE"
"536 -126 OFFCURVE"
);
},
);
},
);
}
{
unicode = "006E";
layers = (
{
layerId = "master-text-regular";
width = 1210;
paths = (
{
closed = 1;
nodes = (
"338 670 LINE" 
"338 0 LINE" 
"158 0 LINE" 
"158 1118 LINE" 
"331 1118 LINE" 
"332 847 LINE" 
"307 847 LINE" 
"358 1002 OFFCURVE"
"547 1132 OFFCURVE"
"674 1132 CURVE"
"787 1132 OFFCURVE"
"957 1039 OFFCURVE"
"1052 852 OFFCURVE"
"1052 710 CURVE"
"1052 0 LINE" 
"872 0 LINE" 
"872 695 LINE" 
"872 824 OFFCURVE"
"737 970 OFFCURVE"
"620 970 CURVE"
"540 970 OFFCURVE"
"412 900 OFFCURVE"
"338 766 OFFCURVE"
);
},
);
},
);
}
{
unicode = "E0A6";
layers = (
{
layerId = "master-text-regular";
width = 891;
paths = (
{
closed = 1;
nodes = (
"255 1238 LINE" 
"255 744 LINE" 
"96 744 LINE" 
"96 1536 LINE" 
"249 1536 LINE" 
"249 1408 LINE" 
"255 1408 LINE" 
"281 1470 OFFCURVE"
"398 1544 OFFCURVE"
"479 1544 CURVE"
"592 1544 OFFCURVE"
"735 1398 OFFCURVE"
"735 1271 CURVE"
"735 744 LINE" 
"576 744 LINE" 
"576 1244 LINE" 
"576 1321 OFFCURVE"
"490 1410 OFFCURVE"
"419 1410 CURVE"
"348 1410 OFFCURVE"
"255 1318 OFFCURVE"
);
},
);
},
);
}
{
unicode = "0274";
layers = (
{
layerId = "master-text-regular";
width = 1298;
paths = (
{
closed = 1;
nodes = (
"158 0 LINE" 
"158 1118 LINE" 
"401 1118 LINE" 
"799 479 LINE" 
"857 386 OFFCURVE"
"946 221 OFFCURVE"
"985 136 CURVE"
"969 136 LINE" 
"967 191 OFFCURVE"
"963 297 OFFCURVE"
"961 412 OFFCURVE"
"961 479 CURVE"
"961 1118 LINE" 
"1140 1118 LINE" 
"1140 0 LINE" 
"902 0 LINE" 
"502 641 LINE" 
"442 737 OFFCURVE"
"351 905 OFFCURVE"
"313 987 CURVE"
"330 987 LINE" 
"333 905 OFFCURVE"
"338 742 OFFCURVE"
"338 641 CURVE"
"338 0 LINE" 
);
},
);
},
);
}
{
unicode = "207F";
layers = (
{
layerId = "master-text-regular";
width = 891;
paths = (
{
closed = 1;
nodes = (
"288 1264 LINE" 
"288 898 LINE" 
"117 898 LINE" 
"117 1517 LINE" 
"277 1517 LINE" 
"280 1366 LINE" 
"276 1366 LINE" 
"302 1435 OFFCURVE"
"422 1523 OFFCURVE"
"516 1523 CURVE"
"593 1523 OFFCURVE"
"709 1466 OFFCURVE"
"774 1364 OFFCURVE"
"774 1296 CURVE"
"774 898 LINE" 
"602 898 LINE" 
"602 1264 LINE" 
"602 1320 OFFCURVE"
"519 1384 OFFCURVE"
"450 1384 CURVE"
"379 1384 OFFCURVE"
"288 1318 OFFCURVE"
);
},
);
},
);
}
{
unicode = "0039";
layers = (
{
layerId = "master-text-regular";
width = 1270;
paths = (
{
closed = 1;
nodes = (
"603 -20 LINE" 
"476 -20 OFFCURVE"
"278 80 OFFCURVE"
"152 260 OFFCURVE"
"134 379 CURVE"
"322 379 LINE" 
"345 280 OFFCURVE"
"485 148 OFFCURVE"
"603 148 CURVE"
"717 148 OFFCURVE"
"881 282 OFFCURVE"
"970 536 OFFCURVE"
"970 716 CURVE"
"958 716 LINE" 
"918 655 OFFCURVE"
"806 566 OFFCURVE"
"669 517 OFFCURVE"
"591 517 CURVE"
"463 517 OFFCURVE"
"249 644 OFFCURVE"
"122 867 OFFCURVE"
"122 1010 CURVE"
"122 1149 OFFCURVE"
"248 1378 OFFCURVE"
"475 1513 OFFCURVE"
"628 1510 CURVE"
"720 1509 OFFCURVE"
"904 1440 OFFCURVE"
"1056 1282 OFFCURVE"
"1148 1010 OFFCURVE"
"1148 804 CURVE"
"1148 606 OFFCURVE"
"1073 300 OFFCURVE"
"931 89 OFFCURVE"
"729 -20 OFFCURVE"
);
},
{
closed = 1;
nodes = (
"619 683 LINE" 
"687 683 OFFCURVE"
"805 737 OFFCURVE"
"893 830 OFFCURVE"
"943 949 OFFCURVE"
"943 1015 CURVE"
"943 1101 OFFCURVE"
"860 1250 OFFCURVE"
"717 1343 OFFCURVE"
"625 1343 CURVE"
"535 1343 OFFCURVE"
"392 1254 OFFCURVE"
"308 1103 OFFCURVE"
"308 1011 CURVE"
"308 920 OFFCURVE"
"389 771 OFFCURVE"
"529 683 OFFCURVE"
);
},
);
},
);
}
{
unicode = "E0BD";
layers = (
{
layerId = "master-text-regular";
width = 780;
paths = (
{
closed = 1;
nodes = (
"375 -10 LINE" 
"298 -10 OFFCURVE"
"176 50 OFFCURVE"
"98 155 OFFCURVE"
"87 221 CURVE"
"247 221 LINE" 
"261 183 OFFCURVE"
"326 131 OFFCURVE"
"378 131 CURVE"
"428 131 OFFCURVE"
"505 187 OFFCURVE"
"549 299 OFFCURVE"
"549 382 CURVE"
"539 382 LINE" 
"502 329 OFFCURVE"
"398 269 OFFCURVE"
"336 269 CURVE"
"266 269 OFFCURVE"
"148 338 OFFCURVE"
"78 459 OFFCURVE"
"78 537 CURVE"
"78 620 OFFCURVE"
"157 751 OFFCURVE"
"296 825 OFFCURVE"
"386 822 CURVE"
"427 821 OFFCURVE"
"534 795 OFFCURVE"
"635 717 OFFCURVE"
"702 560 OFFCURVE"
"702 428 CURVE"
"702 276 OFFCURVE"
"612 82 OFFCURVE"
"464 -10 OFFCURVE"
);
},
{
closed = 1;
nodes = (
"378 394 LINE" 
"422 394 OFFCURVE"
"488 437 OFFCURVE"
"528 505 OFFCURVE"
"531 540 CURVE"
"536 593 OFFCURVE"
"451 690 OFFCURVE"
"383 690 CURVE"
"319 690 OFFCURVE"
"236 603 OFFCURVE"
"236 541 CURVE"
"236 480 OFFCURVE"
"314 394 OFFCURVE"
);
},
);
},
);
}
{
layers = (
{
layerId = "master-text-regular";
width = 708;
paths = (
{
closed = 1;
nodes = (
"352 822 LINE" 
"430 822 OFFCURVE"
"556 757 OFFCURVE"
"630 636 OFFCURVE"
"630 552 CURVE"
"630 490 OFFCURVE"
"583 354 OFFCURVE"
"518 256 CURVE"
"350 0 LINE" 
"188 0 LINE" 
"446 394 LINE" 
"482 394 LINE" 
"464 359 OFFCURVE"
"367 319 OFFCURVE"
"323 319 CURVE"
"247 319 OFFCURVE"
"137 374 OFFCURVE"
"78 481 OFFCURVE"
"78 558 CURVE"
"78 675 OFFCURVE"
"234 822 OFFCURVE"
);
},
{
closed = 1;
nodes = (
"352 693 LINE" 
"295 693 OFFCURVE"
"228 621 OFFCURVE"
"228 560 CURVE"
"228 496 OFFCURVE"
"295 425 OFFCURVE"
"352 425 CURVE"
"411 425 OFFCURVE"
"479 496 OFFCURVE"
"479 557 CURVE"
"479 620 OFFCURVE"
"411 693 OFFCURVE"
);
},
);
},
);
}
{
unicode = "E070";
layers = (
{
layerId = "master-text-regular";
width = 1191;
paths = (
{
closed = 1;
nodes = (
"595 1510 LINE" 
"733 1510 OFFCURVE"
"947 1384 OFFCURVE"
"1069 1161 OFFCURVE"
"1069 1017 CURVE"
"1069 911 OFFCURVE"
"977 674 OFFCURVE"
"857 497 CURVE"
"520 0 LINE" 
"315 0 LINE" 
"813 727 LINE" 
"831 727 LINE" 
"811 685 OFFCURVE"
"734 616 OFFCURVE"
"631 575 OFFCURVE"
"571 575 CURVE"
"436 575 OFFCURVE"
"234 688 OFFCURVE"
"122 893 OFFCURVE"
"122 1032 CURVE"
"122 1171 OFFCURVE"
"245 1386 OFFCURVE"
"459 1510 OFFCURVE"
);
},
{
closed = 1;
nodes = (
"595 1347 LINE" 
"510 1347 OFFCURVE"
"378 1265 OFFCURVE"
"303 1123 OFFCURVE"
"303 1032 CURVE"
"303 939 OFFCURVE"
"378 797 OFFCURVE"
"510 717 OFFCURVE"
"595 717 CURVE"
"681 717 OFFCURVE"
"814 796 OFFCURVE"
"889 937 OFFCURVE"
"889 1028 CURVE"
"889 1121 OFFCURVE"
"814 1265 OFFCURVE"
"682 1347 OFFCURVE"
);
},
);
},
);
}
{
unicode = "2079";
layers = (
{
layerId = "master-text-regular";
width = 909;
paths = (
{
closed = 1;
nodes = (
"436 886 LINE" 
"344 886 OFFCURVE"
"201 952 OFFCURVE"
"115 1063 OFFCURVE"
"106 1131 CURVE"
"279 1131 LINE" 
"290 1087 OFFCURVE"
"374 1038 OFFCURVE"
"436 1038 CURVE"
"503 1038 OFFCURVE"
"595 1104 OFFCURVE"
"643 1226 OFFCURVE"
"643 1309 CURVE"
"636 1309 LINE" 
"606 1251 OFFCURVE"
"467 1182 OFFCURVE"
"384 1182 CURVE"
"301 1182 OFFCURVE"
"169 1248 OFFCURVE"
"93 1364 OFFCURVE"
"93 1438 CURVE"
"93 1519 OFFCURVE"
"181 1650 OFFCURVE"
"345 1726 OFFCURVE"
"458 1722 CURVE"
"531 1720 OFFCURVE"
"660 1672 OFFCURVE"
"759 1576 OFFCURVE"
"816 1426 OFFCURVE"
"816 1321 CURVE"
"816 1191 OFFCURVE"
"726 995 OFFCURVE"
"556 886 OFFCURVE"
);
},
{
closed = 1;
nodes = (
"445 1301 LINE" 
"496 1301 OFFCURVE"
"581 1340 OFFCURVE"
"630 1407 OFFCURVE"
"625 1450 CURVE"
"618 1508 OFFCURVE"
"521 1588 OFFCURVE"
"444 1588 CURVE"
"365 1588 OFFCURVE"
"262 1505 OFFCURVE"
"262 1445 CURVE"
"262 1384 OFFCURVE"
"366 1301 OFFCURVE"
);
},
);
},
);
}
{
layers = (
{
layerId = "master-text-regular";
width = 866;
paths = (
{
closed = 1;
nodes = (
"431 1721 LINE" 
"523 1721 OFFCURVE"
"678 1659 OFFCURVE"
"773 1538 OFFCURVE"
"773 1449 CURVE"
"773 1384 OFFCURVE"
"719 1263 OFFCURVE"
"666 1200 CURVE"
"411 898 LINE" 
"241 898 LINE" 
"545 1263 LINE" 
"599 1263 LINE" 
"586 1245 OFFCURVE"
"524 1212 OFFCURVE"
"439 1191 OFFCURVE"
"390 1191 CURVE"
"304 1191 OFFCURVE"
"169 1251 OFFCURVE"
"93 1363 OFFCURVE"
"93 1441 CURVE"
"93 1526 OFFCURVE"
"182 1651 OFFCURVE"
"335 1721 OFFCURVE"
);
},
{
closed = 1;
nodes = (
"431 1588 LINE" 
"355 1588 OFFCURVE"
"255 1508 OFFCURVE"
"255 1447 CURVE"
"255 1387 OFFCURVE"
"355 1307 OFFCURVE"
"431 1307 CURVE"
"507 1307 OFFCURVE"
"608 1387 OFFCURVE"
"608 1447 CURVE"
"608 1508 OFFCURVE"
"507 1588 OFFCURVE"
);
},
);
},
);
}
{
unicode = "0272";
layers = (
{
layerId = "master-text-regular";
width = 1210;
paths = (
{
closed = 1;
nodes = (
"48 -427 LINE" 
"15 -427 OFFCURVE"
"-42 -422 OFFCURVE"
"-57 -418 CURVE"
"-57 -268 LINE" 
"-42 -270 OFFCURVE"
"-10 -272 OFFCURVE"
"2 -272 CURVE"
"85 -272 OFFCURVE"
"158 -223 OFFCURVE"
"158 -171 CURVE"
"158 0 LINE" 
"338 0 LINE" 
"338 -171 LINE" 
"338 -295 OFFCURVE"
"190 -427 OFFCURVE"
);
},
{
closed = 1;
nodes = (
"338 670 LINE" 
"338 0 LINE" 
"158 0 LINE" 
"158 1118 LINE" 
"331 1118 LINE" 
"332 847 LINE" 
"307 847 LINE" 
"358 1002 OFFCURVE"
"547 1132 OFFCURVE"
"674 1132 CURVE"
"787 1132 OFFCURVE"
"957 1039 OFFCURVE"
"1052 852 OFFCURVE"
"1052 710 CURVE"
"1052 0 LINE" 
"872 0 LINE" 
"872 695 LINE" 
"872 824 OFFCURVE"
"737 970 OFFCURVE"
"620 970 CURVE"
"540 970 OFFCURVE"
"412 900 OFFCURVE"
"338 766 OFFCURVE"
);
},
);
},
);
}
{
unicode = "2260";
layers = (
{
layerId = "master-text-regular";
width = 1355;
paths = (
{
closed = 1;
nodes = (
"378 46 LINE" 
"808 1118 LINE" 
"972 1118 LINE" 
"542 46 LINE" 
);
},
{
closed = 1;
nodes = (
"226 717 LINE" 
"226 883 LINE" 
"1130 883 LINE" 
"1130 717 LINE" 
);
},
{
closed = 1;
nodes = (
"226 283 LINE" 
"226 449 LINE" 
"1130 449 LINE" 
"1130 283 LINE" 
);
},
);
},
);
}
{
unicode = "0273";
layers = (
{
layerId = "master-text-regular";
width = 1210;
paths = (
{
closed = 1;
nodes = (
"1163 -427 LINE" 
"1021 -427 OFFCURVE"
"873 -295 OFFCURVE"
"873 -171 CURVE"
"873 0 LINE" 
"1053 0 LINE" 
"1053 -171 LINE" 
"1053 -223 OFFCURVE"
"1126 -272 OFFCURVE"
"1209 -272 CURVE"
"1222 -272 OFFCURVE"
"1252 -270 OFFCURVE"
"1268 -268 CURVE"
"1268 -418 LINE" 
"1253 -422 OFFCURVE"
"1196 -427 OFFCURVE"
);
},
{
closed = 1;
nodes = (
"338 670 LINE" 
"338 0 LINE" 
"158 0 LINE" 
"158 1118 LINE" 
"331 1118 LINE" 
"332 847 LINE" 
"307 847 LINE" 
"358 1002 OFFCURVE"
"547 1132 OFFCURVE"
"674 1132 CURVE"
"787 1132 OFFCURVE"
"957 1039 OFFCURVE"
"1052 852 OFFCURVE"
"1052 710 CURVE"
"1052 0 LINE" 
"872 0 LINE" 
"872 695 LINE" 
"872 824 OFFCURVE"
"737 970 OFFCURVE"
"620 970 CURVE"
"540 970 OFFCURVE"
"412 900 OFFCURVE"
"338 766 OFFCURVE"
);
},
);
},
);
}
{
unicode = "03BD";
layers = (
{
layerId = "master-text-regular";
width = 1202;
paths = (
{
closed = 1;
nodes = (
"532 0 LINE" 
"192 894 LINE" 
"176 938 OFFCURVE"
"125 971 OFFCURVE"
"79 971 CURVE"
"54 971 LINE" 
"54 1126 LINE" 
"84 1126 LINE" 
"189 1126 OFFCURVE"
"327 1047 OFFCURVE"
"358 961 CURVE"
"540 455 LINE" 
"578 351 OFFCURVE"
"631 147 OFFCURVE"
"660 51 CURVE"
"594 51 LINE" 
"623 147 OFFCURVE"
"676 352 OFFCURVE"
"713 455 CURVE"
"952 1118 LINE" 
"1148 1118 LINE" 
"721 0 LINE" 
);
},
);
},
);
}
{
unicode = "0023";
layers = (
{
layerId = "master-text-regular";
width = 1297;
paths = (
{
closed = 1;
nodes = (
"711 0 LINE" 
"957 1490 LINE" 
"1108 1490 LINE" 
"864 0 LINE" 
);
},
{
closed = 1;
nodes = (
"34 411 LINE" 
"59 561 LINE" 
"1175 561 LINE" 
"1150 411 LINE" 
);
},
{
closed = 1;
nodes = (
"189 0 LINE" 
"433 1490 LINE" 
"584 1490 LINE" 
"340 0 LINE" 
);
},
{
closed = 1;
nodes = (
"122 927 LINE" 
"147 1079 LINE" 
"1261 1079 LINE" 
"1238 927 LINE" 
);
},
);
},
);
}
{
unicode = "0375";
layers = (
{
layerId = "master-text-regular";
width = 551;
paths = (
{
closed = 1;
nodes = (
"433 -66 LINE" 
"310 -418 LINE" 
"120 -418 LINE" 
"310 -66 LINE" 
);
},
);
},
);
}
{
unicode = "006F";
layers = (
{
layerId = "master-text-regular";
width = 1228;
paths = (
{
closed = 1;
nodes = (
"613 -24 LINE" 
"461 -24 OFFCURVE"
"232 120 OFFCURVE"
"104 380 OFFCURVE"
"104 552 CURVE"
"104 727 OFFCURVE"
"232 988 OFFCURVE"
"461 1132 OFFCURVE"
"613 1132 CURVE"
"766 1132 OFFCURVE"
"996 988 OFFCURVE"
"1124 727 OFFCURVE"
"1124 552 CURVE"
"1124 380 OFFCURVE"
"996 120 OFFCURVE"
"766 -24 OFFCURVE"
);
},
{
closed = 1;
nodes = (
"613 137 LINE" 
"726 137 OFFCURVE"
"872 253 OFFCURVE"
"942 442 OFFCURVE"
"942 552 CURVE"
"942 663 OFFCURVE"
"872 854 OFFCURVE"
"726 971 OFFCURVE"
"613 971 CURVE"
"501 971 OFFCURVE"
"357 854 OFFCURVE"
"287 664 OFFCURVE"
"287 552 CURVE"
"287 442 OFFCURVE"
"357 253 OFFCURVE"
"501 137 OFFCURVE"
);
},
);
},
);
}
{
unicode = "1D52";
layers = (
{
layerId = "master-text-regular";
width = 875;
paths = (
{
closed = 1;
nodes = (
"438 887 LINE" 
"330 887 OFFCURVE"
"171 968 OFFCURVE"
"84 1111 OFFCURVE"
"84 1205 CURVE"
"84 1299 OFFCURVE"
"171 1442 OFFCURVE"
"330 1523 OFFCURVE"
"438 1523 CURVE"
"546 1523 OFFCURVE"
"705 1442 OFFCURVE"
"791 1299 OFFCURVE"
"791 1205 CURVE"
"791 1111 OFFCURVE"
"705 968 OFFCURVE"
"546 887 OFFCURVE"
);
},
{
closed = 1;
nodes = (
"438 1016 LINE" 
"524 1016 OFFCURVE"
"616 1123 OFFCURVE"
"616 1206 CURVE"
"616 1262 OFFCURVE"
"574 1346 OFFCURVE"
"495 1394 OFFCURVE"
"438 1394 CURVE"
"381 1394 OFFCURVE"
"301 1346 OFFCURVE"
"259 1261 OFFCURVE"
"259 1206 CURVE"
"259 1124 OFFCURVE"
"352 1016 OFFCURVE"
);
},
);
},
);
}
{
unicode = "0276";
layers = (
{
layerId = "master-text-regular";
width = 1642;
paths = (
{
closed = 1;
nodes = (
"595 0 LINE" 
"446 0 OFFCURVE"
"225 149 OFFCURVE"
"104 399 OFFCURVE"
"104 551 CURVE"
"104 567 LINE" 
"104 719 OFFCURVE"
"224 969 OFFCURVE"
"443 1118 OFFCURVE"
"591 1118 CURVE"
"928 1118 LINE" 
"928 958 LINE" 
"585 958 LINE" 
"493 958 OFFCURVE"
"358 850 OFFCURVE"
"286 672 OFFCURVE"
"286 567 CURVE"
"286 551 LINE" 
"286 446 OFFCURVE"
"360 268 OFFCURVE"
"495 160 OFFCURVE"
"589 160 CURVE"
"928 160 LINE" 
"928 0 LINE" 
);
},
{
closed = 1;
nodes = (
"944 0 LINE" 
"944 160 LINE" 
"1579 160 LINE" 
"1579 0 LINE" 
);
},
{
closed = 1;
nodes = (
"817 0 LINE" 
"817 1118 LINE" 
"995 1118 LINE" 
"995 0 LINE" 
);
},
{
closed = 1;
nodes = (
"944 490 LINE" 
"944 647 LINE" 
"1492 647 LINE" 
"1492 490 LINE" 
);
},
{
closed = 1;
nodes = (
"944 958 LINE" 
"944 1118 LINE" 
"1579 1118 LINE" 
"1579 958 LINE" 
);
},
);
},
);
}
{
unicode = "EE9F";
layers = (
{
layerId = "master-text-regular";
width = 553;
paths = (
{
closed = 1;
nodes = (
"331 -436 LINE" 
"234 -436 OFFCURVE"
"94 -336 OFFCURVE"
"94 -242 CURVE"
"94 -168 OFFCURVE"
"187 -36 OFFCURVE"
"265 16 CURVE"
"444 0 LINE" 
"376 -49 OFFCURVE"
"277 -144 OFFCURVE"
"277 -206 CURVE"
"277 -243 OFFCURVE"
"318 -285 OFFCURVE"
"360 -285 CURVE"
"388 -285 OFFCURVE"
"433 -268 OFFCURVE"
"452 -257 CURVE"
"512 -386 LINE" 
"482 -403 OFFCURVE"
"392 -436 OFFCURVE"
);
},
);
},
);
}
{
unicode = "EEA0";
layers = (
{
layerId = "master-text-regular";
width = 820;
paths = (
{
closed = 1;
nodes = (
"219 -436 LINE" 
"122 -436 OFFCURVE"
"-16 -336 OFFCURVE"
"-16 -242 CURVE"
"-16 -170 OFFCURVE"
"66 -67 OFFCURVE"
"202 18 OFFCURVE"
"365 106 OFFCURVE"
"527 217 OFFCURVE"
"663 372 OFFCURVE"
"745 591 OFFCURVE"
"745 744 CURVE"
"820 744 LINE" 
"820 579 OFFCURVE"
"749 341 OFFCURVE"
"632 174 OFFCURVE"
"493 59 OFFCURVE"
"353 -22 OFFCURVE"
"236 -88 OFFCURVE"
"165 -159 OFFCURVE"
"165 -206 CURVE"
"165 -243 OFFCURVE"
"206 -285 OFFCURVE"
"248 -285 CURVE"
"276 -285 OFFCURVE"
"322 -268 OFFCURVE"
"341 -257 CURVE"
"400 -386 LINE" 
"370 -403 OFFCURVE"
"281 -436 OFFCURVE"
);
},
);
},
);
}
{
unicode = "EEA1";
layers = (
{
layerId = "master-text-regular";
width = 819;
paths = (
{
closed = 1;
nodes = (
"299 -436 LINE" 
"202 -436 OFFCURVE"
"64 -336 OFFCURVE"
"64 -242 CURVE"
"64 -179 OFFCURVE"
"138 -86 OFFCURVE"
"259 -11 OFFCURVE"
"404 61 OFFCURVE"
"549 145 OFFCURVE"
"670 254 OFFCURVE"
"744 404 OFFCURVE"
"744 507 CURVE"
"819 507 LINE" 
"819 376 OFFCURVE"
"736 196 OFFCURVE"
"605 74 OFFCURVE"
"459 -10 OFFCURVE"
"328 -79 OFFCURVE"
"245 -154 OFFCURVE"
"245 -206 CURVE"
"245 -243 OFFCURVE"
"286 -285 OFFCURVE"
"328 -285 CURVE"
"356 -285 OFFCURVE"
"402 -268 OFFCURVE"
"421 -257 CURVE"
"480 -386 LINE" 
"450 -403 OFFCURVE"
"361 -436 OFFCURVE"
);
},
);
},
);
}
{
unicode = "EEA2";
layers = (
{
layerId = "master-text-regular";
width = 551;
paths = (
{
closed = 1;
nodes = (
"329 -426 LINE" 
"232 -426 OFFCURVE"
"94 -326 OFFCURVE"
"94 -232 CURVE"
"94 -161 OFFCURVE"
"183 -39 OFFCURVE"
"265 16 CURVE"
"443 0 LINE" 
"376 -48 OFFCURVE"
"275 -134 OFFCURVE"
"275 -197 CURVE"
"275 -233 OFFCURVE"
"316 -275 OFFCURVE"
"358 -275 CURVE"
"388 -275 OFFCURVE"
"435 -257 OFFCURVE"
"451 -248 CURVE"
"510 -376 LINE" 
"480 -393 OFFCURVE"
"391 -426 OFFCURVE"
);
},
);
},
);
}
{
unicode = "EEA3";
layers = (
{
layerId = "master-text-regular";
width = 582;
paths = (
{
closed = 1;
nodes = (
"329 -436 LINE" 
"232 -436 OFFCURVE"
"94 -336 OFFCURVE"
"94 -242 CURVE"
"94 -206 OFFCURVE"
"116 -135 OFFCURVE"
"155 -63 OFFCURVE"
"208 12 OFFCURVE"
"240 53 CURVE"
"518 260 LINE" 
"490 173 OFFCURVE"
"408 36 OFFCURVE"
"328 -72 OFFCURVE"
"275 -164 OFFCURVE"
"275 -206 CURVE"
"275 -243 OFFCURVE"
"316 -285 OFFCURVE"
"358 -285 CURVE"
"386 -285 OFFCURVE"
"432 -268 OFFCURVE"
"451 -257 CURVE"
"510 -386 LINE" 
"480 -403 OFFCURVE"
"391 -436 OFFCURVE"
);
},
);
},
);
}
{
unicode = "EEA4";
layers = (
{
layerId = "master-text-regular";
width = 583;
paths = (
{
closed = 1;
nodes = (
"72 -436 LINE" 
"-25 -436 OFFCURVE"
"-163 -336 OFFCURVE"
"-163 -242 CURVE"
"-163 -180 OFFCURVE"
"-103 -86 OFFCURVE"
"-3 -7 OFFCURVE"
"116 72 OFFCURVE"
"234 164 OFFCURVE"
"334 283 OFFCURVE"
"394 444 OFFCURVE"
"394 552 CURVE"
"519 552 LINE" 
"519 409 OFFCURVE"
"447 212 OFFCURVE"
"333 81 OFFCURVE"
"204 -8 OFFCURVE"
"90 -78 OFFCURVE"
"18 -153 OFFCURVE"
"18 -206 CURVE"
"18 -243 OFFCURVE"
"59 -285 OFFCURVE"
"101 -285 CURVE"
"129 -285 OFFCURVE"
"175 -268 OFFCURVE"
"194 -257 CURVE"
"253 -386 LINE" 
"223 -403 OFFCURVE"
"134 -436 OFFCURVE"
);
},
);
},
);
}
{
unicode = "EEA6";
layers = (
{
layerId = "master-text-regular";
width = 583;
paths = (
{
closed = 1;
nodes = (
"72 -436 LINE" 
"-25 -436 OFFCURVE"
"-163 -336 OFFCURVE"
"-163 -242 CURVE"
"-163 -180 OFFCURVE"
"-103 -92 OFFCURVE"
"-3 -25 OFFCURVE"
"116 36 OFFCURVE"
"234 106 OFFCURVE"
"334 198 OFFCURVE"
"394 327 OFFCURVE"
"394 418 CURVE"
"519 418 LINE" 
"519 295 OFFCURVE"
"447 134 OFFCURVE"
"333 33 OFFCURVE"
"204 -33 OFFCURVE"
"90 -87 OFFCURVE"
"18 -153 OFFCURVE"
"18 -206 CURVE"
"18 -243 OFFCURVE"
"59 -285 OFFCURVE"
"101 -285 CURVE"
"129 -285 OFFCURVE"
"175 -268 OFFCURVE"
"194 -257 CURVE"
"253 -386 LINE" 
"223 -403 OFFCURVE"
"134 -436 OFFCURVE"
);
},
);
},
);
}
{
unicode = "EEA5";
layers = (
{
layerId = "master-text-regular";
width = 514;
paths = (
{
closed = 1;
nodes = (
"277 -426 LINE" 
"201 -426 OFFCURVE"
"107 -368 OFFCURVE"
"64 -268 OFFCURVE"
"64 -206 CURVE"
"293 0 LINE" 
"238 -148 LINE" 
"214 -212 OFFCURVE"
"242 -275 OFFCURVE"
"294 -275 CURVE"
"324 -275 OFFCURVE"
"373 -258 OFFCURVE"
"391 -248 CURVE"
"450 -376 LINE" 
"420 -393 OFFCURVE"
"339 -426 OFFCURVE"
);
},
);
},
);
}
{
unicode = "03C9";
layers = (
{
layerId = "master-text-regular";
width = 1648;
paths = (
{
closed = 1;
nodes = (
"516 -16 LINE" 
"397 -16 OFFCURVE"
"211 100 OFFCURVE"
"104 329 OFFCURVE"
"104 500 CURVE"
"104 651 OFFCURVE"
"180 892 OFFCURVE"
"292 1068 OFFCURVE"
"345 1118 CURVE"
"547 1118 LINE" 
"484 1049 OFFCURVE"
"364 871 OFFCURVE"
"286 644 OFFCURVE"
"286 500 CURVE"
"286 329 OFFCURVE"
"409 144 OFFCURVE"
"521 144 CURVE"
"628 144 OFFCURVE"
"738 315 OFFCURVE"
"738 478 CURVE"
"738 722 LINE" 
"913 722 LINE" 
"913 478 LINE" 
"913 315 OFFCURVE"
"1013 144 OFFCURVE"
"1122 144 CURVE"
"1238 144 OFFCURVE"
"1362 329 OFFCURVE"
"1362 500 CURVE"
"1362 648 OFFCURVE"
"1281 879 OFFCURVE"
"1161 1054 OFFCURVE"
"1101 1118 CURVE"
"1303 1118 LINE" 
"1354 1070 OFFCURVE"
"1466 898 OFFCURVE"
"1544 655 OFFCURVE"
"1544 500 CURVE"
"1544 328 OFFCURVE"
"1437 99 OFFCURVE"
"1249 -16 OFFCURVE"
"1128 -16 CURVE"
"1029 -16 OFFCURVE"
"899 56 OFFCURVE"
"823 181 OFFCURVE"
"804 261 CURVE"
"838 261 LINE" 
"820 177 OFFCURVE"
"740 53 OFFCURVE"
"610 -16 OFFCURVE"
);
},
);
},
);
}
{
unicode = "0277";
layers = (
{
layerId = "master-text-regular";
width = 1673;
paths = (
{
closed = 1;
nodes = (
"837 1132 LINE" 
"837 966 LINE" 
"641 966 OFFCURVE"
"415 843 OFFCURVE"
"320 632 OFFCURVE"
"320 501 CURVE"
"320 415 OFFCURVE"
"358 252 OFFCURVE"
"450 146 OFFCURVE"
"529 146 CURVE"
"611 146 OFFCURVE"
"734 295 OFFCURVE"
"734 474 CURVE"
"734 662 LINE" 
"877 662 LINE" 
"877 476 LINE" 
"877 238 OFFCURVE"
"689 -20 OFFCURVE"
"513 -20 CURVE"
"402 -20 OFFCURVE"
"247 72 OFFCURVE"
"153 225 OFFCURVE"
"110 407 OFFCURVE"
"110 497 CURVE"
"110 618 OFFCURVE"
"190 845 OFFCURVE"
"363 1026 OFFCURVE"
"640 1132 OFFCURVE"
);
},
{
closed = 1;
nodes = (
"837 966 LINE" 
"837 1132 LINE" 
"1034 1132 OFFCURVE"
"1310 1026 OFFCURVE"
"1483 845 OFFCURVE"
"1563 618 OFFCURVE"
"1563 497 CURVE"
"1563 407 OFFCURVE"
"1520 225 OFFCURVE"
"1426 72 OFFCURVE"
"1272 -20 OFFCURVE"
"1161 -20 CURVE"
"986 -20 OFFCURVE"
"797 238 OFFCURVE"
"797 476 CURVE"
"797 662 LINE" 
"939 662 LINE" 
"940 474 LINE" 
"941 298 OFFCURVE"
"1061 146 OFFCURVE"
"1144 146 CURVE"
"1224 146 OFFCURVE"
"1316 252 OFFCURVE"
"1354 415 OFFCURVE"
"1354 501 CURVE"
"1354 632 OFFCURVE"
"1259 843 OFFCURVE"
"1034 966 OFFCURVE"
);
},
);
},
);
}
{
unicode = "0031";
layers = (
{
layerId = "master-text-regular";
width = 833;
paths = (
{
closed = 1;
nodes = (
"653 1490 LINE" 
"653 0 LINE" 
"466 0 LINE" 
"466 1314 LINE" 
"456 1314 LINE" 
"96 1047 LINE" 
"96 1251 LINE" 
"420 1490 LINE" 
);
},
);
},
);
}
{
unicode = "E0B5";
layers = (
{
layerId = "master-text-regular";
width = 539;
paths = (
{
closed = 1;
nodes = (
"438 812 LINE" 
"438 0 LINE" 
"277 0 LINE" 
"277 676 LINE" 
"268 676 LINE" 
"75 527 LINE" 
"75 687 LINE" 
"238 812 LINE" 
);
},
);
},
);
}
{
layers = (
{
layerId = "master-text-regular";
width = 522;
paths = (
{
closed = 1;
nodes = (
"260 0 LINE" 
"260 680 LINE" 
"268 678 LINE" 
"267 645 OFFCURVE"
"209 589 OFFCURVE"
"122 555 OFFCURVE"
"77 555 CURVE"
"77 685 LINE" 
"73 685 LINE" 
"136 685 OFFCURVE"
"255 768 OFFCURVE"
"283 812 CURVE"
"421 812 LINE" 
"421 0 LINE" 
);
},
);
},
);
}
{
unicode = "E06C";
layers = (
{
layerId = "master-text-regular";
width = 816;
paths = (
{
closed = 1;
nodes = (
"449 0 LINE" 
"449 1253 LINE" 
"463 1243 LINE" 
"444 1208 OFFCURVE"
"349 1147 OFFCURVE"
"210 1109 OFFCURVE"
"126 1109 CURVE"
"126 1266 LINE" 
"132 1266 LINE" 
"210 1266 OFFCURVE"
"347 1323 OFFCURVE"
"449 1424 OFFCURVE"
"473 1490 CURVE"
"636 1490 LINE" 
"636 0 LINE" 
);
},
);
},
);
}
{
unicode = "00B9";
layers = (
{
layerId = "master-text-regular";
width = 623;
paths = (
{
closed = 1;
nodes = (
"499 1710 LINE" 
"499 898 LINE" 
"326 898 LINE" 
"326 1563 LINE" 
"318 1563 LINE" 
"99 1434 LINE" 
"99 1586 LINE" 
"306 1710 LINE" 
);
},
);
},
);
}
{
layers = (
{
layerId = "master-text-regular";
width = 609;
paths = (
{
closed = 1;
nodes = (
"311 898 LINE" 
"311 1533 LINE" 
"321 1529 LINE" 
"304 1494 OFFCURVE"
"231 1451 OFFCURVE"
"142 1431 OFFCURVE"
"99 1431 CURVE"
"99 1570 LINE" 
"98 1570 LINE" 
"175 1570 OFFCURVE"
"313 1649 OFFCURVE"
"338 1710 CURVE"
"485 1710 LINE" 
"485 898 LINE" 
);
},
);
},
);
}
{
unicode = "E072";
layers = (
{
layerId = "master-text-regular";
width = 1328;
paths = (
{
closed = 1;
nodes = (
"225 0 LINE" 
"225 160 LINE" 
"1146 160 LINE" 
"1146 0 LINE" 
);
},
{
closed = 1;
nodes = (
"811 1490 LINE" 
"811 0 LINE" 
"624 0 LINE" 
"624 1314 LINE" 
"614 1314 LINE" 
"254 1047 LINE" 
"254 1251 LINE" 
"578 1490 LINE" 
);
},
);
},
);
}
